<svg xmlns="http://www.w3.org/2000/svg" xmlns:xlink="http://www.w3.org/1999/xlink" width="499" zoomAndPan="magnify" viewBox="0 0 374.25 101.249998" height="135" preserveAspectRatio="xMidYMid meet" version="1.0"><defs><g/><clipPath id="a8280e4dc5"><path d="M 20 31 L 83 31 L 83 92.6875 L 20 92.6875 Z M 20 31 " clip-rule="nonzero"/></clipPath><clipPath id="8ff34a879a"><path d="M 50 76 L 62 76 L 62 92.6875 L 50 92.6875 Z M 50 76 " clip-rule="nonzero"/></clipPath><clipPath id="96287b689e"><path d="M 44 86 L 52 86 L 52 92.6875 L 44 92.6875 Z M 44 86 " clip-rule="nonzero"/></clipPath><clipPath id="bf6d4d144b"><path d="M 44 10.050781 L 72 10.050781 L 72 33 L 44 33 Z M 44 10.050781 " clip-rule="nonzero"/></clipPath><clipPath id="3abe21da5a"><path d="M 20 69 L 83 69 L 83 92.6875 L 20 92.6875 Z M 20 69 " clip-rule="nonzero"/></clipPath></defs><g clip-path="url(#a8280e4dc5)"><path fill="#f99b28" d="M 72.402344 90.394531 C 64.476562 90.675781 64.921875 90.394531 62.386719 90.394531 C 61.429688 90.394531 59.5 87.96875 62.382812 86.550781 C 63.773438 85.878906 65.089844 85.082031 66.320312 84.179688 C 68.015625 82.9375 69.542969 81.488281 70.863281 79.867188 C 67.375 82.445312 63.027344 83.089844 58.988281 82.972656 C 58.234375 84.726562 57.332031 87.964844 56.257812 89.253906 C 56.257812 89.253906 56.441406 89.175781 55.785156 89.765625 L 55.21875 90.375 C 54.554688 90.96875 53.617188 91.628906 52.511719 91.863281 C 51.988281 92 51.441406 92.0625 50.867188 92.035156 C 50.746094 92.039062 50.621094 92.042969 50.496094 92.042969 C 47.308594 92.042969 44.722656 91.941406 44.722656 90.363281 C 44.722656 90.179688 44.738281 90.003906 44.757812 89.835938 C 44.917969 88.574219 45.671875 87.667969 46.777344 87.09375 C 46.257812 85.296875 45.898438 81.621094 45.65625 79.640625 C 43.691406 78.039062 41.90625 75.609375 40.050781 73.855469 C 38.265625 72.171875 36.414062 71.105469 34.265625 71.996094 C 34.179688 72.035156 34.09375 72.070312 34.011719 72.113281 C 30.125 73.90625 31.210938 78.011719 32.746094 81.050781 C 33.21875 82 33.738281 82.839844 34.160156 83.480469 C 33.246094 90.257812 30.453125 90.113281 30.453125 90.113281 C 30.453125 90.113281 20.097656 91.609375 20.269531 87.71875 C 20.347656 86.015625 21.816406 85.230469 23.4375 84.722656 L 23.425781 84.578125 L 20.320312 55.191406 L 20.269531 54.730469 C 20.214844 54.152344 20.1875 53.570312 20.1875 52.980469 C 20.1875 41.238281 31.179688 31.714844 44.730469 31.714844 C 55.773438 31.714844 65.113281 38.035156 68.195312 46.726562 C 68.195312 46.726562 68.917969 51.113281 69.269531 52.550781 C 69.894531 55.109375 71.550781 58.414062 74.503906 61.367188 C 75.039062 61.898438 75.625 62.382812 76.242188 62.882812 C 77.601562 63.980469 79.0625 65.132812 80.199219 66.957031 C 80.796875 67.921875 81.308594 69.074219 81.652344 70.5 C 83.539062 78.234375 81.726562 90.058594 72.402344 90.394531 Z M 72.402344 90.394531 " fill-opacity="1" fill-rule="nonzero"/></g><path fill="#ffffff" d="M 62.039062 69.597656 C 62.039062 69.597656 58.730469 82.175781 56.625 84.410156 C 56.625 84.410156 58.089844 83.511719 58.921875 82.433594 C 58.921875 82.4375 61.886719 74.457031 62.039062 69.597656 Z M 62.039062 69.597656 " fill-opacity="0.6" fill-rule="nonzero"/><path fill="#fca030" d="M 80.1875 66.957031 C 79.050781 65.128906 77.585938 63.976562 76.230469 62.878906 C 76.230469 62.878906 77.382812 63.148438 77.832031 60.351562 C 78.339844 57.191406 82.761719 61.964844 80.1875 66.957031 Z M 80.1875 66.957031 " fill-opacity="1" fill-rule="nonzero"/><path fill="#380d36" d="M 80.191406 67.136719 L 80.109375 67.003906 C 79.015625 65.25 77.636719 64.132812 76.300781 63.054688 L 75.863281 62.699219 L 76.246094 62.789062 C 76.253906 62.792969 76.457031 62.835938 76.726562 62.648438 C 77.058594 62.421875 77.5 61.839844 77.742188 60.339844 C 77.863281 59.578125 78.191406 59.335938 78.445312 59.269531 C 78.867188 59.15625 79.414062 59.453125 79.898438 60.054688 C 81.054688 61.5 81.660156 64.285156 80.261719 66.996094 Z M 76.472656 62.957031 C 77.769531 64.003906 79.097656 65.09375 80.175781 66.773438 C 81.445312 64.179688 80.863281 61.546875 79.761719 60.171875 C 79.324219 59.625 78.847656 59.355469 78.496094 59.449219 C 78.207031 59.527344 78.007812 59.84375 77.921875 60.367188 C 77.667969 61.945312 77.1875 62.5625 76.820312 62.808594 C 76.691406 62.894531 76.574219 62.9375 76.472656 62.957031 Z M 76.472656 62.957031 " fill-opacity="1" fill-rule="nonzero"/><path fill="#ffffff" d="M 81.03125 65.507812 C 81.351562 62.175781 79.003906 59.617188 78.054688 60.589844 C 78.53125 57.882812 81.988281 61.261719 81.03125 65.507812 Z M 81.03125 65.507812 " fill-opacity="0.6" fill-rule="nonzero"/><path fill="#380d36" d="M 80.1875 67.472656 C 80.089844 67.472656 79.988281 67.449219 79.894531 67.402344 C 79.585938 67.242188 79.464844 66.859375 79.625 66.550781 C 81 63.882812 80.148438 61.5 79.429688 60.511719 C 79.039062 59.972656 78.707031 59.847656 78.632812 59.855469 C 78.609375 59.875 78.511719 60 78.457031 60.339844 C 78.230469 61.757812 77.78125 62.703125 77.125 63.140625 C 76.730469 63.402344 76.332031 63.4375 76.085938 63.378906 C 75.746094 63.300781 75.53125 62.957031 75.613281 62.617188 C 75.6875 62.292969 75.996094 62.089844 76.320312 62.136719 C 76.476562 62.117188 76.953125 61.722656 77.210938 60.136719 C 77.386719 59.03125 77.976562 58.714844 78.3125 58.628906 C 78.964844 58.457031 79.699219 58.8125 80.332031 59.601562 C 81.59375 61.179688 82.257812 64.207031 80.75 67.128906 C 80.636719 67.351562 80.414062 67.472656 80.1875 67.472656 Z M 76.371094 62.144531 L 76.375 62.144531 C 76.375 62.144531 76.371094 62.144531 76.371094 62.144531 Z M 76.371094 62.144531 Z M 76.371094 62.144531 " fill-opacity="1" fill-rule="nonzero"/><path fill="#ffffff" d="M 82.210938 73.964844 C 81.292969 68.832031 79.578125 69.921875 73.300781 62.65625 C 67.984375 56.503906 68.019531 52.070312 68.675781 49.746094 C 68.890625 50.933594 69.125 52.203125 69.285156 52.859375 C 69.914062 55.421875 71.570312 58.71875 74.523438 61.675781 C 75.054688 62.207031 75.644531 62.6875 76.257812 63.1875 C 78.332031 64.867188 80.65625 66.671875 81.671875 70.804688 C 81.917969 71.804688 82.097656 72.867188 82.210938 73.964844 Z M 82.210938 73.964844 " fill-opacity="0.6" fill-rule="nonzero"/><path fill="#ffffff" d="M 46.769531 87.09375 C 45.664062 87.667969 45.953125 87.09375 45.242188 88.445312 C 41.261719 87.398438 37.183594 85.214844 34.253906 82.554688 C 33.722656 82.078125 33.210938 81.570312 32.726562 81.046875 C 31.199219 78.007812 30.109375 73.902344 33.992188 72.109375 C 34.078125 72.066406 34.160156 72.03125 34.25 71.992188 C 36.398438 71.101562 38.25 72.167969 40.035156 73.851562 C 41.890625 75.605469 43.671875 78.035156 45.640625 79.640625 C 45.890625 81.617188 46.25 85.296875 46.769531 87.09375 Z M 46.769531 87.09375 " fill-opacity="1" fill-rule="nonzero"/><path fill="#ffffff" d="M 70.679688 79.898438 C 69.359375 81.515625 67.832031 82.964844 66.136719 84.207031 C 64.910156 85.113281 63.59375 85.90625 62.203125 86.578125 C 59.980469 87.652344 58.953125 88.414062 56.417969 88.800781 C 56.925781 87.675781 57.226562 87.121094 57.226562 87.121094 C 58.296875 85.835938 58.050781 84.757812 58.804688 83.003906 C 62.84375 83.121094 67.191406 82.476562 70.679688 79.898438 Z M 70.679688 79.898438 " fill-opacity="1" fill-rule="nonzero"/><path fill="#380d36" d="M 44.75 88.753906 C 44.695312 88.753906 44.644531 88.746094 44.589844 88.734375 C 40.597656 87.683594 36.875 85.671875 33.828125 82.914062 C 33.574219 82.683594 33.320312 82.445312 33.074219 82.203125 C 32.824219 81.957031 32.820312 81.554688 33.066406 81.304688 C 33.3125 81.054688 33.714844 81.050781 33.964844 81.296875 C 34.199219 81.53125 34.4375 81.757812 34.679688 81.976562 C 37.578125 84.601562 41.117188 86.515625 44.914062 87.511719 C 45.25 87.597656 45.453125 87.945312 45.363281 88.285156 C 45.289062 88.566406 45.035156 88.753906 44.75 88.753906 Z M 44.75 88.753906 " fill-opacity="1" fill-rule="nonzero"/><path fill="#380d36" d="M 34.074219 82.847656 C 33.90625 82.847656 33.734375 82.78125 33.609375 82.648438 C 30.492188 79.292969 28.316406 75.800781 27.136719 72.265625 C 27.027344 71.933594 27.207031 71.574219 27.539062 71.464844 C 27.871094 71.351562 28.230469 71.53125 28.339844 71.867188 C 29.457031 75.222656 31.542969 78.5625 34.535156 81.785156 C 34.773438 82.039062 34.761719 82.441406 34.5 82.679688 C 34.382812 82.792969 34.230469 82.847656 34.074219 82.847656 Z M 34.074219 82.847656 " fill-opacity="1" fill-rule="nonzero"/><path stroke-linecap="round" transform="matrix(0.0336702, 0, 0, 0.0337243, 7.094357, 10.918912)" fill="none" stroke-linejoin="miter" d="M 1893.812219 2041.111184 Z M 1893.812219 2041.111184 " stroke="#380d36" stroke-width="37.618999" stroke-opacity="1" stroke-miterlimit="10"/><path fill="#380d36" d="M 57.089844 88.929688 C 56.800781 88.929688 56.542969 88.730469 56.476562 88.4375 C 56.398438 88.097656 56.609375 87.757812 56.949219 87.675781 C 58.726562 87.265625 60.460938 86.652344 62.105469 85.859375 C 63.453125 85.210938 64.746094 84.429688 65.941406 83.550781 L 66.109375 83.425781 C 67.617188 82.300781 68.992188 81 70.191406 79.566406 C 70.417969 79.292969 70.816406 79.261719 71.085938 79.484375 C 71.355469 79.710938 71.386719 80.109375 71.160156 80.378906 C 69.851562 81.945312 68.347656 83.355469 66.6875 84.574219 L 66.519531 84.695312 C 65.308594 85.570312 64.007812 86.347656 62.652344 87 C 60.925781 87.832031 59.101562 88.476562 57.234375 88.910156 C 57.183594 88.921875 57.136719 88.929688 57.089844 88.929688 Z M 57.089844 88.929688 " fill-opacity="1" fill-rule="nonzero"/><path stroke-linecap="round" transform="matrix(0.0336702, 0, 0, 0.0337243, 7.094357, 10.918912)" fill="none" stroke-linejoin="miter" d="M 1475.11378 2299.989065 Z M 1475.11378 2299.989065 " stroke="#380d36" stroke-width="37.618999" stroke-opacity="1" stroke-miterlimit="10"/><path fill="#380d36" d="M 68.183594 47.242188 C 68 47.242188 67.839844 47.164062 67.722656 47.042969 C 67.613281 46.929688 67.546875 46.777344 67.546875 46.605469 C 67.546875 46.253906 67.828125 45.972656 68.179688 45.972656 C 68.527344 45.972656 68.816406 46.257812 68.816406 46.609375 C 68.816406 46.960938 68.53125 47.242188 68.183594 47.242188 Z M 68.183594 47.242188 " fill-opacity="1" fill-rule="nonzero"/><path fill="#380d36" d="M 66.84375 91.039062 C 65.53125 91.039062 64.820312 91 64.160156 90.964844 C 63.613281 90.933594 63.140625 90.910156 62.382812 90.910156 C 61.515625 90.910156 60.535156 89.96875 60.285156 88.894531 C 60.152344 88.320312 60.0625 86.871094 62.085938 85.871094 C 62.324219 85.742188 62.628906 85.78125 62.832031 85.980469 C 63.078125 86.230469 63.082031 86.628906 62.835938 86.875 L 62.757812 86.953125 L 62.664062 87 C 61.785156 87.433594 61.398438 87.960938 61.519531 88.570312 C 61.640625 89.191406 62.21875 89.628906 62.390625 89.640625 C 62.390625 89.640625 62.390625 89.640625 62.394531 89.640625 C 63.179688 89.640625 63.691406 89.667969 64.230469 89.695312 C 65.476562 89.761719 66.894531 89.835938 72.378906 89.640625 C 75.085938 89.542969 77.265625 88.417969 78.871094 86.292969 C 81.996094 82.152344 82.183594 75.21875 81.03125 70.535156 C 80.089844 66.691406 77.992188 65 75.964844 63.363281 L 75.835938 63.253906 C 75.179688 62.722656 74.589844 62.242188 74.046875 61.699219 C 71.375 59.019531 69.40625 55.699219 68.644531 52.582031 C 68.308594 51.210938 67.664062 47.328125 67.570312 46.769531 C 64.460938 38.070312 55.28125 32.230469 44.71875 32.230469 C 31.53125 32.230469 20.808594 41.484375 20.808594 52.859375 C 20.808594 53.429688 20.835938 54 20.890625 54.546875 L 20.9375 55.003906 C 20.972656 55.351562 20.71875 55.664062 20.375 55.703125 C 20.023438 55.738281 19.714844 55.484375 19.675781 55.136719 L 19.625 54.675781 C 19.570312 54.078125 19.542969 53.472656 19.542969 52.863281 C 19.542969 40.789062 30.835938 30.964844 44.71875 30.964844 C 50.195312 30.964844 55.40625 32.46875 59.78125 35.3125 C 63.894531 37.984375 67.015625 41.757812 68.625 45.972656 L 68.816406 45.972656 L 68.816406 46.554688 C 68.894531 47.042969 69.550781 50.964844 69.867188 52.28125 C 70.574219 55.179688 72.425781 58.28125 74.9375 60.800781 C 75.433594 61.300781 75.992188 61.761719 76.625 62.265625 L 76.753906 62.375 C 78.84375 64.0625 81.210938 65.972656 82.253906 70.230469 C 83.511719 75.367188 83.265625 82.558594 79.875 87.058594 C 78.03125 89.503906 75.523438 90.796875 72.421875 90.910156 C 69.765625 91.003906 68.050781 91.039062 66.84375 91.039062 Z M 66.84375 91.039062 " fill-opacity="1" fill-rule="nonzero"/><path fill="#380d36" d="M 23.425781 85.238281 C 23.105469 85.238281 22.828125 84.996094 22.792969 84.667969 L 22.78125 84.523438 L 19.628906 54.671875 C 19.59375 54.324219 19.84375 54.011719 20.191406 53.976562 C 20.542969 53.9375 20.851562 54.191406 20.890625 54.539062 L 20.941406 55 L 24.058594 84.53125 C 24.09375 84.878906 23.84375 85.191406 23.492188 85.230469 C 23.46875 85.238281 23.445312 85.238281 23.425781 85.238281 Z M 23.425781 85.238281 " fill-opacity="1" fill-rule="nonzero"/><path fill="#380d36" d="M 26.316406 90.917969 C 24.125 90.917969 21.671875 90.636719 20.449219 89.527344 C 19.875 89.007812 19.59375 88.332031 19.625 87.570312 C 19.726562 85.351562 21.734375 84.46875 23.238281 84 C 23.574219 83.894531 23.929688 84.082031 24.035156 84.414062 C 24.136719 84.75 23.953125 85.105469 23.621094 85.210938 C 21.761719 85.789062 20.945312 86.515625 20.894531 87.628906 C 20.878906 88.015625 21.007812 88.324219 21.304688 88.589844 C 22.933594 90.066406 28.394531 89.652344 30.359375 89.367188 L 30.441406 89.355469 L 30.476562 89.359375 C 30.648438 89.34375 32.75 89.035156 33.527344 83.273438 C 33.5625 82.996094 33.597656 82.707031 33.628906 82.378906 C 33.660156 82.058594 33.929688 81.804688 34.257812 81.804688 C 34.609375 81.804688 34.890625 82.085938 34.890625 82.4375 L 34.890625 82.503906 C 34.855469 82.847656 34.820312 83.15625 34.777344 83.445312 C 33.867188 90.226562 31.070312 90.621094 30.492188 90.628906 C 30.019531 90.695312 28.273438 90.917969 26.316406 90.917969 Z M 26.316406 90.917969 " fill-opacity="1" fill-rule="nonzero"/><path fill="#380d36" d="M 60.855469 77.957031 C 60.804688 77.957031 60.75 77.949219 60.699219 77.9375 C 60.355469 77.847656 60.15625 77.503906 60.242188 77.164062 C 61.222656 73.335938 61.753906 69.554688 61.757812 69.519531 C 61.804688 69.171875 62.125 68.929688 62.472656 68.980469 C 62.820312 69.027344 63.0625 69.347656 63.011719 69.695312 C 63.003906 69.730469 62.464844 73.578125 61.464844 77.480469 C 61.394531 77.765625 61.136719 77.957031 60.855469 77.957031 Z M 60.855469 77.957031 " fill-opacity="1" fill-rule="nonzero"/><g clip-path="url(#8ff34a879a)"><path fill="#380d36" d="M 51.097656 92.675781 C 51.011719 92.675781 50.917969 92.671875 50.832031 92.671875 C 50.480469 92.65625 50.210938 92.359375 50.226562 92.007812 C 50.238281 91.65625 50.535156 91.386719 50.886719 91.402344 C 51.382812 91.421875 51.875 91.371094 52.347656 91.246094 L 52.375 91.238281 C 53.367188 91.027344 54.222656 90.40625 54.769531 89.917969 L 55.78125 88.832031 C 56.4375 88.03125 57.070312 86.25 57.625 84.671875 C 57.898438 83.902344 58.15625 83.175781 58.402344 82.601562 C 59.078125 81.03125 59.695312 79.207031 60.234375 77.1875 C 60.328125 76.851562 60.671875 76.648438 61.011719 76.738281 C 61.347656 76.828125 61.550781 77.175781 61.457031 77.515625 C 60.898438 79.589844 60.261719 81.472656 59.5625 83.101562 C 59.332031 83.636719 59.082031 84.34375 58.820312 85.09375 C 58.222656 86.773438 57.546875 88.683594 56.742188 89.652344 L 56.71875 89.679688 L 55.636719 90.839844 C 54.976562 91.433594 53.921875 92.199219 52.648438 92.472656 C 52.148438 92.613281 51.625 92.675781 51.097656 92.675781 Z M 51.097656 92.675781 " fill-opacity="1" fill-rule="nonzero"/></g><path fill="#380d36" d="M 45.835938 81.582031 C 45.519531 81.582031 45.246094 81.34375 45.210938 81.023438 C 44.945312 78.871094 44.636719 75.527344 44.574219 74.152344 C 44.507812 72.789062 44.5 71.917969 44.5 71.886719 C 44.5 71.535156 44.78125 71.25 45.132812 71.25 L 45.136719 71.25 C 45.480469 71.25 45.769531 71.53125 45.769531 71.878906 C 45.769531 71.890625 45.773438 72.757812 45.835938 74.09375 C 45.898438 75.445312 46.203125 78.742188 46.460938 80.875 C 46.503906 81.21875 46.257812 81.539062 45.910156 81.578125 C 45.886719 81.578125 45.863281 81.582031 45.835938 81.582031 Z M 45.835938 81.582031 " fill-opacity="1" fill-rule="nonzero"/><path fill="#380d36" d="M 46.769531 87.730469 C 46.5 87.730469 46.242188 87.550781 46.164062 87.273438 C 45.726562 85.765625 45.414062 83.023438 45.183594 81.019531 C 45.144531 80.671875 45.394531 80.355469 45.746094 80.316406 C 46.089844 80.277344 46.40625 80.527344 46.445312 80.875 C 46.652344 82.726562 46.972656 85.515625 47.378906 86.921875 C 47.476562 87.257812 47.285156 87.609375 46.949219 87.707031 C 46.890625 87.722656 46.828125 87.730469 46.769531 87.730469 Z M 46.769531 87.730469 " fill-opacity="1" fill-rule="nonzero"/><g clip-path="url(#96287b689e)"><path fill="#380d36" d="M 50.488281 92.679688 C 47.488281 92.679688 44.085938 92.679688 44.085938 90.367188 C 44.085938 90.160156 44.097656 89.957031 44.125 89.757812 C 44.304688 88.355469 45.117188 87.242188 46.480469 86.53125 C 46.792969 86.371094 47.175781 86.492188 47.335938 86.800781 C 47.5 87.113281 47.378906 87.496094 47.066406 87.660156 C 46.078125 88.171875 45.511719 88.933594 45.382812 89.917969 C 45.363281 90.066406 45.355469 90.214844 45.355469 90.363281 C 45.355469 91.410156 48.445312 91.410156 50.488281 91.410156 C 50.605469 91.410156 50.722656 91.410156 50.835938 91.402344 C 51.183594 91.386719 51.476562 91.660156 51.492188 92.011719 C 51.503906 92.363281 51.234375 92.65625 50.882812 92.667969 C 50.75 92.675781 50.621094 92.679688 50.488281 92.679688 Z M 50.488281 92.679688 " fill-opacity="1" fill-rule="nonzero"/></g><path fill="#380d36" d="M 72.699219 87.234375 C 72.488281 87.234375 72.285156 87.128906 72.160156 86.933594 C 70.550781 84.347656 67.65625 84.496094 66.484375 84.675781 C 66.414062 84.6875 66.375 84.695312 66.316406 84.695312 C 65.964844 84.695312 65.683594 84.410156 65.683594 84.058594 C 65.683594 83.730469 65.9375 83.457031 66.257812 83.429688 L 66.289062 83.425781 C 67.710938 83.203125 71.226562 83.03125 73.234375 86.261719 C 73.421875 86.558594 73.332031 86.949219 73.035156 87.136719 C 72.929688 87.203125 72.8125 87.234375 72.699219 87.234375 Z M 72.699219 87.234375 " fill-opacity="1" fill-rule="nonzero"/><path fill="#380d36" d="M 70.859375 80.386719 C 70.664062 80.386719 70.472656 80.300781 70.347656 80.132812 C 70.136719 79.847656 70.199219 79.453125 70.480469 79.246094 C 71.511719 78.484375 72.644531 77.449219 73.234375 75.53125 C 73.339844 75.199219 73.695312 75.007812 74.027344 75.113281 C 74.359375 75.21875 74.550781 75.570312 74.445312 75.90625 C 73.648438 78.480469 71.953125 79.726562 71.234375 80.261719 C 71.121094 80.347656 70.992188 80.386719 70.859375 80.386719 Z M 70.859375 80.386719 " fill-opacity="1" fill-rule="nonzero"/><path stroke-linecap="round" transform="matrix(0.0336702, 0, 0, 0.0337243, 7.094357, 10.918912)" fill="none" stroke-linejoin="miter" d="M 1541.126363 2133.195263 Z M 1541.126363 2133.195263 " stroke="#380d36" stroke-width="37.618999" stroke-opacity="1" stroke-miterlimit="10"/><path fill="#380d36" d="M 61.09375 77.035156 C 60.832031 77.035156 60.585938 76.871094 60.496094 76.605469 C 60.378906 76.277344 60.554688 75.914062 60.886719 75.800781 C 60.921875 75.789062 64.339844 74.558594 65.730469 71.304688 C 65.867188 70.984375 66.238281 70.832031 66.5625 70.972656 C 66.886719 71.109375 67.035156 71.480469 66.894531 71.804688 C 65.28125 75.59375 61.460938 76.945312 61.300781 77 C 61.234375 77.023438 61.160156 77.035156 61.09375 77.035156 Z M 61.09375 77.035156 " fill-opacity="1" fill-rule="nonzero"/><path fill="#914817" d="M 32.265625 13.664062 C 15.785156 16.007812 18.554688 29.175781 16.679688 31.289062 C 16.332031 31.675781 15.992188 32.074219 15.664062 32.476562 C 14.417969 32.402344 12.890625 32.085938 11.007812 31.46875 C 3.132812 28.878906 10.214844 17.601562 17.207031 14.363281 C 22.769531 11.78125 29.675781 12.34375 32.265625 13.664062 Z M 32.265625 13.664062 " fill-opacity="1" fill-rule="nonzero"/><path fill="#380d36" d="M 15.703125 32.570312 L 15.65625 32.566406 C 14.363281 32.488281 12.789062 32.148438 10.976562 31.554688 C 8.796875 30.839844 7.582031 29.382812 7.464844 27.347656 C 7.214844 23.058594 11.929688 16.710938 17.167969 14.285156 C 22.734375 11.703125 29.648438 12.238281 32.304688 13.589844 L 32.5625 13.722656 L 32.28125 13.761719 C 19.746094 15.546875 18.425781 23.507812 17.632812 28.265625 C 17.394531 29.703125 17.207031 30.839844 16.746094 31.355469 C 16.398438 31.75 16.058594 32.148438 15.734375 32.539062 Z M 26.011719 12.636719 C 23.234375 12.636719 20.066406 13.136719 17.246094 14.445312 C 14.859375 15.550781 12.402344 17.617188 10.507812 20.109375 C 8.574219 22.660156 7.527344 25.296875 7.648438 27.335938 C 7.761719 29.320312 8.902344 30.679688 11.035156 31.378906 C 12.808594 31.960938 14.351562 32.300781 15.621094 32.382812 C 15.9375 32 16.265625 31.613281 16.609375 31.226562 C 17.035156 30.75 17.21875 29.640625 17.453125 28.230469 C 17.839844 25.886719 18.375 22.679688 20.394531 19.820312 C 22.734375 16.515625 26.625 14.429688 31.957031 13.617188 C 30.640625 13.035156 28.480469 12.636719 26.011719 12.636719 Z M 26.011719 12.636719 " fill-opacity="1" fill-rule="nonzero"/><path fill="#f99b28" d="M 69.171875 42.136719 C 69.171875 44.648438 68.820312 46.976562 68.160156 49.113281 C 68.160156 49.128906 68.152344 49.140625 68.148438 49.152344 C 64.554688 60.761719 51.988281 66.839844 38.304688 66.839844 C 22.085938 66.839844 10.730469 60.546875 10.730469 44.382812 C 10.730469 39.449219 13.488281 35.15625 16.859375 31.359375 C 18.878906 29.085938 15.511719 13.992188 36.589844 13.394531 C 39.261719 13.316406 41.746094 13.417969 44.042969 13.675781 C 44.324219 13.703125 44.597656 13.738281 44.867188 13.773438 C 44.929688 13.78125 44.988281 13.789062 45.046875 13.800781 C 45.734375 13.890625 46.40625 13.996094 47.054688 14.121094 C 56.609375 15.898438 62.632812 20.703125 65.941406 27.164062 C 66.464844 28.1875 66.921875 29.257812 67.3125 30.359375 C 67.328125 30.398438 67.339844 30.433594 67.355469 30.472656 C 67.734375 31.558594 68.050781 32.679688 68.308594 33.828125 C 68.722656 35.683594 68.984375 37.613281 69.101562 39.605469 C 69.148438 40.4375 69.171875 41.285156 69.171875 42.136719 Z M 69.171875 42.136719 " fill-opacity="1" fill-rule="nonzero"/><path fill="#380d36" d="M 38.304688 66.929688 C 29.746094 66.929688 23.039062 65.183594 18.378906 61.746094 C 13.242188 57.949219 10.640625 52.109375 10.640625 44.382812 C 10.640625 40.179688 12.597656 36.023438 16.792969 31.296875 C 17.214844 30.820312 17.402344 29.707031 17.632812 28.300781 C 18.476562 23.226562 20.042969 13.773438 36.585938 13.304688 C 39.207031 13.230469 41.71875 13.324219 44.054688 13.582031 C 44.332031 13.613281 44.609375 13.648438 44.882812 13.683594 C 44.941406 13.691406 45 13.699219 45.0625 13.707031 C 45.746094 13.800781 46.421875 13.90625 47.070312 14.027344 C 56.054688 15.699219 62.429688 20.105469 66.019531 27.121094 C 66.542969 28.136719 67.003906 29.21875 67.398438 30.328125 C 67.410156 30.363281 67.421875 30.402344 67.433594 30.433594 C 67.8125 31.515625 68.136719 32.648438 68.390625 33.808594 C 68.796875 35.617188 69.066406 37.566406 69.1875 39.597656 C 69.234375 40.425781 69.257812 41.277344 69.257812 42.136719 C 69.257812 44.597656 68.917969 46.953125 68.246094 49.140625 C 68.242188 49.15625 68.238281 49.164062 68.234375 49.175781 C 66.523438 54.710938 62.65625 59.289062 57.054688 62.429688 C 51.800781 65.375 45.316406 66.929688 38.304688 66.929688 Z M 38.3125 13.457031 C 37.746094 13.457031 37.167969 13.464844 36.589844 13.480469 C 20.195312 13.949219 18.644531 23.300781 17.8125 28.328125 C 17.574219 29.765625 17.382812 30.902344 16.925781 31.417969 C 12.761719 36.109375 10.820312 40.226562 10.820312 44.378906 C 10.820312 52.046875 13.402344 57.839844 18.492188 61.597656 C 23.117188 65.011719 29.789062 66.746094 38.308594 66.746094 C 53.074219 66.746094 64.753906 59.828125 68.066406 49.121094 C 68.070312 49.113281 68.074219 49.09375 68.082031 49.082031 C 68.746094 46.914062 69.085938 44.574219 69.085938 42.132812 C 69.085938 41.277344 69.0625 40.425781 69.011719 39.605469 C 68.890625 37.585938 68.625 35.644531 68.21875 33.84375 C 67.964844 32.691406 67.644531 31.566406 67.269531 30.5 C 67.257812 30.457031 67.242188 30.421875 67.230469 30.382812 C 66.839844 29.28125 66.378906 28.210938 65.863281 27.199219 C 62.300781 20.238281 55.964844 15.863281 47.039062 14.203125 C 46.394531 14.082031 45.722656 13.976562 45.039062 13.886719 C 44.980469 13.875 44.917969 13.871094 44.863281 13.863281 C 44.585938 13.824219 44.308594 13.792969 44.035156 13.761719 C 42.222656 13.558594 40.304688 13.457031 38.3125 13.457031 Z M 38.3125 13.457031 " fill-opacity="1" fill-rule="nonzero"/><path fill="#ffffff" d="M 30.769531 15.765625 C 31.089844 16.589844 30.191406 17.699219 28.769531 18.257812 C 27.386719 18.792969 26.015625 18.605469 25.648438 17.839844 C 22.523438 19.628906 18.988281 25.929688 17.554688 29.296875 C 18.464844 25.25 21.457031 16.367188 29.019531 14.152344 C 25.863281 13.875 21.804688 14.25 18.28125 15.878906 C 13.183594 18.242188 8.039062 24.878906 8.675781 29.296875 C 5.832031 25.132812 11.746094 16.789062 17.597656 14.078125 C 23.160156 11.503906 30.066406 12.0625 32.65625 13.378906 C 33.921875 13.203125 35.300781 13.085938 36.800781 13.042969 C 38.75 12.988281 43.125 13.652344 44.871094 13.773438 C 43.550781 14.765625 36.441406 14.371094 30.671875 15.578125 C 30.710938 15.632812 30.746094 15.699219 30.769531 15.765625 Z M 30.769531 15.765625 " fill-opacity="0.6" fill-rule="nonzero"/><path fill="#380d36" d="M 32.890625 13.457031 C 28.824219 14.035156 25.933594 15.273438 23.851562 16.835938 C 17.492188 21.621094 18.714844 29.496094 17.300781 31.082031 C 16.953125 31.46875 16.613281 31.867188 16.28125 32.269531 C 15.039062 32.195312 13.507812 31.882812 11.625 31.261719 C 7.328125 29.847656 7.488281 25.84375 9.65625 21.976562 C 7.03125 28.867188 13.675781 30.457031 17.726562 21.179688 C 18.175781 20.152344 18.71875 19.253906 19.335938 18.472656 C 23.019531 13.796875 29.234375 13.171875 32.183594 13.160156 C 32.449219 13.253906 32.679688 13.355469 32.890625 13.457031 Z M 32.890625 13.457031 " fill-opacity="0.3" fill-rule="nonzero"/><path fill="#380d36" d="M 38.304688 67.472656 C 19.851562 67.472656 10.09375 59.488281 10.09375 44.382812 C 10.09375 38.675781 13.683594 33.976562 16.382812 30.9375 C 16.703125 30.578125 16.894531 29.425781 17.097656 28.210938 C 17.964844 22.980469 19.582031 13.242188 36.570312 12.761719 C 39.210938 12.6875 41.75 12.78125 44.113281 13.042969 C 44.390625 13.074219 44.671875 13.109375 44.941406 13.144531 C 45.011719 13.152344 45.078125 13.160156 45.140625 13.171875 C 45.824219 13.261719 46.511719 13.371094 47.167969 13.496094 C 56.328125 15.199219 62.832031 19.699219 66.503906 26.875 C 67.035156 27.914062 67.503906 29.015625 67.910156 30.148438 L 67.917969 30.164062 C 67.925781 30.195312 67.9375 30.222656 67.945312 30.253906 C 68.332031 31.355469 68.660156 32.507812 68.921875 33.691406 C 69.335938 35.527344 69.609375 37.507812 69.730469 39.5625 C 69.78125 40.402344 69.804688 41.265625 69.804688 42.136719 C 69.804688 44.648438 69.453125 47.0625 68.769531 49.300781 L 68.753906 49.335938 C 67 55 63.046875 59.691406 57.320312 62.902344 C 51.988281 65.894531 45.410156 67.472656 38.304688 67.472656 Z M 38.316406 14 C 37.75 14 37.183594 14.007812 36.605469 14.023438 C 20.660156 14.476562 19.210938 23.203125 18.347656 28.414062 C 18.085938 30 17.894531 31.144531 17.332031 31.777344 C 13.257812 36.363281 11.363281 40.367188 11.363281 44.382812 C 11.363281 51.867188 13.867188 57.511719 18.8125 61.160156 C 23.34375 64.507812 29.902344 66.203125 38.304688 66.203125 C 52.820312 66.203125 64.296875 59.441406 67.542969 48.972656 C 67.550781 48.953125 67.554688 48.933594 67.5625 48.914062 C 68.210938 46.792969 68.542969 44.515625 68.542969 42.132812 C 68.542969 41.289062 68.519531 40.449219 68.472656 39.636719 C 68.355469 37.648438 68.089844 35.738281 67.695312 33.964844 C 67.441406 32.832031 67.128906 31.730469 66.761719 30.679688 C 66.746094 30.640625 66.734375 30.605469 66.722656 30.5625 C 66.335938 29.484375 65.890625 28.4375 65.382812 27.449219 C 61.902344 20.644531 55.699219 16.367188 46.945312 14.738281 C 46.308594 14.621094 45.644531 14.515625 44.96875 14.425781 C 44.910156 14.417969 44.863281 14.410156 44.8125 14.40625 L 44.789062 14.402344 C 44.523438 14.367188 44.25 14.335938 43.976562 14.300781 C 42.183594 14.101562 40.285156 14 38.316406 14 Z M 68.160156 49.113281 Z M 68.160156 49.113281 " fill-opacity="1" fill-rule="nonzero"/><path fill="#380d36" d="M 15.84375 33.175781 C 15.828125 33.175781 15.816406 33.175781 15.804688 33.175781 C 14.445312 33.097656 12.867188 32.753906 10.988281 32.136719 C 7.941406 31.136719 7.195312 29.035156 7.105469 27.445312 C 6.816406 22.535156 12.257812 16.109375 17.121094 13.855469 C 22.84375 11.207031 29.984375 11.769531 32.734375 13.167969 C 33.046875 13.328125 33.167969 13.707031 33.011719 14.023438 C 32.851562 14.335938 32.472656 14.457031 32.160156 14.296875 C 29.941406 13.167969 23.195312 12.4375 17.652344 15.007812 C 12.738281 17.28125 8.140625 23.410156 8.371094 27.371094 C 8.472656 29.109375 9.484375 30.308594 11.382812 30.933594 C 13.136719 31.511719 14.648438 31.839844 15.878906 31.914062 C 16.230469 31.933594 16.496094 32.234375 16.476562 32.582031 C 16.453125 32.917969 16.175781 33.175781 15.84375 33.175781 Z M 15.84375 33.175781 " fill-opacity="1" fill-rule="nonzero"/><path fill="#380d36" d="M 32.269531 14.351562 L 32.265625 14.351562 L 32.265625 14.171875 Z M 32.269531 14.351562 " fill-opacity="1" fill-rule="nonzero"/><path fill="#380d36" d="M 52.042969 35.800781 C 52.042969 36.371094 51.984375 36.921875 51.867188 37.449219 C 51.746094 37.976562 51.578125 38.441406 51.359375 38.84375 C 51.140625 39.246094 50.886719 39.558594 50.597656 39.777344 C 50.3125 39.996094 50.015625 40.105469 49.703125 40.105469 C 49.394531 40.105469 49.09375 39.996094 48.808594 39.777344 C 48.523438 39.558594 48.269531 39.246094 48.050781 38.84375 C 47.828125 38.441406 47.660156 37.976562 47.542969 37.449219 C 47.421875 36.921875 47.363281 36.371094 47.363281 35.800781 C 47.363281 35.230469 47.421875 34.679688 47.542969 34.152344 C 47.660156 33.625 47.828125 33.160156 48.050781 32.757812 C 48.269531 32.355469 48.523438 32.042969 48.808594 31.824219 C 49.09375 31.605469 49.394531 31.496094 49.703125 31.496094 C 50.015625 31.496094 50.3125 31.605469 50.597656 31.824219 C 50.886719 32.042969 51.140625 32.355469 51.359375 32.757812 C 51.578125 33.160156 51.746094 33.625 51.867188 34.152344 C 51.984375 34.679688 52.042969 35.230469 52.042969 35.800781 Z M 52.042969 35.800781 " fill-opacity="1" fill-rule="nonzero"/><path fill="#380d36" d="M 49.703125 40.195312 C 48.363281 40.195312 47.273438 38.226562 47.273438 35.800781 C 47.273438 33.375 48.363281 31.40625 49.703125 31.40625 C 51.042969 31.40625 52.136719 33.375 52.136719 35.800781 C 52.136719 38.226562 51.042969 40.195312 49.703125 40.195312 Z M 49.703125 31.589844 C 48.460938 31.589844 47.453125 33.476562 47.453125 35.800781 C 47.453125 38.125 48.460938 40.011719 49.703125 40.011719 C 50.945312 40.011719 51.957031 38.125 51.957031 35.800781 C 51.953125 33.476562 50.941406 31.589844 49.703125 31.589844 Z M 49.703125 31.589844 " fill-opacity="1" fill-rule="nonzero"/><path fill="#ffffff" d="M 51.046875 34.839844 C 51.046875 35.046875 51.027344 35.25 50.988281 35.441406 C 50.949219 35.632812 50.890625 35.804688 50.816406 35.949219 C 50.742188 36.097656 50.660156 36.210938 50.5625 36.292969 C 50.46875 36.371094 50.367188 36.410156 50.261719 36.410156 C 50.160156 36.410156 50.058594 36.371094 49.960938 36.292969 C 49.867188 36.210938 49.78125 36.097656 49.707031 35.949219 C 49.632812 35.804688 49.578125 35.632812 49.539062 35.441406 C 49.5 35.25 49.476562 35.046875 49.476562 34.839844 C 49.476562 34.632812 49.5 34.429688 49.539062 34.238281 C 49.578125 34.046875 49.632812 33.875 49.707031 33.726562 C 49.78125 33.582031 49.867188 33.46875 49.960938 33.386719 C 50.058594 33.308594 50.160156 33.269531 50.261719 33.269531 C 50.367188 33.269531 50.46875 33.308594 50.5625 33.386719 C 50.660156 33.46875 50.742188 33.582031 50.816406 33.726562 C 50.890625 33.875 50.949219 34.046875 50.988281 34.238281 C 51.027344 34.429688 51.046875 34.632812 51.046875 34.839844 Z M 51.046875 34.839844 " fill-opacity="1" fill-rule="nonzero"/><path fill="#380d36" d="M 50.261719 36.503906 C 49.769531 36.503906 49.386719 35.769531 49.386719 34.839844 C 49.386719 33.910156 49.769531 33.175781 50.261719 33.175781 C 50.753906 33.175781 51.136719 33.910156 51.136719 34.839844 C 51.136719 35.769531 50.753906 36.503906 50.261719 36.503906 Z M 50.261719 33.355469 C 49.886719 33.355469 49.570312 34.035156 49.570312 34.835938 C 49.570312 35.640625 49.886719 36.316406 50.261719 36.316406 C 50.640625 36.316406 50.957031 35.640625 50.957031 34.835938 C 50.957031 34.035156 50.640625 33.355469 50.261719 33.355469 Z M 50.261719 33.355469 " fill-opacity="1" fill-rule="nonzero"/><path fill="#ffffff" d="M 23.734375 34.96875 C 23.734375 35.292969 23.675781 35.570312 23.558594 35.800781 C 23.441406 36.03125 23.300781 36.148438 23.136719 36.148438 C 22.96875 36.148438 22.828125 36.03125 22.710938 35.800781 C 22.59375 35.570312 22.535156 35.292969 22.535156 34.96875 C 22.535156 34.640625 22.59375 34.363281 22.710938 34.132812 C 22.828125 33.902344 22.96875 33.789062 23.136719 33.789062 C 23.300781 33.789062 23.441406 33.902344 23.558594 34.132812 C 23.675781 34.363281 23.734375 34.640625 23.734375 34.96875 Z M 23.734375 34.96875 " fill-opacity="1" fill-rule="nonzero"/><path fill="#380d36" d="M 23.136719 36.238281 C 22.746094 36.238281 22.449219 35.683594 22.449219 34.972656 C 22.449219 34.257812 22.75 33.703125 23.136719 33.703125 C 23.519531 33.703125 23.820312 34.257812 23.820312 34.972656 C 23.820312 35.683594 23.523438 36.238281 23.136719 36.238281 Z M 23.136719 33.882812 C 22.890625 33.882812 22.625 34.320312 22.625 34.972656 C 22.625 35.621094 22.890625 36.058594 23.136719 36.058594 C 23.378906 36.058594 23.644531 35.621094 23.644531 34.972656 C 23.644531 34.316406 23.378906 33.882812 23.136719 33.882812 Z M 23.136719 33.882812 " fill-opacity="1" fill-rule="nonzero"/><path fill="#914817" d="M 50.789062 47.375 C 50.789062 48.097656 50.6875 48.816406 50.484375 49.527344 C 50.28125 50.238281 49.980469 50.925781 49.582031 51.59375 C 49.183594 52.265625 48.695312 52.898438 48.117188 53.5 C 47.539062 54.105469 46.882812 54.660156 46.148438 55.171875 C 45.410156 55.683594 44.609375 56.140625 43.746094 56.542969 C 42.882812 56.945312 41.96875 57.285156 41.007812 57.5625 C 40.046875 57.839844 39.054688 58.050781 38.035156 58.191406 C 37.015625 58.332031 35.984375 58.402344 34.941406 58.402344 C 33.902344 58.402344 32.871094 58.332031 31.851562 58.191406 C 30.832031 58.050781 29.839844 57.839844 28.878906 57.5625 C 27.917969 57.285156 27.003906 56.945312 26.140625 56.542969 C 25.273438 56.140625 24.472656 55.683594 23.738281 55.171875 C 23.003906 54.660156 22.347656 54.105469 21.769531 53.5 C 21.191406 52.898438 20.703125 52.265625 20.304688 51.59375 C 19.90625 50.925781 19.605469 50.238281 19.402344 49.527344 C 19.199219 48.816406 19.097656 48.097656 19.097656 47.375 C 19.097656 46.652344 19.199219 45.933594 19.402344 45.222656 C 19.605469 44.511719 19.90625 43.824219 20.304688 43.15625 C 20.703125 42.484375 21.191406 41.851562 21.769531 41.25 C 22.347656 40.644531 23.003906 40.089844 23.738281 39.578125 C 24.472656 39.066406 25.273438 38.609375 26.140625 38.207031 C 27.003906 37.804688 27.917969 37.464844 28.878906 37.1875 C 29.839844 36.910156 30.832031 36.699219 31.851562 36.558594 C 32.871094 36.417969 33.902344 36.347656 34.941406 36.347656 C 35.984375 36.347656 37.015625 36.417969 38.035156 36.558594 C 39.054688 36.699219 40.046875 36.910156 41.007812 37.1875 C 41.96875 37.464844 42.882812 37.804688 43.746094 38.207031 C 44.609375 38.609375 45.410156 39.066406 46.148438 39.578125 C 46.882812 40.089844 47.539062 40.644531 48.117188 41.25 C 48.695312 41.851562 49.183594 42.484375 49.582031 43.15625 C 49.980469 43.824219 50.28125 44.511719 50.484375 45.222656 C 50.6875 45.933594 50.789062 46.652344 50.789062 47.375 Z M 50.789062 47.375 " fill-opacity="1" fill-rule="nonzero"/><path fill="#380d36" d="M 50.789062 47.375 C 50.789062 53.464844 43.695312 58.402344 34.941406 58.402344 C 27.027344 58.402344 20.46875 54.363281 19.289062 49.085938 C 21.890625 52.699219 27.257812 55.183594 33.464844 55.183594 C 42.214844 55.183594 49.308594 50.246094 49.308594 44.152344 C 49.308594 43.574219 49.246094 43.003906 49.121094 42.445312 C 50.183594 43.929688 50.789062 45.605469 50.789062 47.375 Z M 50.789062 47.375 " fill-opacity="0.3" fill-rule="nonzero"/><path fill="#380d36" d="M 37.632812 38.84375 C 37.632812 40.441406 35.25 42.636719 32.800781 42.636719 C 30.355469 42.636719 28.605469 40.40625 28.605469 38.808594 C 28.605469 37.210938 30.355469 36.847656 32.800781 36.847656 C 35.25 36.847656 37.632812 37.242188 37.632812 38.84375 Z M 37.632812 38.84375 " fill-opacity="1" fill-rule="nonzero"/><path fill="#380d36" d="M 27.824219 43.863281 C 27.824219 44.039062 27.761719 44.191406 27.640625 44.316406 C 27.515625 44.4375 27.363281 44.5 27.1875 44.5 C 27.011719 44.5 26.863281 44.4375 26.738281 44.316406 C 26.613281 44.191406 26.550781 44.039062 26.550781 43.863281 C 26.550781 43.6875 26.613281 43.539062 26.738281 43.414062 C 26.863281 43.289062 27.011719 43.226562 27.1875 43.226562 C 27.363281 43.226562 27.515625 43.289062 27.640625 43.414062 C 27.761719 43.539062 27.824219 43.6875 27.824219 43.863281 Z M 27.824219 43.863281 " fill-opacity="1" fill-rule="nonzero"/><path fill="#380d36" d="M 26.386719 45.136719 C 26.386719 45.3125 26.324219 45.460938 26.199219 45.585938 C 26.078125 45.710938 25.925781 45.773438 25.75 45.773438 C 25.574219 45.773438 25.425781 45.710938 25.300781 45.585938 C 25.175781 45.460938 25.113281 45.3125 25.113281 45.136719 C 25.113281 44.960938 25.175781 44.808594 25.300781 44.683594 C 25.425781 44.558594 25.574219 44.5 25.75 44.5 C 25.925781 44.5 26.078125 44.558594 26.199219 44.683594 C 26.324219 44.808594 26.386719 44.960938 26.386719 45.136719 Z M 26.386719 45.136719 " fill-opacity="1" fill-rule="nonzero"/><path fill="#380d36" d="M 28.191406 45.609375 C 28.191406 45.785156 28.128906 45.9375 28.003906 46.0625 C 27.882812 46.1875 27.730469 46.25 27.554688 46.25 C 27.378906 46.25 27.230469 46.1875 27.105469 46.0625 C 26.980469 45.9375 26.917969 45.785156 26.917969 45.609375 C 26.917969 45.433594 26.980469 45.285156 27.105469 45.160156 C 27.230469 45.035156 27.378906 44.972656 27.554688 44.972656 C 27.730469 44.972656 27.882812 45.035156 28.003906 45.160156 C 28.128906 45.285156 28.191406 45.433594 28.191406 45.609375 Z M 28.191406 45.609375 " fill-opacity="1" fill-rule="nonzero"/><path fill="#380d36" d="M 40.0625 44.15625 C 40.0625 44.394531 39.980469 44.597656 39.8125 44.765625 C 39.644531 44.933594 39.441406 45.015625 39.207031 45.015625 C 38.96875 45.015625 38.765625 44.933594 38.597656 44.765625 C 38.429688 44.597656 38.347656 44.394531 38.347656 44.15625 C 38.347656 43.921875 38.429688 43.71875 38.597656 43.550781 C 38.765625 43.382812 38.96875 43.296875 39.207031 43.296875 C 39.441406 43.296875 39.644531 43.382812 39.8125 43.550781 C 39.980469 43.71875 40.0625 43.921875 40.0625 44.15625 Z M 40.0625 44.15625 " fill-opacity="1" fill-rule="nonzero"/><path fill="#380d36" d="M 39.542969 47.003906 C 39.542969 47.242188 39.457031 47.445312 39.289062 47.613281 C 39.125 47.78125 38.921875 47.863281 38.683594 47.863281 C 38.445312 47.863281 38.246094 47.78125 38.078125 47.613281 C 37.910156 47.445312 37.824219 47.242188 37.824219 47.003906 C 37.824219 46.765625 37.910156 46.5625 38.078125 46.394531 C 38.246094 46.226562 38.445312 46.144531 38.683594 46.144531 C 38.921875 46.144531 39.125 46.226562 39.289062 46.394531 C 39.457031 46.5625 39.542969 46.765625 39.542969 47.003906 Z M 39.542969 47.003906 " fill-opacity="1" fill-rule="nonzero"/><path fill="#380d36" d="M 42.078125 46.140625 C 42.078125 46.378906 41.992188 46.582031 41.828125 46.75 C 41.660156 46.917969 41.457031 47 41.21875 47 C 40.980469 47 40.78125 46.917969 40.613281 46.75 C 40.445312 46.582031 40.359375 46.378906 40.359375 46.140625 C 40.359375 45.902344 40.445312 45.699219 40.613281 45.53125 C 40.78125 45.363281 40.980469 45.28125 41.21875 45.28125 C 41.457031 45.28125 41.660156 45.363281 41.828125 45.53125 C 41.992188 45.699219 42.078125 45.902344 42.078125 46.140625 Z M 42.078125 46.140625 " fill-opacity="1" fill-rule="nonzero"/><path fill="#ffffff" d="M 33.105469 37.882812 C 33.464844 37.898438 33.8125 37.929688 34.144531 37.976562 C 34.476562 38.019531 34.765625 38.078125 35.019531 38.144531 C 35.273438 38.210938 35.464844 38.285156 35.601562 38.359375 C 35.734375 38.4375 35.800781 38.515625 35.796875 38.59375 C 35.792969 38.671875 35.722656 38.742188 35.578125 38.808594 C 35.4375 38.871094 35.238281 38.925781 34.980469 38.96875 C 34.722656 39.011719 34.425781 39.039062 34.09375 39.050781 C 33.757812 39.066406 33.410156 39.0625 33.046875 39.046875 C 32.6875 39.03125 32.339844 39 32.007812 38.953125 C 31.675781 38.90625 31.386719 38.851562 31.132812 38.785156 C 30.878906 38.71875 30.6875 38.644531 30.550781 38.566406 C 30.417969 38.488281 30.351562 38.410156 30.355469 38.335938 C 30.359375 38.257812 30.433594 38.1875 30.574219 38.121094 C 30.714844 38.058594 30.914062 38.003906 31.171875 37.960938 C 31.429688 37.917969 31.726562 37.890625 32.0625 37.875 C 32.394531 37.863281 32.742188 37.863281 33.105469 37.882812 Z M 33.105469 37.882812 " fill-opacity="1" fill-rule="nonzero"/><path fill="#380d36" d="M 33.605469 39.152344 C 33.410156 39.152344 33.21875 39.148438 33.042969 39.140625 C 32.308594 39.105469 31.625 39.011719 31.109375 38.871094 C 30.542969 38.722656 30.257812 38.539062 30.265625 38.328125 C 30.289062 37.835938 31.980469 37.738281 33.109375 37.789062 C 33.84375 37.824219 34.527344 37.917969 35.039062 38.058594 C 35.609375 38.207031 35.894531 38.390625 35.886719 38.601562 C 35.867188 39.019531 34.660156 39.152344 33.605469 39.152344 Z M 32.492188 37.960938 C 31.160156 37.960938 30.453125 38.191406 30.449219 38.34375 C 30.445312 38.402344 30.589844 38.550781 31.160156 38.699219 C 31.660156 38.832031 32.332031 38.925781 33.054688 38.960938 C 34.78125 39.042969 35.695312 38.765625 35.707031 38.59375 C 35.710938 38.535156 35.566406 38.382812 34.996094 38.234375 C 34.496094 38.105469 33.820312 38.007812 33.101562 37.976562 C 32.882812 37.964844 32.679688 37.960938 32.492188 37.960938 Z M 32.492188 37.960938 " fill-opacity="1" fill-rule="nonzero"/><path fill="#380d36" d="M 69.285156 41.78125 C 69.285156 57.945312 54.640625 66.484375 38.421875 66.484375 C 22.199219 66.484375 10.84375 60.191406 10.84375 44.027344 C 10.84375 43.324219 10.898438 42.636719 11.007812 41.964844 C 12.433594 55.765625 23.320312 61.21875 38.425781 61.21875 C 53.859375 61.21875 67.867188 53.488281 69.1875 38.8125 C 69.253906 39.785156 69.285156 40.777344 69.285156 41.78125 Z M 69.285156 41.78125 " fill-opacity="0.3" fill-rule="nonzero"/><path fill="#914817" d="M 67.175781 30.40625 C 53.101562 35.03125 58.878906 22.757812 53.300781 18.5625 C 47.136719 13.933594 44.875 17.46875 44.867188 13.726562 C 44.867188 11.777344 53.980469 10.058594 60.96875 13.300781 C 67.964844 16.539062 75.042969 27.816406 67.175781 30.40625 Z M 67.175781 30.40625 " fill-opacity="1" fill-rule="nonzero"/><path fill="#380d36" d="M 61.960938 31.519531 C 60.839844 31.519531 59.917969 31.304688 59.179688 30.878906 C 57.28125 29.789062 56.792969 27.484375 56.269531 25.050781 C 55.75 22.625 55.214844 20.117188 53.246094 18.636719 C 50.15625 16.316406 48.09375 16.066406 46.726562 15.898438 C 45.429688 15.742188 44.78125 15.664062 44.777344 13.726562 C 44.777344 13.378906 45.027344 13.035156 45.523438 12.71875 C 47.929688 11.175781 55.332031 10.589844 61.007812 13.21875 C 66.242188 15.644531 70.957031 21.992188 70.710938 26.285156 C 70.59375 28.320312 69.378906 29.773438 67.203125 30.492188 L 67.183594 30.496094 C 65.113281 31.175781 63.378906 31.519531 61.960938 31.519531 Z M 52.125 11.578125 C 49.269531 11.578125 46.820312 12.105469 45.621094 12.871094 C 45.183594 13.148438 44.957031 13.445312 44.960938 13.726562 C 44.964844 15.503906 45.449219 15.558594 46.75 15.71875 C 48.050781 15.875 50.226562 16.140625 53.355469 18.488281 C 55.378906 20.011719 55.917969 22.550781 56.445312 25.007812 C 56.957031 27.40625 57.441406 29.667969 59.265625 30.722656 C 60.894531 31.660156 63.46875 31.523438 67.144531 30.316406 L 67.160156 30.3125 C 69.28125 29.609375 70.414062 28.25 70.527344 26.269531 C 70.648438 24.226562 69.601562 21.59375 67.667969 19.042969 C 65.773438 16.550781 63.320312 14.488281 60.933594 13.378906 C 58.144531 12.089844 54.941406 11.578125 52.125 11.578125 Z M 52.125 11.578125 " fill-opacity="1" fill-rule="nonzero"/><path fill="#ffffff" d="M 68.992188 29.460938 C 69.902344 28.269531 70.042969 26.703125 69.636719 25.011719 L 69.636719 25.007812 C 68.644531 20.882812 64.40625 16.023438 60.195312 14.074219 C 59.789062 13.886719 59.371094 13.714844 58.953125 13.558594 C 58.914062 13.542969 58.871094 13.527344 58.828125 13.511719 C 54.765625 12.035156 50.253906 12.03125 47.308594 12.664062 C 46.5 12.835938 45.808594 13.058594 45.277344 13.308594 C 45.320312 13.109375 45.460938 12.910156 45.6875 12.71875 C 46.210938 12.277344 47.195312 11.882812 48.472656 11.609375 C 51.417969 10.976562 55.929688 10.980469 59.992188 12.457031 C 60.035156 12.46875 60.078125 12.488281 60.117188 12.503906 C 60.539062 12.660156 60.953125 12.832031 61.359375 13.019531 C 65.570312 14.96875 69.808594 19.828125 70.800781 23.953125 L 70.800781 23.957031 C 71.34375 26.207031 70.917969 28.238281 68.992188 29.460938 Z M 68.992188 29.460938 " fill-opacity="0.6" fill-rule="nonzero"/><g clip-path="url(#bf6d4d144b)"><path fill="#380d36" d="M 62.128906 32.128906 C 61.203125 32.128906 60.398438 31.988281 59.703125 31.714844 C 57.078125 30.675781 56.484375 27.90625 55.914062 25.226562 C 55.417969 22.902344 54.902344 20.496094 53.09375 19.136719 C 51.839844 18.191406 50.65625 17.527344 49.488281 17.097656 C 48.386719 16.691406 47.527344 16.589844 46.835938 16.503906 C 46.355469 16.445312 45.964844 16.398438 45.617188 16.269531 L 45.597656 16.269531 L 45.472656 16.207031 C 45.457031 16.199219 45.441406 16.195312 45.429688 16.1875 L 45.375 16.160156 C 44.535156 15.699219 44.414062 14.757812 44.414062 13.800781 C 44.414062 13.496094 44.527344 13.035156 45.0625 12.582031 C 45.84375 11.925781 47.160156 11.546875 48.128906 11.335938 C 51.007812 10.71875 55.636719 10.621094 60 12.207031 C 60.042969 12.222656 60.089844 12.242188 60.136719 12.257812 C 60.574219 12.417969 61.003906 12.597656 61.417969 12.789062 C 65.847656 14.84375 70.125 19.796875 71.191406 24.085938 L 71.226562 24.15625 L 71.226562 24.230469 C 71.988281 27.503906 70.703125 29.96875 67.699219 31.023438 L 67.617188 31.101562 L 67.453125 31.101562 C 65.355469 31.789062 63.589844 32.128906 62.128906 32.128906 Z M 46.101562 15.09375 C 46.308594 15.160156 46.617188 15.203125 46.988281 15.246094 C 47.707031 15.332031 48.6875 15.453125 49.925781 15.90625 C 51.210938 16.378906 52.5 17.105469 53.855469 18.121094 C 56.042969 19.765625 56.632812 22.527344 57.152344 24.960938 C 57.699219 27.527344 58.171875 29.742188 60.167969 30.535156 C 61.652344 31.125 63.894531 30.921875 67.007812 29.914062 L 67.152344 29.863281 C 69.667969 29.039062 70.621094 27.238281 69.988281 24.515625 L 69.953125 24.445312 L 69.953125 24.375 C 68.980469 20.484375 64.925781 15.8125 60.878906 13.9375 C 60.492188 13.757812 60.085938 13.589844 59.679688 13.441406 L 59.660156 13.433594 C 59.628906 13.421875 59.597656 13.410156 59.5625 13.398438 C 55.449219 11.898438 50.96875 12.019531 48.386719 12.574219 C 47.234375 12.820312 46.320312 13.175781 45.875 13.550781 C 45.691406 13.703125 45.675781 13.792969 45.675781 13.796875 C 45.675781 14.640625 45.800781 14.898438 45.914062 15 L 46 15 Z M 67.351562 30.472656 Z M 67.351562 30.472656 " fill-opacity="1" fill-rule="nonzero"/></g><path fill="#380d36" d="M 67.355469 30.46875 C 67.734375 31.554688 68.050781 32.675781 68.308594 33.824219 C 56.6875 39.777344 54.890625 28.632812 54.890625 28.632812 C 54.890625 28.632812 53.199219 18.6875 47.914062 17.796875 C 42.625 16.90625 43.628906 13.875 43.628906 13.875 C 43.726562 13.820312 43.867188 13.75 44.042969 13.671875 C 44.320312 13.550781 44.675781 13.394531 45.0625 13.230469 C 45.199219 13.179688 45.332031 13.121094 45.476562 13.0625 C 46.753906 12.542969 48.183594 11.984375 48.257812 11.957031 C 46.234375 13.089844 46.429688 13.746094 47.058594 14.113281 C 47.621094 14.441406 48.535156 14.539062 48.535156 14.539062 C 56.628906 16.378906 59.273438 23.683594 59.273438 23.683594 C 59.273438 23.683594 59.375 28.277344 64.753906 27.425781 C 65.1875 27.359375 65.582031 27.269531 65.941406 27.160156 C 70.046875 25.917969 69.570312 22.273438 69.570312 22.273438 C 69.777344 22.613281 69.964844 22.953125 70.128906 23.277344 C 70.304688 23.625 70.457031 23.96875 70.589844 24.304688 L 70.589844 24.308594 C 71.25 27.03125 70.484375 29.441406 67.355469 30.46875 Z M 67.355469 30.46875 " fill-opacity="0.3" fill-rule="nonzero"/><path fill="#380d36" d="M 21.199219 44.5 C 21.199219 44.5 22.5625 49.015625 26.402344 48.433594 C 30.246094 47.855469 32.460938 43.285156 32.886719 41.9375 C 32.886719 41.9375 34.777344 50.199219 40.355469 49.71875 C 45.9375 49.238281 46.851562 44.160156 46.851562 44.160156 C 46.851562 44.160156 47.566406 52.121094 40.0625 51.972656 C 32.566406 51.824219 32.886719 45.613281 32.886719 45.613281 C 32.886719 45.613281 32.085938 51.007812 26.386719 50.847656 C 20.695312 50.683594 21.199219 44.5 21.199219 44.5 Z M 21.199219 44.5 " fill-opacity="0.3" fill-rule="nonzero"/><path fill="#380d36" d="M 40.308594 52.15625 C 40.183594 52.15625 40.0625 52.15625 39.933594 52.152344 C 37.527344 52.09375 35.628906 51.292969 34.285156 49.78125 C 33.566406 48.96875 33.082031 48.039062 32.761719 47.117188 C 31.871094 49.285156 30.191406 50.601562 27.863281 50.949219 C 25.800781 51.257812 24.082031 50.878906 22.75 49.832031 C 20.5625 48.109375 20.273438 45.214844 20.261719 45.089844 C 20.230469 44.746094 20.488281 44.433594 20.835938 44.398438 C 21.183594 44.371094 21.492188 44.621094 21.527344 44.972656 C 21.527344 45.015625 21.789062 47.46875 23.542969 48.84375 C 24.585938 49.660156 25.980469 49.949219 27.675781 49.695312 C 31.257812 49.164062 32.03125 45.992188 32.171875 44.105469 C 32.113281 43.238281 32.164062 42.644531 32.171875 42.578125 L 33.429688 42.574219 C 33.433594 42.613281 33.488281 43.183594 33.4375 44.007812 C 33.527344 45.347656 33.894531 47.433594 35.238281 48.941406 C 36.339844 50.179688 37.933594 50.835938 39.964844 50.886719 C 42.386719 50.945312 44.136719 50.375 45.164062 49.195312 C 46.523438 47.632812 46.179688 45.460938 46.175781 45.4375 C 46.117188 45.09375 46.351562 44.769531 46.695312 44.710938 C 47.039062 44.652344 47.363281 44.882812 47.425781 45.226562 C 47.445312 45.339844 47.875 47.996094 46.132812 50.019531 C 44.902344 51.4375 42.945312 52.15625 40.308594 52.15625 Z M 40.308594 52.15625 " fill-opacity="1" fill-rule="nonzero"/><path fill="#ffffff" d="M 24.644531 26.617188 C 24.984375 26.65625 25.3125 26.734375 25.636719 26.859375 C 25.960938 26.984375 26.265625 27.152344 26.5625 27.359375 C 26.855469 27.566406 27.128906 27.8125 27.382812 28.09375 C 27.636719 28.375 27.867188 28.6875 28.070312 29.035156 C 28.273438 29.378906 28.449219 29.75 28.597656 30.148438 C 28.746094 30.542969 28.859375 30.957031 28.945312 31.390625 C 29.027344 31.820312 29.078125 32.261719 29.097656 32.714844 C 29.113281 33.164062 29.097656 33.617188 29.046875 34.066406 C 28.996094 34.519531 28.914062 34.964844 28.800781 35.398438 C 28.6875 35.835938 28.542969 36.253906 28.367188 36.65625 C 28.191406 37.0625 27.988281 37.441406 27.757812 37.796875 C 27.53125 38.148438 27.277344 38.472656 27.003906 38.769531 C 26.730469 39.0625 26.4375 39.316406 26.128906 39.539062 C 25.820312 39.757812 25.5 39.9375 25.167969 40.074219 C 24.835938 40.214844 24.496094 40.308594 24.15625 40.359375 C 23.8125 40.414062 23.472656 40.417969 23.136719 40.382812 C 22.796875 40.34375 22.464844 40.265625 22.144531 40.140625 C 21.820312 40.015625 21.511719 39.847656 21.21875 39.640625 C 20.925781 39.433594 20.652344 39.1875 20.398438 38.90625 C 20.144531 38.625 19.914062 38.3125 19.710938 37.964844 C 19.503906 37.621094 19.328125 37.25 19.183594 36.851562 C 19.035156 36.457031 18.921875 36.042969 18.835938 35.609375 C 18.753906 35.175781 18.703125 34.738281 18.683594 34.285156 C 18.667969 33.835938 18.683594 33.382812 18.734375 32.933594 C 18.78125 32.480469 18.863281 32.035156 18.980469 31.601562 C 19.09375 31.164062 19.238281 30.746094 19.414062 30.34375 C 19.589844 29.9375 19.792969 29.558594 20.019531 29.203125 C 20.25 28.847656 20.503906 28.527344 20.777344 28.230469 C 21.050781 27.9375 21.34375 27.683594 21.652344 27.460938 C 21.960938 27.242188 22.28125 27.0625 22.613281 26.925781 C 22.945312 26.785156 23.28125 26.691406 23.625 26.640625 C 23.964844 26.585938 24.304688 26.582031 24.644531 26.617188 Z M 24.644531 26.617188 " fill-opacity="1" fill-rule="nonzero"/><path fill="#380d36" d="M 23.5625 40.949219 C 23.402344 40.949219 23.238281 40.941406 23.074219 40.921875 C 19.933594 40.578125 17.742188 36.96875 18.1875 32.875 C 18.636719 28.777344 21.558594 25.734375 24.699219 26.078125 C 27.84375 26.421875 30.035156 30.035156 29.585938 34.128906 C 29.160156 38.007812 26.511719 40.949219 23.5625 40.949219 Z M 24.207031 27.136719 C 21.808594 27.136719 19.632812 29.667969 19.269531 32.992188 C 18.886719 36.488281 20.648438 39.5625 23.191406 39.839844 C 25.738281 40.121094 28.121094 37.503906 28.503906 34.007812 C 28.890625 30.507812 27.128906 27.4375 24.582031 27.15625 C 24.457031 27.144531 24.332031 27.136719 24.207031 27.136719 Z M 29.046875 34.066406 Z M 29.046875 34.066406 " fill-opacity="1" fill-rule="nonzero"/><path fill="#380d36" d="M 26.3125 29.191406 C 26.582031 29.238281 26.84375 29.3125 27.097656 29.421875 C 27.355469 29.527344 27.59375 29.660156 27.824219 29.824219 C 28.050781 29.988281 28.265625 30.175781 28.457031 30.386719 C 28.652344 30.597656 28.828125 30.832031 28.980469 31.085938 C 29.132812 31.339844 29.261719 31.609375 29.367188 31.894531 C 29.472656 32.179688 29.550781 32.472656 29.605469 32.78125 C 29.660156 33.085938 29.683594 33.394531 29.683594 33.710938 C 29.683594 34.027344 29.65625 34.339844 29.605469 34.652344 C 29.550781 34.960938 29.46875 35.265625 29.363281 35.5625 C 29.257812 35.859375 29.128906 36.144531 28.976562 36.414062 C 28.824219 36.683594 28.648438 36.9375 28.457031 37.167969 C 28.261719 37.402344 28.046875 37.613281 27.820312 37.800781 C 27.589844 37.988281 27.347656 38.148438 27.09375 38.28125 C 26.839844 38.417969 26.578125 38.523438 26.308594 38.597656 C 26.039062 38.675781 25.765625 38.71875 25.492188 38.734375 C 25.214844 38.75 24.941406 38.734375 24.671875 38.6875 C 24.402344 38.640625 24.140625 38.5625 23.886719 38.457031 C 23.632812 38.351562 23.390625 38.214844 23.160156 38.054688 C 22.933594 37.890625 22.722656 37.703125 22.527344 37.492188 C 22.332031 37.277344 22.160156 37.046875 22.007812 36.792969 C 21.855469 36.539062 21.722656 36.269531 21.621094 35.984375 C 21.515625 35.699219 21.433594 35.402344 21.382812 35.097656 C 21.328125 34.792969 21.300781 34.480469 21.300781 34.167969 C 21.300781 33.851562 21.328125 33.539062 21.382812 33.226562 C 21.4375 32.914062 21.515625 32.609375 21.621094 32.3125 C 21.726562 32.015625 21.855469 31.734375 22.007812 31.464844 C 22.164062 31.191406 22.335938 30.941406 22.53125 30.707031 C 22.726562 30.476562 22.9375 30.265625 23.167969 30.078125 C 23.394531 29.890625 23.636719 29.730469 23.890625 29.59375 C 24.144531 29.460938 24.40625 29.355469 24.679688 29.277344 C 24.949219 29.203125 25.21875 29.15625 25.496094 29.140625 C 25.769531 29.128906 26.042969 29.144531 26.3125 29.191406 Z M 26.3125 29.191406 " fill-opacity="1" fill-rule="nonzero"/><path fill="#ffffff" d="M 24.933594 31.589844 C 25.054688 31.65625 25.15625 31.746094 25.234375 31.863281 C 25.316406 31.980469 25.371094 32.117188 25.398438 32.265625 C 25.429688 32.414062 25.429688 32.570312 25.402344 32.730469 C 25.375 32.890625 25.320312 33.042969 25.238281 33.1875 C 25.160156 33.335938 25.058594 33.460938 24.941406 33.570312 C 24.820312 33.679688 24.6875 33.765625 24.546875 33.820312 C 24.40625 33.875 24.261719 33.902344 24.121094 33.894531 C 23.980469 33.890625 23.847656 33.855469 23.726562 33.789062 C 23.605469 33.722656 23.507812 33.628906 23.425781 33.511719 C 23.34375 33.394531 23.289062 33.261719 23.261719 33.113281 C 23.234375 32.960938 23.234375 32.808594 23.261719 32.648438 C 23.289062 32.488281 23.34375 32.335938 23.421875 32.1875 C 23.503906 32.042969 23.601562 31.914062 23.722656 31.804688 C 23.84375 31.695312 23.972656 31.613281 24.113281 31.558594 C 24.257812 31.5 24.398438 31.476562 24.539062 31.480469 C 24.683594 31.488281 24.8125 31.523438 24.933594 31.589844 Z M 24.933594 31.589844 " fill-opacity="1" fill-rule="nonzero"/><path fill="#ffffff" d="M 50.402344 28.921875 C 50.742188 28.960938 51.074219 29.039062 51.394531 29.164062 C 51.71875 29.289062 52.027344 29.457031 52.320312 29.664062 C 52.613281 29.871094 52.886719 30.113281 53.140625 30.398438 C 53.394531 30.679688 53.625 30.992188 53.828125 31.339844 C 54.035156 31.683594 54.210938 32.054688 54.355469 32.453125 C 54.503906 32.847656 54.617188 33.261719 54.703125 33.695312 C 54.785156 34.125 54.835938 34.566406 54.855469 35.019531 C 54.871094 35.46875 54.855469 35.917969 54.808594 36.371094 C 54.757812 36.824219 54.675781 37.265625 54.558594 37.703125 C 54.445312 38.140625 54.300781 38.558594 54.125 38.960938 C 53.949219 39.363281 53.746094 39.746094 53.519531 40.097656 C 53.289062 40.453125 53.035156 40.777344 52.761719 41.070312 C 52.488281 41.363281 52.195312 41.621094 51.886719 41.839844 C 51.578125 42.0625 51.257812 42.242188 50.925781 42.378906 C 50.59375 42.519531 50.257812 42.613281 49.914062 42.664062 C 49.574219 42.714844 49.234375 42.722656 48.894531 42.6875 C 48.554688 42.648438 48.226562 42.566406 47.902344 42.441406 C 47.582031 42.320312 47.273438 42.152344 46.976562 41.945312 C 46.683594 41.738281 46.410156 41.492188 46.15625 41.210938 C 45.902344 40.929688 45.671875 40.613281 45.46875 40.269531 C 45.265625 39.921875 45.089844 39.550781 44.941406 39.15625 C 44.792969 38.757812 44.679688 38.34375 44.59375 37.914062 C 44.511719 37.480469 44.460938 37.039062 44.445312 36.589844 C 44.425781 36.140625 44.441406 35.6875 44.492188 35.238281 C 44.542969 34.785156 44.625 34.339844 44.738281 33.90625 C 44.851562 33.46875 44.996094 33.050781 45.171875 32.644531 C 45.347656 32.242188 45.550781 31.863281 45.78125 31.507812 C 46.007812 31.152344 46.261719 30.828125 46.535156 30.535156 C 46.808594 30.242188 47.101562 29.988281 47.410156 29.765625 C 47.71875 29.546875 48.039062 29.367188 48.371094 29.230469 C 48.703125 29.089844 49.042969 28.996094 49.382812 28.941406 C 49.726562 28.890625 50.066406 28.882812 50.402344 28.921875 Z M 50.402344 28.921875 " fill-opacity="1" fill-rule="nonzero"/><path fill="#380d36" d="M 49.332031 43.339844 C 49.164062 43.339844 48.996094 43.332031 48.824219 43.3125 C 45.632812 42.964844 43.40625 39.308594 43.863281 35.167969 C 44.078125 33.195312 44.867188 31.394531 46.074219 30.101562 C 47.332031 28.757812 48.890625 28.113281 50.476562 28.289062 C 52.054688 28.464844 53.441406 29.429688 54.378906 31.015625 C 55.28125 32.539062 55.65625 34.464844 55.4375 36.441406 C 55.222656 38.414062 54.433594 40.214844 53.226562 41.507812 C 52.105469 42.699219 50.738281 43.339844 49.332031 43.339844 Z M 49.96875 29.527344 C 48.917969 29.527344 47.871094 30.03125 46.996094 30.964844 C 45.972656 32.058594 45.308594 33.597656 45.121094 35.300781 C 44.746094 38.75 46.46875 41.777344 48.964844 42.050781 C 50.140625 42.179688 51.328125 41.675781 52.304688 40.632812 C 53.328125 39.539062 53.992188 38 54.179688 36.296875 C 54.363281 34.59375 54.046875 32.945312 53.285156 31.65625 C 52.558594 30.425781 51.511719 29.675781 50.335938 29.542969 C 50.210938 29.535156 50.089844 29.527344 49.96875 29.527344 Z M 49.96875 29.527344 " fill-opacity="1" fill-rule="nonzero"/><path fill="#380d36" d="M 52.074219 31.484375 C 52.34375 31.53125 52.605469 31.609375 52.863281 31.714844 C 53.117188 31.824219 53.355469 31.957031 53.585938 32.121094 C 53.816406 32.28125 54.027344 32.46875 54.222656 32.683594 C 54.414062 32.894531 54.589844 33.125 54.742188 33.378906 C 54.894531 33.632812 55.023438 33.902344 55.128906 34.1875 C 55.234375 34.472656 55.3125 34.769531 55.367188 35.074219 C 55.421875 35.382812 55.445312 35.691406 55.445312 36.007812 C 55.445312 36.320312 55.417969 36.636719 55.367188 36.945312 C 55.3125 37.257812 55.230469 37.5625 55.125 37.859375 C 55.019531 38.15625 54.890625 38.441406 54.738281 38.710938 C 54.585938 38.980469 54.410156 39.230469 54.21875 39.464844 C 54.023438 39.699219 53.8125 39.910156 53.582031 40.097656 C 53.351562 40.285156 53.109375 40.445312 52.855469 40.578125 C 52.601562 40.710938 52.339844 40.816406 52.070312 40.894531 C 51.800781 40.96875 51.527344 41.015625 51.253906 41.03125 C 50.976562 41.046875 50.703125 41.03125 50.433594 40.984375 C 50.164062 40.9375 49.902344 40.859375 49.648438 40.753906 C 49.394531 40.644531 49.152344 40.511719 48.925781 40.347656 C 48.695312 40.1875 48.484375 40 48.289062 39.785156 C 48.09375 39.574219 47.921875 39.34375 47.769531 39.089844 C 47.617188 38.835938 47.488281 38.566406 47.382812 38.28125 C 47.277344 37.996094 47.195312 37.699219 47.144531 37.394531 C 47.089844 37.085938 47.0625 36.777344 47.0625 36.460938 C 47.0625 36.148438 47.089844 35.832031 47.144531 35.523438 C 47.199219 35.210938 47.277344 34.90625 47.382812 34.609375 C 47.488281 34.3125 47.617188 34.027344 47.769531 33.757812 C 47.925781 33.488281 48.097656 33.238281 48.292969 33.003906 C 48.488281 32.769531 48.699219 32.558594 48.929688 32.371094 C 49.15625 32.183594 49.398438 32.023438 49.652344 31.890625 C 49.90625 31.753906 50.167969 31.652344 50.441406 31.574219 C 50.710938 31.5 50.980469 31.453125 51.257812 31.4375 C 51.53125 31.421875 51.804688 31.4375 52.074219 31.484375 Z M 52.074219 31.484375 " fill-opacity="1" fill-rule="nonzero"/><path fill="#102770" d="M 51.054688 41.140625 C 50.894531 41.140625 50.742188 41.128906 50.578125 41.109375 C 49.558594 40.976562 48.632812 40.429688 47.96875 39.5625 C 47.171875 38.519531 46.828125 37.113281 47.023438 35.703125 C 47.394531 33.023438 49.59375 31.082031 51.925781 31.378906 C 52.945312 31.511719 53.871094 32.058594 54.535156 32.925781 C 55.332031 33.96875 55.675781 35.375 55.480469 36.785156 C 55.136719 39.285156 53.203125 41.140625 51.054688 41.140625 Z M 51.453125 31.53125 C 49.390625 31.53125 47.535156 33.320312 47.203125 35.730469 C 47.015625 37.09375 47.347656 38.449219 48.113281 39.453125 C 48.746094 40.28125 49.632812 40.804688 50.601562 40.929688 C 50.753906 40.949219 50.90625 40.957031 51.054688 40.957031 C 53.113281 40.957031 54.96875 39.167969 55.304688 36.757812 C 55.492188 35.394531 55.160156 34.039062 54.390625 33.035156 C 53.757812 32.207031 52.871094 31.683594 51.902344 31.558594 C 51.75 31.542969 51.601562 31.53125 51.453125 31.53125 Z M 51.453125 31.53125 " fill-opacity="1" fill-rule="nonzero"/><path fill="#ffffff" d="M 50.695312 33.890625 C 50.816406 33.957031 50.914062 34.046875 50.996094 34.164062 C 51.078125 34.28125 51.132812 34.414062 51.160156 34.566406 C 51.1875 34.714844 51.1875 34.871094 51.160156 35.03125 C 51.132812 35.191406 51.078125 35.34375 51 35.488281 C 50.917969 35.636719 50.820312 35.761719 50.699219 35.871094 C 50.578125 35.980469 50.449219 36.066406 50.308594 36.121094 C 50.164062 36.175781 50.023438 36.203125 49.882812 36.195312 C 49.738281 36.191406 49.609375 36.15625 49.488281 36.089844 C 49.367188 36.023438 49.265625 35.929688 49.1875 35.8125 C 49.105469 35.695312 49.050781 35.5625 49.023438 35.414062 C 48.992188 35.261719 48.992188 35.109375 49.019531 34.949219 C 49.046875 34.789062 49.101562 34.636719 49.183594 34.488281 C 49.261719 34.34375 49.363281 34.214844 49.480469 34.105469 C 49.601562 33.996094 49.734375 33.914062 49.875 33.859375 C 50.015625 33.800781 50.160156 33.777344 50.300781 33.78125 C 50.441406 33.789062 50.574219 33.824219 50.695312 33.890625 Z M 50.695312 33.890625 " fill-opacity="1" fill-rule="nonzero"/><path fill="#380d36" d="M 80.308594 61.824219 C 80.308594 61.824219 80.488281 64.726562 77.320312 62.640625 L 77.136719 63.183594 L 80.355469 66.484375 L 80.820312 63.148438 Z M 80.308594 61.824219 " fill-opacity="0.3" fill-rule="nonzero"/><g clip-path="url(#3abe21da5a)"><path fill="#380d36" d="M 82.058594 80.675781 C 81.042969 85.761719 78.152344 90.070312 72.574219 90.269531 C 64.652344 90.550781 65.097656 90.269531 62.5625 90.269531 C 61.601562 90.269531 59.671875 87.84375 62.558594 86.425781 C 60.335938 87.496094 59.300781 88.09375 56.761719 88.480469 L 56.597656 88.769531 C 55.933594 89.363281 53.359375 91.710938 52.257812 91.949219 C 51.734375 92.082031 51.183594 92.148438 50.609375 92.121094 C 50.488281 92.125 50.363281 92.128906 50.238281 92.128906 C 47.054688 92.128906 44.054688 92.128906 44.894531 88.632812 C 44.941406 88.453125 44.910156 88.277344 44.929688 88.105469 C 40.949219 87.0625 37.363281 85.085938 34.429688 82.429688 C 34.398438 82.75 34.363281 83.054688 34.324219 83.347656 C 33.410156 90.128906 30.621094 89.980469 30.621094 89.980469 C 30.621094 89.980469 20.261719 91.480469 20.433594 87.585938 C 20.511719 85.882812 21.984375 85.097656 23.601562 84.59375 L 23.589844 84.449219 L 22.792969 76.933594 C 24.714844 80.566406 28.050781 84.675781 31.878906 79.703125 C 31.984375 79.566406 32.085938 79.429688 32.183594 79.285156 C 32.183594 79.285156 39.515625 84.4375 46.039062 81.085938 C 46.226562 82.28125 46.453125 83.476562 46.738281 84.589844 C 46.738281 84.589844 54.6875 88.675781 59.753906 81.355469 C 60.378906 79.6875 60.875 77.976562 61.273438 76.386719 C 62.207031 72.632812 62.5625 69.59375 62.5625 69.59375 C 62.5625 69.59375 63.796875 71.714844 63.214844 73.722656 C 63.214844 73.722656 63.910156 75.058594 66.011719 72.492188 C 66.011719 72.492188 66.015625 72.488281 66.015625 72.484375 C 66.167969 72.300781 66.328125 72.089844 66.496094 71.863281 C 66.496094 71.863281 66.453125 75.546875 63.214844 78.140625 L 62.5625 82.203125 C 63.535156 82.292969 64.769531 81.996094 66.316406 81.695312 C 67.617188 81.445312 69.507812 80.597656 70.863281 79.351562 C 70.859375 79.363281 78.542969 88.109375 82.058594 80.675781 Z M 82.058594 80.675781 " fill-opacity="0.3" fill-rule="nonzero"/></g><path fill="#380d36" d="M 69.074219 51.832031 C 65.917969 58.746094 54.824219 76.917969 21.621094 67.675781 L 21.199219 63.683594 C 25.777344 66.074219 31.636719 67.144531 38.324219 67.144531 C 52.40625 67.144531 65.304688 60.710938 68.457031 48.429688 C 68.632812 49.46875 68.871094 50.832031 69.074219 51.832031 Z M 69.074219 51.832031 " fill-opacity="0.3" fill-rule="nonzero"/><g fill="#ffffff" fill-opacity="1"><g transform="translate(92.545862, 49.75658)"><g><path d="M 9.777344 -1.28125 L 10.117188 -0.339844 L 11.015625 0 L 11.871094 0.0429688 L 12.636719 -0.0429688 L 13.960938 0.0429688 L 15.15625 -0.0429688 L 16.011719 0.0429688 L 16.863281 -0.425781 L 17.207031 -1.324219 L 17.335938 -6.277344 L 17.25 -7.128906 L 17.25 -7.984375 L 17.378906 -8.753906 L 17.335938 -11.230469 L 17.589844 -12.46875 L 18.019531 -13.578125 L 23.441406 -22.5 L 23.953125 -23.097656 L 26.683594 -27.625 L 27.15625 -28.691406 L 26.984375 -29.632812 L 26.214844 -29.800781 L 24.550781 -29.84375 L 23.652344 -29.757812 L 22.800781 -29.886719 L 21.132812 -29.84375 L 20.410156 -29.886719 L 19.257812 -29.460938 L 18.488281 -28.734375 L 17.378906 -26.898438 L 16.863281 -25.617188 L 15.925781 -24.25 L 15.5 -23.355469 L 15.070312 -22.628906 L 14.347656 -21.007812 L 13.789062 -20.28125 L 13.320312 -20.28125 L 12.851562 -21.09375 L 12.382812 -21.773438 L 11.101562 -24.167969 L 10.632812 -24.890625 L 8.625 -28.648438 L 7.726562 -29.460938 L 6.746094 -29.84375 L 5.847656 -29.800781 L 5.125 -29.972656 L 2.945312 -29.800781 L 0.980469 -29.929688 L 0.128906 -29.503906 L 0 -28.5625 L 0.425781 -27.582031 L 2.261719 -24.550781 L 2.734375 -23.953125 L 4.484375 -20.921875 L 5.507812 -19.554688 L 5.847656 -18.785156 L 9.136719 -13.578125 L 9.5625 -12.382812 L 9.777344 -11.230469 L 9.734375 -7.855469 L 9.820312 -7.003906 L 9.734375 -3.714844 L 9.820312 -2.902344 Z M 9.777344 -1.28125 "/></g></g></g><g fill="#ffffff" fill-opacity="1"><g transform="translate(124.778784, 49.75658)"><g><path d="M 2.050781 -1.238281 L 2.476562 -0.339844 L 3.332031 -0.0429688 L 16.011719 0.0429688 L 16.824219 -0.382812 L 17.292969 -1.152344 L 17.292969 -2.09375 L 17.207031 -2.859375 L 17.335938 -5.464844 L 16.738281 -6.191406 L 13.875 -7.085938 L 13.40625 -7.941406 L 13.492188 -11.441406 L 13.320312 -13.152344 L 13.492188 -14.945312 L 13.40625 -16.222656 L 13.492188 -17.546875 L 13.40625 -18.359375 L 13.492188 -19.214844 L 13.40625 -20.109375 L 13.40625 -21.902344 L 13.875 -22.671875 L 14.6875 -23.140625 L 15.625 -23.183594 L 16.4375 -23.652344 L 16.90625 -24.464844 L 16.90625 -26.984375 L 16.992188 -27.753906 L 16.90625 -28.605469 L 16.566406 -29.460938 L 15.199219 -29.84375 L 9.777344 -29.886719 L 8.839844 -29.800781 L 6.234375 -29.84375 L 5.421875 -29.800781 L 3.757812 -29.886719 L 2.816406 -29.460938 L 2.347656 -28.5625 L 2.347656 -27.753906 L 2.261719 -27.027344 L 2.261719 -26.085938 L 2.347656 -25.234375 L 2.347656 -24.421875 L 2.773438 -23.609375 L 5.378906 -22.714844 L 5.933594 -21.945312 L 5.808594 -18.316406 L 5.847656 -17.589844 L 5.976562 -16.609375 L 5.933594 -14.859375 L 5.847656 -14.003906 L 6.019531 -12.339844 L 5.808594 -11.484375 L 5.976562 -9.648438 L 5.890625 -7.984375 L 5.464844 -7.042969 L 2.648438 -6.148438 L 2.136719 -5.335938 L 2.050781 -4.527344 Z M 2.050781 -1.238281 "/></g></g></g><g fill="#ffffff" fill-opacity="1"><g transform="translate(149.241835, 49.75658)"><g><path d="M 3.074219 -1.238281 L 3.628906 -0.425781 L 4.441406 0.0429688 L 14.089844 -0.0429688 L 14.859375 0.0859375 L 17.460938 -0.0429688 L 20.066406 0.128906 L 20.878906 0.0429688 L 21.773438 -0.382812 L 22.160156 -1.195312 L 22.246094 -2.007812 L 22.203125 -4.652344 L 22.289062 -5.464844 L 21.730469 -6.320312 L 20.453125 -6.746094 L 14.816406 -6.832031 L 14.003906 -6.703125 L 13.066406 -6.789062 L 12.125 -6.703125 L 11.230469 -7.214844 L 10.84375 -8.539062 L 10.886719 -10.632812 L 11.273438 -11.527344 L 12.039062 -11.996094 L 13.707031 -11.996094 L 14.558594 -12.082031 L 16.824219 -11.953125 L 17.976562 -12.039062 L 18.871094 -11.953125 L 19.640625 -11.996094 L 20.496094 -12.46875 L 20.921875 -13.277344 L 21.007812 -16.652344 L 20.921875 -17.503906 L 20.535156 -18.316406 L 19.8125 -18.785156 L 18.101562 -18.828125 L 17.25 -18.742188 L 16.351562 -18.742188 L 15.371094 -18.828125 L 11.996094 -18.785156 L 11.273438 -19.257812 L 10.757812 -20.023438 L 10.675781 -21.347656 L 11.101562 -22.585938 L 12.425781 -22.96875 L 20.621094 -23.011719 L 21.519531 -23.484375 L 21.988281 -24.25 L 21.902344 -26.003906 L 21.773438 -26.8125 L 21.816406 -27.753906 L 21.945312 -28.5625 L 21.519531 -29.417969 L 20.621094 -29.800781 L 17.207031 -29.84375 L 16.4375 -29.757812 L 15.585938 -29.886719 L 13.707031 -29.800781 L 12.851562 -29.886719 L 11.1875 -29.84375 L 10.417969 -29.929688 L 4.824219 -29.800781 L 3.585938 -29.503906 L 3.160156 -28.5625 L 3.246094 -26.855469 L 3.074219 -25.617188 L 3.246094 -23.441406 L 3.160156 -22.542969 L 3.246094 -21.773438 L 3.246094 -14.132812 L 3.117188 -13.234375 L 3.246094 -11.570312 L 3.160156 -9.863281 L 3.289062 -8.964844 L 3.203125 -8.027344 L 3.246094 -7.214844 L 3.117188 -6.445312 L 3.203125 -5.464844 L 3.203125 -4.609375 L 3.289062 -2.945312 L 3.246094 -2.09375 Z M 3.074219 -1.238281 "/></g></g></g><g fill="#ffffff" fill-opacity="1"><g transform="translate(178.785191, 49.75658)"><g><path d="M 3.203125 -1.238281 L 3.585938 -0.46875 L 4.953125 0.0429688 L 20.066406 -0.0429688 L 21.261719 -0.46875 L 21.730469 -1.238281 L 21.648438 -2.175781 L 21.691406 -3.03125 L 21.773438 -3.800781 L 21.648438 -4.738281 L 21.773438 -5.550781 L 21.21875 -6.488281 L 20.535156 -6.917969 L 19.597656 -6.789062 L 12.082031 -6.875 L 11.1875 -7.257812 L 10.929688 -8.199219 L 10.972656 -9.777344 L 10.84375 -10.589844 L 10.886719 -11.527344 L 10.800781 -12.382812 L 10.886719 -13.277344 L 10.84375 -15.414062 L 10.972656 -16.609375 L 10.84375 -17.546875 L 10.972656 -18.445312 L 10.84375 -25.105469 L 10.929688 -26.042969 L 10.84375 -28.136719 L 10.417969 -29.417969 L 9.308594 -29.929688 L 4.867188 -29.84375 L 3.628906 -29.375 L 3.074219 -28.222656 L 3.332031 -26.003906 L 3.246094 -25.191406 L 3.117188 -24.292969 L 3.246094 -23.441406 L 3.332031 -22.628906 L 3.203125 -21.691406 L 3.246094 -20.878906 L 3.160156 -20.023438 L 3.289062 -19.128906 L 3.160156 -18.359375 L 3.246094 -17.503906 L 3.117188 -16.695312 L 3.246094 -14.859375 L 3.117188 -14.046875 L 3.246094 -12.339844 L 3.117188 -11.484375 L 3.160156 -9.777344 L 3.246094 -9.007812 L 3.203125 -3.800781 L 3.289062 -2.945312 L 3.117188 -2.136719 Z M 3.203125 -1.238281 "/></g></g></g><g fill="#ffffff" fill-opacity="1"><g transform="translate(206.834333, 49.75658)"><g><path d="M 3.203125 -1.324219 L 3.714844 -0.382812 L 4.398438 0 L 5.378906 0 L 6.277344 0.128906 L 7.128906 0.128906 L 8.027344 0 L 15.710938 -0.0429688 L 18.445312 -0.425781 L 20.921875 -1.195312 L 24.550781 -3.628906 L 26.257812 -5.59375 L 27.582031 -7.726562 L 27.796875 -8.539062 L 28.222656 -9.351562 L 28.394531 -10.203125 L 28.691406 -10.972656 L 28.820312 -11.871094 L 29.035156 -12.765625 L 28.992188 -13.492188 L 29.160156 -16.222656 L 28.519531 -18.660156 L 28.4375 -19.554688 L 28.222656 -20.324219 L 27.582031 -22.03125 L 26.601562 -23.484375 L 26.257812 -24.207031 L 25.148438 -25.53125 L 24.421875 -26.085938 L 23.226562 -27.238281 L 21.648438 -28.222656 L 20.792969 -28.648438 L 18.445312 -29.417969 L 16.695312 -29.757812 L 10.632812 -29.800781 L 9.777344 -29.886719 L 7.042969 -29.800781 L 6.191406 -29.886719 L 5.421875 -29.84375 L 4.527344 -29.886719 L 3.757812 -29.417969 L 3.117188 -28.605469 L 3.117188 -26.855469 L 3.203125 -26.003906 L 3.160156 -25.148438 L 3.246094 -23.527344 L 3.117188 -22.585938 L 3.246094 -21.730469 L 3.117188 -20.878906 L 3.289062 -17.460938 L 3.160156 -15.839844 L 3.289062 -14.003906 L 3.160156 -13.191406 L 3.289062 -12.296875 L 3.160156 -10.632812 L 3.246094 -7.214844 L 3.160156 -6.363281 L 3.289062 -2.945312 Z M 12.253906 -6.875 L 11.230469 -7.257812 L 10.84375 -8.199219 L 10.929688 -9.050781 L 10.757812 -9.820312 L 10.886719 -10.675781 L 10.886719 -21.648438 L 11.398438 -22.414062 L 12.636719 -22.886719 L 13.535156 -22.84375 L 14.429688 -22.886719 L 15.710938 -22.800781 L 17.421875 -22.289062 L 18.871094 -21.347656 L 19.9375 -20.152344 L 20.410156 -19.339844 L 20.964844 -18.660156 L 21.476562 -16.140625 L 21.605469 -14.816406 L 21.390625 -12.722656 L 21.132812 -11.914062 L 20.496094 -10.375 L 19.9375 -9.605469 L 19.382812 -9.007812 L 18.871094 -8.324219 L 18.1875 -7.898438 L 17.335938 -7.472656 L 15.796875 -7.042969 Z M 12.253906 -6.875 "/></g></g></g><g fill="#ffffff" fill-opacity="1"><g transform="translate(242.952183, 49.75658)"><g/></g></g><g fill="#ffffff" fill-opacity="1"><g transform="translate(259.602679, 49.75658)"><g><path d="M 13.152344 0.128906 L 14.429688 0.128906 L 15.753906 -0.0429688 L 16.609375 -0.0429688 L 17.847656 -0.425781 L 19.597656 -0.726562 L 21.605469 -1.578125 L 24.464844 -3.5 L 26.558594 -6.191406 L 26.984375 -7.042969 L 27.496094 -7.726562 L 28.179688 -9.394531 L 28.394531 -10.203125 L 28.5625 -11.101562 L 28.820312 -11.828125 L 28.949219 -12.679688 L 28.949219 -13.578125 L 29.074219 -14.945312 L 29.035156 -16.183594 L 28.4375 -19.554688 L 27.878906 -21.175781 L 27.539062 -21.988281 L 26.085938 -24.25 L 23.824219 -26.769531 L 21.648438 -28.222656 L 20.835938 -28.691406 L 19.980469 -28.863281 L 19.257812 -29.203125 L 18.359375 -29.417969 L 15.839844 -29.800781 L 6.105469 -29.886719 L 5.335938 -29.757812 L 4.484375 -29.800781 L 3.542969 -29.417969 L 3.160156 -28.519531 L 3.117188 -4.652344 L 3.203125 -3.84375 L 3.203125 -1.664062 L 3.628906 -0.339844 L 4.484375 0.0859375 L 5.335938 0 L 10.546875 0.0859375 L 11.398438 -0.0429688 Z M 13.023438 -6.875 L 12.210938 -6.960938 L 11.230469 -7.429688 L 10.886719 -8.242188 L 10.84375 -8.964844 L 10.886719 -10.714844 L 10.714844 -12.808594 L 10.886719 -14.945312 L 10.800781 -20.835938 L 10.886719 -21.5625 L 11.316406 -22.542969 L 12.679688 -22.84375 L 14.472656 -22.886719 L 15.710938 -22.757812 L 17.378906 -22.289062 L 18.144531 -21.902344 L 18.785156 -21.433594 L 19.425781 -20.835938 L 20.066406 -20.066406 L 20.496094 -19.339844 L 20.878906 -18.574219 L 21.5625 -14.816406 L 21.132812 -11.828125 L 20.410156 -10.246094 L 18.828125 -8.453125 L 17.378906 -7.515625 L 16.140625 -7.128906 L 14.304688 -6.917969 Z M 13.023438 -6.875 "/></g></g></g><g fill="#ffffff" fill-opacity="1"><g transform="translate(295.720539, 49.75658)"><g><path d="M 15.96875 0.511719 L 18.359375 0.46875 L 20.921875 0.128906 L 24.125 -0.9375 L 25.53125 -1.707031 L 26.171875 -2.21875 L 26.984375 -2.605469 L 28.179688 -3.628906 L 28.734375 -4.398438 L 29.332031 -4.996094 L 31.210938 -7.855469 L 31.851562 -9.480469 L 32.191406 -11.101562 L 32.234375 -11.871094 L 32.449219 -12.722656 L 32.492188 -13.621094 L 32.664062 -14.859375 L 32.535156 -16.992188 L 32.234375 -18.742188 L 31.167969 -21.945312 L 30.355469 -23.527344 L 29.417969 -24.804688 L 28.222656 -26.128906 L 26.984375 -27.199219 L 26.003906 -27.878906 L 24.722656 -28.4375 L 24.082031 -28.90625 L 20.792969 -29.929688 L 18.316406 -30.355469 L 17.164062 -30.398438 L 12.636719 -29.757812 L 9.4375 -28.5625 L 8.796875 -28.09375 L 8.027344 -27.710938 L 6.574219 -26.640625 L 4.484375 -24.207031 L 3.160156 -21.945312 L 2.519531 -20.324219 L 1.792969 -17.035156 L 1.664062 -13.578125 L 1.792969 -12.679688 L 2.007812 -11.914062 L 2.09375 -11.101562 L 2.476562 -9.480469 L 4.441406 -5.59375 L 4.953125 -5.082031 L 5.507812 -4.398438 L 6.148438 -3.800781 L 6.617188 -3.246094 L 8.027344 -2.136719 L 11.355469 -0.425781 L 12.59375 0 L 13.535156 0.0859375 L 15.070312 0.425781 Z M 18.359375 -7.042969 L 16.011719 -7.042969 L 15.070312 -7.171875 L 13.535156 -7.8125 L 12.851562 -8.199219 L 11.699219 -9.136719 L 11.144531 -9.734375 L 10.546875 -10.546875 L 10.332031 -11.230469 L 9.949219 -11.996094 L 9.605469 -13.578125 L 9.605469 -16.183594 L 9.820312 -16.949219 L 9.949219 -17.761719 L 10.289062 -18.53125 L 10.546875 -19.296875 L 11.570312 -20.664062 L 13.707031 -22.117188 L 14.261719 -22.332031 L 15.925781 -22.757812 L 17.121094 -22.84375 L 19.171875 -22.585938 L 19.9375 -22.414062 L 20.707031 -22.074219 L 22.03125 -21.132812 L 23.695312 -19.382812 L 24.207031 -17.761719 L 24.59375 -16.949219 L 24.722656 -16.183594 L 24.636719 -13.578125 L 24.292969 -11.996094 L 23.996094 -11.230469 L 23.527344 -10.460938 L 23.269531 -9.820312 L 22.671875 -9.136719 L 20.621094 -7.726562 L 19.855469 -7.515625 L 19.214844 -7.214844 Z M 18.359375 -7.042969 "/></g></g></g><g fill="#ffffff" fill-opacity="1"><g transform="translate(335.040257, 49.75658)"><g><path d="M 15.625 0.511719 L 16.738281 0.554688 L 19.042969 0.339844 L 19.894531 0.171875 L 20.707031 0.128906 L 21.433594 -0.0859375 L 24.59375 -1.453125 L 25.191406 -1.964844 L 26.601562 -2.859375 L 27.839844 -4.183594 L 29.203125 -6.191406 L 30.1875 -8.15625 L 30.742188 -9.992188 L 30.785156 -10.800781 L 31.039062 -11.65625 L 31.210938 -14.902344 L 31.082031 -15.753906 L 30.570312 -16.609375 L 29.332031 -16.992188 L 18.617188 -16.992188 L 17.292969 -16.523438 L 16.90625 -15.710938 L 16.824219 -12.511719 L 16.992188 -11.699219 L 17.25 -10.972656 L 18.058594 -10.589844 L 18.871094 -10.589844 L 19.640625 -10.503906 L 22.203125 -10.632812 L 22.800781 -10.160156 L 22.96875 -9.4375 L 22.628906 -8.753906 L 21.390625 -7.558594 L 20.707031 -7.214844 L 19.085938 -6.703125 L 18.230469 -6.574219 L 16.992188 -6.53125 L 15.667969 -6.617188 L 14.902344 -6.789062 L 14.132812 -7.085938 L 12.59375 -7.898438 L 11.316406 -8.921875 L 10.84375 -9.648438 L 10.503906 -10.375 L 10.035156 -11.144531 L 9.734375 -11.953125 L 9.480469 -16.222656 L 9.949219 -17.761719 L 10.117188 -18.617188 L 10.757812 -20.195312 L 11.871094 -21.390625 L 13.277344 -22.371094 L 14.003906 -22.714844 L 15.667969 -23.269531 L 16.863281 -23.3125 L 19.085938 -23.054688 L 19.894531 -22.84375 L 22.03125 -21.519531 L 22.457031 -20.835938 L 23.398438 -20.152344 L 24.335938 -19.726562 L 28.519531 -19.726562 L 29.332031 -19.8125 L 30.058594 -20.066406 L 30.355469 -21.007812 L 28.992188 -24.167969 L 28.394531 -24.765625 L 27.324219 -26.128906 L 26.085938 -27.367188 L 23.183594 -29.160156 L 22.246094 -29.417969 L 21.5625 -29.714844 L 20.707031 -29.84375 L 19.769531 -30.101562 L 15.542969 -30.3125 L 12.9375 -29.886719 L 9.691406 -28.734375 L 8.921875 -28.351562 L 6.789062 -26.898438 L 5.507812 -25.703125 L 4.953125 -24.976562 L 4.527344 -24.292969 L 3.886719 -23.695312 L 3.414062 -22.886719 L 2.09375 -19.640625 L 2.050781 -18.871094 L 1.578125 -16.992188 L 1.664062 -14.859375 L 1.578125 -13.664062 L 1.621094 -12.765625 L 2.347656 -9.480469 L 3.246094 -7.128906 L 3.714844 -6.320312 L 5.25 -4.398438 L 6.445312 -3.160156 L 9.179688 -1.324219 L 9.949219 -0.9375 L 12.339844 -0.0859375 L 14.730469 0.425781 Z M 15.625 0.511719 "/></g></g></g><g fill="#d9d9d9" fill-opacity="1"><g transform="translate(99.878016, 81.220447)"><g><path d="M 10.9375 -5.457031 L 10.9375 -8.519531 L 4.019531 -8.519531 L 4.019531 -10.707031 L 10.9375 -10.707031 L 10.9375 -13.894531 L 0.542969 -13.894531 L 0.542969 0 L 4.019531 0 L 4.019531 -5.457031 Z M 10.9375 -5.457031 "/></g></g></g><g fill="#d9d9d9" fill-opacity="1"><g transform="translate(118.998587, 81.220447)"><g><path d="M 10.9375 0 L 10.9375 -3.167969 L 4.019531 -3.167969 L 4.019531 -5.457031 L 10.9375 -5.457031 L 10.9375 -8.519531 L 4.019531 -8.519531 L 4.019531 -10.707031 L 10.9375 -10.707031 L 10.9375 -13.894531 L 0.542969 -13.894531 L 0.542969 0 Z M 10.9375 0 "/></g></g></g><g fill="#d9d9d9" fill-opacity="1"><g transform="translate(138.119158, 81.220447)"><g><path d="M 10.75 -10.707031 L 10.75 -13.894531 L 0.3125 -13.894531 L 0.3125 -10.707031 L 3.8125 -10.707031 L 3.8125 0 L 7.289062 0 L 7.289062 -10.707031 Z M 10.75 -10.707031 "/></g></g></g><g fill="#d9d9d9" fill-opacity="1"><g transform="translate(156.823287, 81.220447)"><g><path d="M 10.976562 0 L 10.976562 -3.167969 L 4.019531 -3.167969 L 4.019531 -10.707031 L 10.976562 -10.707031 L 10.976562 -13.894531 L 0.542969 -13.894531 L 0.542969 0 Z M 10.976562 0 "/></g></g></g><g fill="#d9d9d9" fill-opacity="1"><g transform="translate(175.860564, 81.220447)"><g><path d="M 10.976562 0 L 10.976562 -13.894531 L 7.5 -13.894531 L 7.5 -8.519531 L 4.019531 -8.519531 L 4.019531 -13.894531 L 0.542969 -13.894531 L 0.542969 0 L 4.019531 0 L 4.019531 -5.457031 L 7.5 -5.457031 L 7.5 0 Z M 10.976562 0 "/></g></g></g><g fill="#d9d9d9" fill-opacity="1"><g transform="translate(195.022777, 81.220447)"><g><path d="M 4.019531 0 L 4.019531 -13.894531 L 0.542969 -13.894531 L 0.542969 0 Z M 4.019531 0 "/></g></g></g><g fill="#d9d9d9" fill-opacity="1"><g transform="translate(207.230366, 81.220447)"><g><path d="M 10.75 0 L 10.75 -13.894531 L 0.3125 -13.894531 L 0.3125 -10.707031 L 1 -10.707031 L 1 0 L 3.792969 0 L 3.792969 -10.707031 L 7.269531 -10.707031 L 7.269531 0 Z M 10.75 0 "/></g></g></g><g fill="#d9d9d9" fill-opacity="1"><g transform="translate(226.163541, 81.220447)"><g><path d="M 10.976562 0 L 10.976562 -5.457031 L 7.5 -5.457031 L 7.5 -3.167969 L 4.019531 -3.167969 L 4.019531 -10.707031 L 10.976562 -10.707031 L 10.976562 -13.894531 L 0.542969 -13.894531 L 0.542969 0 Z M 10.976562 0 "/></g></g></g><g fill="#d9d9d9" fill-opacity="1"><g transform="translate(245.325754, 81.220447)"><g/></g></g><g fill="#d9d9d9" fill-opacity="1"><g transform="translate(260.261058, 81.220447)"><g><path d="M 11.414062 -10.707031 L 11.414062 -13.894531 L 7.25 -13.894531 L 7.25 -8.539062 L 4.480469 -8.539062 L 4.480469 -13.894531 L 0.3125 -13.894531 L 0.3125 -10.707031 L 1 -10.707031 L 1 -5.476562 L 4.125 -5.476562 L 4.125 0 L 7.601562 0 L 7.601562 -5.476562 L 10.726562 -5.476562 L 10.726562 -10.707031 Z M 11.414062 -10.707031 "/></g></g></g><g fill="#d9d9d9" fill-opacity="1"><g transform="translate(279.6315, 81.220447)"><g><path d="M 4.019531 0 L 4.019531 -13.894531 L 0.542969 -13.894531 L 0.542969 0 Z M 4.019531 0 "/></g></g></g><g fill="#d9d9d9" fill-opacity="1"><g transform="translate(291.839088, 81.220447)"><g><path d="M 10.9375 0 L 10.9375 -3.167969 L 4.019531 -3.167969 L 4.019531 -5.457031 L 10.9375 -5.457031 L 10.9375 -8.519531 L 4.019531 -8.519531 L 4.019531 -10.707031 L 10.9375 -10.707031 L 10.9375 -13.894531 L 0.542969 -13.894531 L 0.542969 0 Z M 10.9375 0 "/></g></g></g><g fill="#d9d9d9" fill-opacity="1"><g transform="translate(310.959667, 81.220447)"><g><path d="M 10.9375 0 L 10.9375 -3.167969 L 4.019531 -3.167969 L 4.019531 -13.894531 L 0.542969 -13.894531 L 0.542969 0 Z M 10.9375 0 "/></g></g></g><g fill="#d9d9d9" fill-opacity="1"><g transform="translate(329.955311, 81.220447)"><g><path d="M 10.769531 0 L 10.769531 -13.894531 L 0.332031 -13.894531 L 0.332031 -10.707031 L 1.019531 -10.707031 L 1.019531 -3.167969 L 0.332031 -3.167969 L 0.332031 0 Z M 7.289062 -3.167969 L 3.8125 -3.167969 L 3.8125 -10.707031 L 7.289062 -10.707031 Z M 7.289062 -3.167969 "/></g></g></g><g fill="#d9d9d9" fill-opacity="1"><g transform="translate(348.909308, 81.220447)"><g><path d="M 10.976562 0 L 10.976562 -8.519531 L 4.019531 -8.519531 L 4.019531 -10.707031 L 10.976562 -10.707031 L 10.976562 -13.894531 L 0.542969 -13.894531 L 0.542969 -5.457031 L 7.5 -5.457031 L 7.5 -3.167969 L 0.542969 -3.167969 L 0.542969 0 Z M 10.976562 0 "/></g></g></g></svg>