<svg xmlns="http://www.w3.org/2000/svg" xmlns:xlink="http://www.w3.org/1999/xlink" width="500" zoomAndPan="magnify" viewBox="0 0 375 374.999991" height="500" preserveAspectRatio="xMidYMid meet" version="1.0"><defs><g/><clipPath id="71539a66a0"><path d="M 13 21 L 78.75 21 L 78.75 83 L 13 83 Z M 13 21 " clip-rule="nonzero"/></clipPath></defs><path fill="#f99b28" d="M 67.539062 81.671875 C 59.484375 81.960938 59.9375 81.671875 57.359375 81.671875 C 56.382812 81.671875 54.421875 79.207031 57.355469 77.761719 C 58.769531 77.082031 60.109375 76.273438 61.355469 75.351562 C 63.078125 74.089844 64.632812 72.617188 65.976562 70.972656 C 62.429688 73.589844 58.007812 74.246094 53.902344 74.128906 C 53.132812 75.910156 52.21875 79.203125 51.128906 80.511719 C 51.128906 80.511719 51.3125 80.433594 50.644531 81.035156 L 50.070312 81.652344 C 49.394531 82.257812 48.441406 82.925781 47.316406 83.167969 C 46.789062 83.304688 46.230469 83.367188 45.644531 83.339844 C 45.519531 83.34375 45.394531 83.347656 45.265625 83.347656 C 42.027344 83.347656 39.398438 83.246094 39.398438 81.640625 C 39.398438 81.457031 39.414062 81.277344 39.433594 81.105469 C 39.597656 79.824219 40.363281 78.902344 41.488281 78.320312 C 40.957031 76.492188 40.59375 72.753906 40.347656 70.742188 C 38.347656 69.113281 36.535156 66.640625 34.648438 64.859375 C 32.832031 63.148438 30.949219 62.066406 28.765625 62.96875 C 28.679688 63.007812 28.59375 63.046875 28.507812 63.085938 C 24.554688 64.910156 25.660156 69.085938 27.21875 72.175781 C 27.703125 73.136719 28.230469 73.992188 28.65625 74.644531 C 27.730469 81.535156 24.890625 81.386719 24.890625 81.386719 C 24.890625 81.386719 14.359375 82.910156 14.535156 78.953125 C 14.613281 77.222656 16.109375 76.421875 17.757812 75.910156 L 17.742188 75.761719 L 14.585938 45.886719 L 14.535156 45.417969 C 14.480469 44.832031 14.453125 44.238281 14.453125 43.636719 C 14.453125 31.699219 25.628906 22.019531 39.40625 22.019531 C 50.636719 22.019531 60.132812 28.445312 63.265625 37.28125 C 63.265625 37.28125 63.996094 41.738281 64.355469 43.203125 C 64.992188 45.804688 66.675781 49.160156 69.679688 52.164062 C 70.21875 52.707031 70.820312 53.195312 71.445312 53.703125 C 72.828125 54.820312 74.316406 55.992188 75.46875 57.847656 C 76.078125 58.828125 76.59375 59.996094 76.945312 61.449219 C 78.863281 69.308594 77.023438 81.332031 67.539062 81.671875 Z M 67.539062 81.671875 " fill-opacity="1" fill-rule="nonzero"/><path fill="#ffffff" d="M 57.003906 60.53125 C 57.003906 60.53125 53.640625 73.316406 51.496094 75.589844 C 51.496094 75.589844 52.992188 74.675781 53.835938 73.582031 C 53.835938 73.585938 56.847656 65.472656 57.003906 60.53125 Z M 57.003906 60.53125 " fill-opacity="0.6" fill-rule="nonzero"/><path fill="#fca030" d="M 75.453125 57.84375 C 74.300781 55.988281 72.8125 54.816406 71.433594 53.699219 C 71.433594 53.699219 72.601562 53.972656 73.0625 51.132812 C 73.578125 47.917969 78.074219 52.769531 75.453125 57.84375 Z M 75.453125 57.84375 " fill-opacity="1" fill-rule="nonzero"/><path fill="#380d36" d="M 75.460938 58.03125 L 75.375 57.890625 C 74.265625 56.109375 72.863281 54.976562 71.503906 53.878906 L 71.058594 53.519531 L 71.449219 53.609375 C 71.457031 53.613281 71.664062 53.65625 71.9375 53.464844 C 72.273438 53.238281 72.722656 52.644531 72.96875 51.117188 C 73.09375 50.34375 73.429688 50.097656 73.683594 50.03125 C 74.117188 49.917969 74.671875 50.214844 75.164062 50.828125 C 76.335938 52.296875 76.953125 55.128906 75.535156 57.886719 Z M 71.679688 53.78125 C 72.996094 54.84375 74.347656 55.953125 75.445312 57.660156 C 76.734375 55.023438 76.144531 52.34375 75.023438 50.949219 C 74.578125 50.394531 74.09375 50.117188 73.734375 50.210938 C 73.441406 50.292969 73.238281 50.613281 73.152344 51.148438 C 72.894531 52.75 72.40625 53.378906 72.035156 53.628906 C 71.902344 53.714844 71.78125 53.761719 71.679688 53.78125 Z M 71.679688 53.78125 " fill-opacity="1" fill-rule="nonzero"/><path fill="#ffffff" d="M 76.3125 56.375 C 76.640625 52.984375 74.253906 50.382812 73.289062 51.371094 C 73.773438 48.621094 77.285156 52.058594 76.3125 56.375 Z M 76.3125 56.375 " fill-opacity="0.6" fill-rule="nonzero"/><path fill="#380d36" d="M 75.453125 58.371094 C 75.355469 58.371094 75.253906 58.347656 75.160156 58.300781 C 74.84375 58.136719 74.722656 57.75 74.882812 57.433594 C 76.28125 54.722656 75.417969 52.296875 74.683594 51.292969 C 74.289062 50.746094 73.953125 50.617188 73.875 50.628906 C 73.851562 50.644531 73.753906 50.773438 73.699219 51.117188 C 73.464844 52.5625 73.011719 53.519531 72.34375 53.96875 C 71.941406 54.234375 71.535156 54.269531 71.285156 54.210938 C 70.9375 54.128906 70.722656 53.78125 70.804688 53.433594 C 70.882812 53.105469 71.195312 52.898438 71.523438 52.945312 C 71.683594 52.925781 72.167969 52.523438 72.429688 50.914062 C 72.609375 49.789062 73.207031 49.46875 73.550781 49.378906 C 74.210938 49.203125 74.957031 49.566406 75.601562 50.371094 C 76.886719 51.972656 77.5625 55.050781 76.03125 58.023438 C 75.914062 58.246094 75.6875 58.371094 75.453125 58.371094 Z M 71.574219 52.953125 L 71.578125 52.953125 C 71.578125 52.957031 71.574219 52.953125 71.574219 52.953125 Z M 71.574219 52.953125 Z M 71.574219 52.953125 " fill-opacity="1" fill-rule="nonzero"/><path fill="#ffffff" d="M 77.515625 64.972656 C 76.582031 59.75 74.839844 60.863281 68.453125 53.472656 C 63.046875 47.21875 63.085938 42.710938 63.753906 40.347656 C 63.96875 41.554688 64.207031 42.847656 64.375 43.511719 C 65.011719 46.121094 66.695312 49.472656 69.695312 52.476562 C 70.238281 53.015625 70.835938 53.507812 71.464844 54.015625 C 73.570312 55.722656 75.933594 57.554688 76.964844 61.757812 C 77.214844 62.773438 77.398438 63.855469 77.515625 64.972656 Z M 77.515625 64.972656 " fill-opacity="0.6" fill-rule="nonzero"/><path fill="#ffffff" d="M 41.480469 78.320312 C 40.355469 78.902344 40.648438 78.320312 39.925781 79.691406 C 35.878906 78.628906 31.734375 76.40625 28.753906 73.703125 C 28.210938 73.21875 27.695312 72.703125 27.203125 72.171875 C 25.648438 69.078125 24.542969 64.90625 28.488281 63.082031 C 28.574219 63.042969 28.660156 63.003906 28.75 62.964844 C 30.933594 62.0625 32.816406 63.144531 34.632812 64.855469 C 36.515625 66.636719 38.332031 69.105469 40.332031 70.738281 C 40.585938 72.75 40.949219 76.492188 41.480469 78.320312 Z M 41.480469 78.320312 " fill-opacity="1" fill-rule="nonzero"/><path fill="#ffffff" d="M 65.789062 71.003906 C 64.449219 72.644531 62.894531 74.117188 61.171875 75.382812 C 59.921875 76.304688 58.585938 77.109375 57.171875 77.792969 C 54.910156 78.882812 53.867188 79.660156 51.289062 80.054688 C 51.804688 78.910156 52.109375 78.347656 52.109375 78.347656 C 53.199219 77.035156 52.949219 75.941406 53.714844 74.160156 C 57.824219 74.28125 62.242188 73.621094 65.789062 71.003906 Z M 65.789062 71.003906 " fill-opacity="1" fill-rule="nonzero"/><path fill="#380d36" d="M 39.425781 80.003906 C 39.371094 80.003906 39.316406 80 39.261719 79.984375 C 35.203125 78.917969 31.417969 76.871094 28.320312 74.066406 C 28.066406 73.835938 27.804688 73.589844 27.554688 73.34375 C 27.300781 73.09375 27.296875 72.6875 27.546875 72.433594 C 27.796875 72.179688 28.207031 72.175781 28.457031 72.425781 C 28.699219 72.660156 28.941406 72.890625 29.1875 73.113281 C 32.136719 75.78125 35.734375 77.730469 39.589844 78.742188 C 39.933594 78.828125 40.144531 79.183594 40.050781 79.527344 C 39.976562 79.8125 39.714844 80.003906 39.425781 80.003906 Z M 39.425781 80.003906 " fill-opacity="1" fill-rule="nonzero"/><path fill="#380d36" d="M 28.570312 74.003906 C 28.402344 74.003906 28.226562 73.933594 28.097656 73.796875 C 24.929688 70.386719 22.71875 66.835938 21.519531 63.242188 C 21.40625 62.90625 21.589844 62.542969 21.925781 62.429688 C 22.265625 62.316406 22.628906 62.496094 22.742188 62.835938 C 23.878906 66.25 25.996094 69.644531 29.039062 72.917969 C 29.285156 73.179688 29.269531 73.585938 29.007812 73.832031 C 28.886719 73.945312 28.730469 74.003906 28.570312 74.003906 Z M 28.570312 74.003906 " fill-opacity="1" fill-rule="nonzero"/><path stroke-linecap="round" transform="matrix(0.0342337, 0, 0, 0.034284, 1.140186, 0.878009)" fill="none" stroke-linejoin="miter" d="M 1893.822086 2041.109143 Z M 1893.822086 2041.109143 " stroke="#380d36" stroke-width="37.618999" stroke-opacity="1" stroke-miterlimit="10"/><path fill="#380d36" d="M 51.972656 80.183594 C 51.679688 80.183594 51.414062 79.980469 51.347656 79.683594 C 51.269531 79.335938 51.484375 78.992188 51.828125 78.910156 C 53.636719 78.488281 55.402344 77.871094 57.070312 77.0625 C 58.445312 76.402344 59.753906 75.609375 60.96875 74.714844 L 61.140625 74.589844 C 62.675781 73.445312 64.070312 72.125 65.292969 70.664062 C 65.523438 70.390625 65.925781 70.355469 66.203125 70.582031 C 66.476562 70.8125 66.507812 71.214844 66.28125 71.488281 C 64.949219 73.082031 63.417969 74.515625 61.730469 75.753906 L 61.558594 75.878906 C 60.328125 76.769531 59.003906 77.558594 57.628906 78.222656 C 55.871094 79.070312 54.015625 79.722656 52.117188 80.164062 C 52.070312 80.175781 52.023438 80.183594 51.972656 80.183594 Z M 51.972656 80.183594 " fill-opacity="1" fill-rule="nonzero"/><path stroke-linecap="round" transform="matrix(0.0342337, 0, 0, 0.034284, 1.140186, 0.878009)" fill="none" stroke-linejoin="miter" d="M 1475.054837 2299.975978 Z M 1475.054837 2299.975978 " stroke="#380d36" stroke-width="37.618999" stroke-opacity="1" stroke-miterlimit="10"/><path fill="#380d36" d="M 63.25 37.804688 C 63.066406 37.804688 62.902344 37.726562 62.78125 37.601562 C 62.671875 37.488281 62.601562 37.332031 62.601562 37.15625 C 62.601562 36.800781 62.890625 36.511719 63.246094 36.511719 C 63.601562 36.511719 63.894531 36.804688 63.894531 37.160156 C 63.894531 37.515625 63.605469 37.804688 63.25 37.804688 Z M 63.25 37.804688 " fill-opacity="1" fill-rule="nonzero"/><g clip-path="url(#71539a66a0)"><path fill="#380d36" d="M 61.886719 82.328125 C 60.554688 82.328125 59.832031 82.289062 59.160156 82.25 C 58.605469 82.21875 58.125 82.195312 57.355469 82.195312 C 56.472656 82.195312 55.476562 81.238281 55.222656 80.148438 C 55.085938 79.5625 54.992188 78.09375 57.050781 77.074219 C 57.292969 76.945312 57.605469 76.980469 57.8125 77.1875 C 58.058594 77.4375 58.0625 77.84375 57.8125 78.097656 L 57.734375 78.175781 L 57.640625 78.222656 C 56.746094 78.660156 56.351562 79.199219 56.476562 79.816406 C 56.597656 80.453125 57.1875 80.894531 57.363281 80.90625 C 57.363281 80.90625 57.363281 80.90625 57.367188 80.90625 C 58.164062 80.90625 58.683594 80.933594 59.230469 80.960938 C 60.5 81.03125 61.941406 81.105469 67.519531 80.90625 C 70.269531 80.808594 72.488281 79.664062 74.121094 77.503906 C 77.296875 73.292969 77.484375 66.242188 76.3125 61.480469 C 75.355469 57.578125 73.226562 55.855469 71.164062 54.191406 L 71.03125 54.082031 C 70.363281 53.542969 69.765625 53.050781 69.214844 52.5 C 66.496094 49.777344 64.492188 46.398438 63.71875 43.234375 C 63.378906 41.839844 62.722656 37.890625 62.628906 37.324219 C 59.46875 28.480469 50.136719 22.542969 39.394531 22.542969 C 25.988281 22.542969 15.082031 31.949219 15.082031 43.511719 C 15.082031 44.09375 15.109375 44.671875 15.164062 45.230469 L 15.214844 45.695312 C 15.25 46.046875 14.996094 46.367188 14.640625 46.402344 C 14.285156 46.441406 13.972656 46.183594 13.933594 45.832031 L 13.882812 45.363281 C 13.824219 44.753906 13.796875 44.136719 13.796875 43.515625 C 13.796875 31.242188 25.277344 21.257812 39.394531 21.257812 C 44.960938 21.257812 50.257812 22.785156 54.710938 25.675781 C 58.890625 28.394531 62.066406 32.226562 63.699219 36.511719 L 63.894531 36.511719 L 63.894531 37.105469 C 63.976562 37.601562 64.640625 41.589844 64.964844 42.925781 C 65.683594 45.871094 67.5625 49.027344 70.117188 51.585938 C 70.625 52.09375 71.191406 52.566406 71.832031 53.078125 L 71.964844 53.1875 C 74.089844 54.902344 76.496094 56.847656 77.554688 61.171875 C 78.835938 66.394531 78.585938 73.707031 75.140625 78.28125 C 73.261719 80.765625 70.714844 82.082031 67.558594 82.195312 C 64.859375 82.292969 63.117188 82.328125 61.886719 82.328125 Z M 61.886719 82.328125 " fill-opacity="1" fill-rule="nonzero"/></g><path fill="#380d36" d="M 17.742188 76.429688 C 17.417969 76.429688 17.136719 76.183594 17.101562 75.851562 L 17.089844 75.703125 L 13.886719 45.359375 C 13.847656 45.003906 14.105469 44.6875 14.457031 44.648438 C 14.8125 44.609375 15.128906 44.867188 15.164062 45.222656 L 15.21875 45.691406 L 18.386719 75.714844 C 18.425781 76.066406 18.167969 76.386719 17.8125 76.421875 C 17.789062 76.429688 17.765625 76.429688 17.742188 76.429688 Z M 17.742188 76.429688 " fill-opacity="1" fill-rule="nonzero"/><path fill="#380d36" d="M 20.683594 82.207031 C 18.457031 82.207031 15.960938 81.917969 14.71875 80.789062 C 14.136719 80.261719 13.847656 79.578125 13.882812 78.800781 C 13.984375 76.546875 16.023438 75.648438 17.554688 75.171875 C 17.894531 75.066406 18.257812 75.253906 18.363281 75.59375 C 18.46875 75.933594 18.28125 76.296875 17.941406 76.402344 C 16.050781 76.992188 15.222656 77.730469 15.171875 78.859375 C 15.15625 79.253906 15.285156 79.566406 15.585938 79.835938 C 17.242188 81.339844 22.796875 80.917969 24.796875 80.628906 L 24.878906 80.617188 L 24.910156 80.621094 C 25.085938 80.605469 27.226562 80.289062 28.011719 74.433594 C 28.050781 74.152344 28.089844 73.859375 28.121094 73.527344 C 28.152344 73.195312 28.425781 72.941406 28.761719 72.941406 C 29.117188 72.941406 29.402344 73.226562 29.402344 73.585938 L 29.398438 73.652344 C 29.367188 74 29.328125 74.3125 29.289062 74.609375 C 28.359375 81.5 25.519531 81.902344 24.929688 81.910156 C 24.449219 81.976562 22.671875 82.207031 20.683594 82.207031 Z M 20.683594 82.207031 " fill-opacity="1" fill-rule="nonzero"/><path fill="#380d36" d="M 55.800781 69.027344 C 55.75 69.027344 55.695312 69.019531 55.640625 69.007812 C 55.292969 68.917969 55.089844 68.570312 55.179688 68.222656 C 56.175781 64.332031 56.714844 60.488281 56.71875 60.449219 C 56.765625 60.097656 57.089844 59.851562 57.445312 59.902344 C 57.796875 59.949219 58.042969 60.273438 57.992188 60.628906 C 57.984375 60.664062 57.4375 64.578125 56.421875 68.542969 C 56.347656 68.832031 56.089844 69.027344 55.800781 69.027344 Z M 55.800781 69.027344 " fill-opacity="1" fill-rule="nonzero"/><path fill="#380d36" d="M 45.878906 83.992188 C 45.792969 83.992188 45.699219 83.988281 45.609375 83.984375 C 45.253906 83.972656 44.980469 83.671875 44.992188 83.3125 C 45.007812 82.957031 45.308594 82.683594 45.664062 82.695312 C 46.171875 82.71875 46.671875 82.664062 47.148438 82.539062 L 47.175781 82.53125 C 48.1875 82.316406 49.058594 81.683594 49.613281 81.1875 L 50.640625 80.085938 C 51.308594 79.273438 51.953125 77.457031 52.519531 75.855469 C 52.796875 75.070312 53.054688 74.335938 53.304688 73.753906 C 53.992188 72.15625 54.621094 70.300781 55.171875 68.246094 C 55.261719 67.902344 55.617188 67.699219 55.957031 67.789062 C 56.300781 67.882812 56.507812 68.234375 56.414062 68.578125 C 55.84375 70.691406 55.199219 72.605469 54.488281 74.257812 C 54.253906 74.804688 53.996094 75.519531 53.730469 76.28125 C 53.125 77.992188 52.4375 79.933594 51.617188 80.917969 L 51.59375 80.945312 L 50.496094 82.125 C 49.824219 82.726562 48.753906 83.507812 47.457031 83.785156 C 46.949219 83.925781 46.417969 83.992188 45.878906 83.992188 Z M 45.878906 83.992188 " fill-opacity="1" fill-rule="nonzero"/><path fill="#380d36" d="M 40.53125 72.714844 C 40.207031 72.714844 39.929688 72.472656 39.894531 72.148438 C 39.625 69.957031 39.3125 66.558594 39.246094 65.160156 C 39.179688 63.777344 39.171875 62.890625 39.171875 62.855469 C 39.171875 62.5 39.457031 62.207031 39.8125 62.207031 L 39.816406 62.207031 C 40.171875 62.207031 40.460938 62.496094 40.460938 62.851562 C 40.460938 62.859375 40.46875 63.746094 40.53125 65.101562 C 40.59375 66.476562 40.902344 69.828125 41.167969 71.992188 C 41.210938 72.347656 40.957031 72.667969 40.605469 72.710938 C 40.582031 72.710938 40.558594 72.714844 40.53125 72.714844 Z M 40.53125 72.714844 " fill-opacity="1" fill-rule="nonzero"/><path fill="#380d36" d="M 41.480469 78.964844 C 41.203125 78.964844 40.945312 78.78125 40.863281 78.5 C 40.417969 76.96875 40.101562 74.179688 39.867188 72.140625 C 39.828125 71.789062 40.082031 71.46875 40.4375 71.425781 C 40.789062 71.386719 41.109375 71.640625 41.148438 71.996094 C 41.359375 73.875 41.6875 76.714844 42.101562 78.140625 C 42.199219 78.484375 42.003906 78.839844 41.664062 78.9375 C 41.601562 78.957031 41.539062 78.964844 41.480469 78.964844 Z M 41.480469 78.964844 " fill-opacity="1" fill-rule="nonzero"/><path fill="#380d36" d="M 45.261719 83.996094 C 42.210938 83.996094 38.75 83.996094 38.75 81.644531 C 38.75 81.433594 38.761719 81.226562 38.789062 81.023438 C 38.972656 79.601562 39.800781 78.464844 41.1875 77.746094 C 41.5 77.582031 41.890625 77.707031 42.054688 78.019531 C 42.21875 78.335938 42.097656 78.726562 41.78125 78.890625 C 40.777344 79.414062 40.199219 80.1875 40.070312 81.1875 C 40.050781 81.339844 40.039062 81.488281 40.039062 81.640625 C 40.039062 82.703125 43.183594 82.703125 45.261719 82.703125 C 45.378906 82.703125 45.496094 82.703125 45.613281 82.695312 C 45.96875 82.683594 46.265625 82.960938 46.28125 83.316406 C 46.292969 83.675781 46.015625 83.972656 45.660156 83.984375 C 45.527344 83.992188 45.394531 83.996094 45.261719 83.996094 Z M 45.261719 83.996094 " fill-opacity="1" fill-rule="nonzero"/><path fill="#380d36" d="M 67.84375 78.460938 C 67.628906 78.460938 67.421875 78.351562 67.296875 78.152344 C 65.660156 75.523438 62.714844 75.675781 61.523438 75.859375 C 61.453125 75.871094 61.410156 75.878906 61.355469 75.878906 C 60.996094 75.878906 60.710938 75.589844 60.710938 75.234375 C 60.710938 74.898438 60.96875 74.621094 61.296875 74.59375 L 61.328125 74.589844 C 62.769531 74.363281 66.34375 74.1875 68.390625 77.472656 C 68.578125 77.773438 68.484375 78.171875 68.183594 78.359375 C 68.078125 78.429688 67.957031 78.460938 67.84375 78.460938 Z M 67.84375 78.460938 " fill-opacity="1" fill-rule="nonzero"/><path fill="#380d36" d="M 65.972656 71.5 C 65.773438 71.5 65.578125 71.410156 65.453125 71.238281 C 65.238281 70.949219 65.300781 70.550781 65.589844 70.335938 C 66.636719 69.566406 67.785156 68.511719 68.390625 66.5625 C 68.496094 66.222656 68.855469 66.03125 69.191406 66.136719 C 69.53125 66.242188 69.722656 66.605469 69.617188 66.941406 C 68.804688 69.558594 67.085938 70.828125 66.351562 71.371094 C 66.238281 71.457031 66.105469 71.5 65.972656 71.5 Z M 65.972656 71.5 " fill-opacity="1" fill-rule="nonzero"/><path stroke-linecap="round" transform="matrix(0.0342337, 0, 0, 0.034284, 1.140186, 0.878009)" fill="none" stroke-linejoin="miter" d="M 1541.121931 2133.17094 Z M 1541.121931 2133.17094 " stroke="#380d36" stroke-width="37.618999" stroke-opacity="1" stroke-miterlimit="10"/><path fill="#380d36" d="M 56.042969 68.09375 C 55.777344 68.09375 55.527344 67.925781 55.433594 67.65625 C 55.320312 67.320312 55.496094 66.953125 55.832031 66.835938 C 55.871094 66.824219 59.34375 65.574219 60.757812 62.265625 C 60.898438 61.941406 61.273438 61.785156 61.605469 61.925781 C 61.933594 62.066406 62.082031 62.445312 61.941406 62.773438 C 60.300781 66.625 56.417969 68 56.253906 68.058594 C 56.183594 68.082031 56.113281 68.09375 56.042969 68.09375 Z M 56.042969 68.09375 " fill-opacity="1" fill-rule="nonzero"/><path fill="#914817" d="M 26.734375 3.667969 C 9.976562 6.050781 12.792969 19.4375 10.886719 21.585938 C 10.535156 21.980469 10.1875 22.382812 9.851562 22.792969 C 8.585938 22.71875 7.03125 22.398438 5.117188 21.765625 C -2.886719 19.132812 4.3125 7.671875 11.425781 4.378906 C 17.078125 1.753906 24.101562 2.328125 26.734375 3.667969 Z M 26.734375 3.667969 " fill-opacity="1" fill-rule="nonzero"/><path fill="#380d36" d="M 9.894531 22.886719 L 9.847656 22.886719 C 8.53125 22.804688 6.929688 22.460938 5.085938 21.855469 C 2.871094 21.128906 1.636719 19.648438 1.515625 17.582031 C 1.261719 13.21875 6.054688 6.765625 11.382812 4.300781 C 17.042969 1.675781 24.074219 2.21875 26.773438 3.59375 L 27.035156 3.726562 L 26.746094 3.769531 C 14 5.582031 12.660156 13.675781 11.855469 18.515625 C 11.613281 19.972656 11.421875 21.128906 10.953125 21.652344 C 10.597656 22.054688 10.253906 22.460938 9.925781 22.859375 Z M 20.371094 2.625 C 17.550781 2.625 14.332031 3.132812 11.460938 4.464844 C 9.035156 5.589844 6.539062 7.6875 4.613281 10.21875 C 2.644531 12.8125 1.582031 15.492188 1.703125 17.566406 C 1.816406 19.582031 2.980469 20.96875 5.144531 21.679688 C 6.949219 22.269531 8.515625 22.613281 9.808594 22.695312 C 10.128906 22.308594 10.464844 21.914062 10.816406 21.523438 C 11.246094 21.035156 11.433594 19.910156 11.671875 18.476562 C 12.0625 16.09375 12.609375 12.832031 14.664062 9.929688 C 17.042969 6.570312 20.996094 4.445312 26.417969 3.621094 C 25.078125 3.027344 22.886719 2.625 20.371094 2.625 Z M 20.371094 2.625 " fill-opacity="1" fill-rule="nonzero"/><path fill="#f99b28" d="M 64.257812 32.613281 C 64.257812 35.164062 63.898438 37.535156 63.230469 39.707031 C 63.226562 39.722656 63.21875 39.734375 63.214844 39.746094 C 59.5625 51.546875 46.789062 57.726562 32.875 57.726562 C 16.382812 57.726562 4.835938 51.332031 4.835938 34.898438 C 4.835938 29.882812 7.640625 25.519531 11.066406 21.65625 C 13.121094 19.347656 9.699219 4 31.128906 3.394531 C 33.847656 3.316406 36.371094 3.417969 38.707031 3.679688 C 38.992188 3.710938 39.273438 3.746094 39.546875 3.78125 C 39.609375 3.789062 39.671875 3.796875 39.726562 3.804688 C 40.425781 3.898438 41.109375 4.007812 41.769531 4.132812 C 51.484375 5.9375 57.609375 10.824219 60.96875 17.394531 C 61.503906 18.433594 61.96875 19.523438 62.367188 20.644531 C 62.378906 20.679688 62.394531 20.71875 62.40625 20.757812 C 62.796875 21.859375 63.117188 23 63.378906 24.167969 C 63.800781 26.054688 64.066406 28.015625 64.183594 30.039062 C 64.234375 30.886719 64.257812 31.746094 64.257812 32.613281 Z M 64.257812 32.613281 " fill-opacity="1" fill-rule="nonzero"/><path fill="#380d36" d="M 32.875 57.816406 C 24.167969 57.816406 17.351562 56.042969 12.617188 52.546875 C 7.390625 48.691406 4.746094 42.753906 4.746094 34.898438 C 4.746094 30.625 6.734375 26.398438 11 21.597656 C 11.429688 21.109375 11.617188 19.976562 11.855469 18.546875 C 12.710938 13.386719 14.304688 3.777344 31.125 3.300781 C 33.789062 3.226562 36.34375 3.324219 38.71875 3.585938 C 39.003906 3.617188 39.285156 3.652344 39.5625 3.6875 C 39.617188 3.695312 39.679688 3.703125 39.742188 3.714844 C 40.4375 3.804688 41.125 3.914062 41.785156 4.039062 C 50.917969 5.734375 57.402344 10.21875 61.050781 17.347656 C 61.582031 18.382812 62.050781 19.480469 62.453125 20.609375 C 62.464844 20.644531 62.476562 20.683594 62.492188 20.71875 C 62.875 21.816406 63.203125 22.96875 63.460938 24.148438 C 63.875 25.988281 64.152344 27.96875 64.269531 30.03125 C 64.320312 30.875 64.347656 31.742188 64.347656 32.613281 C 64.347656 35.113281 64 37.511719 63.316406 39.734375 C 63.3125 39.75 63.308594 39.757812 63.304688 39.769531 C 61.5625 45.394531 57.632812 50.050781 51.9375 53.242188 C 46.59375 56.238281 40.003906 57.816406 32.875 57.816406 Z M 32.882812 3.460938 C 32.304688 3.460938 31.71875 3.464844 31.128906 3.484375 C 14.460938 3.957031 12.882812 13.46875 12.035156 18.574219 C 11.792969 20.035156 11.601562 21.191406 11.136719 21.714844 C 6.902344 26.484375 4.929688 30.671875 4.929688 34.894531 C 4.929688 42.6875 7.550781 48.578125 12.726562 52.398438 C 17.433594 55.871094 24.214844 57.632812 32.878906 57.632812 C 47.890625 57.632812 59.765625 50.601562 63.132812 39.714844 C 63.136719 39.703125 63.140625 39.6875 63.148438 39.671875 C 63.824219 37.46875 64.167969 35.09375 64.167969 32.609375 C 64.167969 31.742188 64.144531 30.875 64.09375 30.039062 C 63.96875 27.988281 63.699219 26.015625 63.289062 24.183594 C 63.027344 23.011719 62.703125 21.871094 62.324219 20.785156 C 62.308594 20.742188 62.296875 20.703125 62.28125 20.667969 C 61.882812 19.546875 61.414062 18.457031 60.890625 17.429688 C 57.269531 10.351562 50.832031 5.902344 41.753906 4.21875 C 41.097656 4.09375 40.414062 3.988281 39.71875 3.894531 C 39.660156 3.882812 39.597656 3.878906 39.539062 3.871094 C 39.257812 3.832031 38.980469 3.800781 38.699219 3.769531 C 36.855469 3.5625 34.910156 3.460938 32.882812 3.460938 Z M 32.882812 3.460938 " fill-opacity="1" fill-rule="nonzero"/><path fill="#ffffff" d="M 25.214844 5.804688 C 25.539062 6.640625 24.625 7.773438 23.179688 8.339844 C 21.773438 8.882812 20.378906 8.691406 20.003906 7.914062 C 16.824219 9.734375 13.230469 16.136719 11.777344 19.5625 C 12.699219 15.449219 15.746094 6.414062 23.433594 4.164062 C 20.222656 3.882812 16.097656 4.265625 12.515625 5.921875 C 7.332031 8.324219 2.101562 15.066406 2.75 19.5625 C -0.144531 15.328125 5.867188 6.847656 11.820312 4.089844 C 17.476562 1.472656 24.496094 2.039062 27.128906 3.378906 C 28.417969 3.199219 29.816406 3.078125 31.34375 3.039062 C 33.328125 2.984375 37.773438 3.65625 39.550781 3.78125 C 38.207031 4.789062 30.976562 4.390625 25.113281 5.613281 C 25.152344 5.671875 25.1875 5.734375 25.214844 5.804688 Z M 25.214844 5.804688 " fill-opacity="0.6" fill-rule="nonzero"/><path fill="#380d36" d="M 27.367188 3.460938 C 23.234375 4.046875 20.292969 5.304688 18.179688 6.894531 C 11.710938 11.757812 12.953125 19.761719 11.515625 21.375 C 11.164062 21.769531 10.816406 22.175781 10.484375 22.582031 C 9.214844 22.507812 7.660156 22.1875 5.746094 21.558594 C 1.378906 20.121094 1.539062 16.050781 3.746094 12.121094 C 1.074219 19.125 7.832031 20.742188 11.953125 11.308594 C 12.40625 10.265625 12.960938 9.351562 13.585938 8.558594 C 17.332031 3.800781 23.648438 3.167969 26.652344 3.15625 C 26.917969 3.25 27.15625 3.351562 27.367188 3.460938 Z M 27.367188 3.460938 " fill-opacity="0.3" fill-rule="nonzero"/><path fill="#380d36" d="M 32.875 58.371094 C 14.109375 58.371094 4.191406 50.253906 4.191406 34.898438 C 4.191406 29.097656 7.839844 24.316406 10.585938 21.230469 C 10.910156 20.863281 11.105469 19.691406 11.3125 18.457031 C 12.195312 13.140625 13.835938 3.238281 31.109375 2.75 C 33.796875 2.675781 36.375 2.769531 38.777344 3.039062 C 39.0625 3.070312 39.34375 3.101562 39.621094 3.140625 C 39.691406 3.148438 39.757812 3.15625 39.824219 3.167969 C 40.519531 3.261719 41.21875 3.371094 41.886719 3.496094 C 51.195312 5.230469 57.8125 9.804688 61.542969 17.097656 C 62.082031 18.152344 62.5625 19.273438 62.972656 20.425781 L 62.980469 20.445312 C 62.988281 20.476562 63 20.503906 63.011719 20.53125 C 63.40625 21.652344 63.738281 22.828125 64.003906 24.027344 C 64.425781 25.894531 64.703125 27.90625 64.824219 30 C 64.875 30.847656 64.898438 31.726562 64.898438 32.613281 C 64.898438 35.167969 64.542969 37.621094 63.847656 39.898438 L 63.832031 39.933594 C 62.046875 45.691406 58.03125 50.460938 52.207031 53.722656 C 46.785156 56.765625 40.097656 58.371094 32.875 58.371094 Z M 32.886719 4.011719 C 32.308594 4.011719 31.730469 4.019531 31.144531 4.035156 C 14.933594 4.496094 13.460938 13.367188 12.582031 18.664062 C 12.3125 20.277344 12.121094 21.4375 11.546875 22.082031 C 7.410156 26.746094 5.480469 30.816406 5.480469 34.898438 C 5.480469 42.503906 8.027344 48.246094 13.054688 51.953125 C 17.660156 55.355469 24.328125 57.078125 32.875 57.078125 C 47.632812 57.078125 59.300781 50.207031 62.601562 39.5625 C 62.605469 39.542969 62.613281 39.523438 62.621094 39.503906 C 63.28125 37.347656 63.617188 35.03125 63.617188 32.609375 C 63.617188 31.75 63.59375 30.898438 63.542969 30.074219 C 63.425781 28.050781 63.15625 26.109375 62.753906 24.308594 C 62.496094 23.15625 62.179688 22.035156 61.804688 20.96875 C 61.792969 20.925781 61.777344 20.890625 61.765625 20.847656 C 61.375 19.75 60.917969 18.6875 60.40625 17.683594 C 56.867188 10.765625 50.554688 6.417969 41.660156 4.761719 C 41.011719 4.640625 40.335938 4.535156 39.648438 4.445312 C 39.589844 4.433594 39.539062 4.425781 39.488281 4.421875 L 39.464844 4.417969 C 39.195312 4.382812 38.917969 4.351562 38.640625 4.316406 C 36.816406 4.113281 34.886719 4.011719 32.886719 4.011719 Z M 63.230469 39.707031 Z M 63.230469 39.707031 " fill-opacity="1" fill-rule="nonzero"/><path fill="#380d36" d="M 10.035156 23.503906 C 10.019531 23.503906 10.011719 23.503906 9.996094 23.503906 C 8.613281 23.421875 7.011719 23.078125 5.097656 22.449219 C 2.003906 21.429688 1.242188 19.296875 1.152344 17.679688 C 0.859375 12.6875 6.386719 6.15625 11.335938 3.863281 C 17.152344 1.167969 24.414062 1.742188 27.210938 3.164062 C 27.527344 3.324219 27.652344 3.714844 27.488281 4.03125 C 27.328125 4.351562 26.941406 4.472656 26.625 4.3125 C 24.367188 3.164062 17.511719 2.421875 11.875 5.035156 C 6.878906 7.347656 2.203125 13.578125 2.4375 17.605469 C 2.539062 19.371094 3.570312 20.589844 5.5 21.226562 C 7.28125 21.8125 8.820312 22.148438 10.070312 22.21875 C 10.429688 22.242188 10.699219 22.546875 10.675781 22.902344 C 10.65625 23.242188 10.371094 23.503906 10.035156 23.503906 Z M 10.035156 23.503906 " fill-opacity="1" fill-rule="nonzero"/><path fill="#380d36" d="M 26.738281 4.367188 L 26.734375 4.367188 L 26.734375 4.1875 Z M 26.738281 4.367188 " fill-opacity="1" fill-rule="nonzero"/><path fill="#380d36" d="M 46.84375 26.171875 C 46.84375 26.753906 46.78125 27.3125 46.660156 27.847656 C 46.539062 28.382812 46.367188 28.855469 46.144531 29.265625 C 45.921875 29.675781 45.664062 29.992188 45.375 30.214844 C 45.082031 30.4375 44.777344 30.546875 44.460938 30.546875 C 44.148438 30.546875 43.84375 30.4375 43.550781 30.214844 C 43.261719 29.992188 43.003906 29.675781 42.78125 29.265625 C 42.558594 28.855469 42.386719 28.382812 42.265625 27.847656 C 42.144531 27.3125 42.082031 26.753906 42.082031 26.171875 C 42.082031 25.59375 42.144531 25.035156 42.265625 24.5 C 42.386719 23.960938 42.558594 23.488281 42.78125 23.078125 C 43.003906 22.667969 43.261719 22.351562 43.550781 22.132812 C 43.84375 21.910156 44.148438 21.796875 44.460938 21.796875 C 44.777344 21.796875 45.082031 21.910156 45.375 22.132812 C 45.664062 22.351562 45.921875 22.667969 46.144531 23.078125 C 46.367188 23.488281 46.539062 23.960938 46.660156 24.5 C 46.78125 25.035156 46.84375 25.59375 46.84375 26.171875 Z M 46.84375 26.171875 " fill-opacity="1" fill-rule="nonzero"/><path fill="#380d36" d="M 44.460938 30.640625 C 43.101562 30.640625 41.992188 28.636719 41.992188 26.171875 C 41.992188 23.707031 43.101562 21.707031 44.460938 21.707031 C 45.824219 21.707031 46.933594 23.707031 46.933594 26.171875 C 46.933594 28.636719 45.824219 30.640625 44.460938 30.640625 Z M 44.460938 21.890625 C 43.199219 21.890625 42.171875 23.8125 42.171875 26.171875 C 42.171875 28.535156 43.199219 30.453125 44.460938 30.453125 C 45.726562 30.453125 46.753906 28.535156 46.753906 26.171875 C 46.75 23.8125 45.722656 21.890625 44.460938 21.890625 Z M 44.460938 21.890625 " fill-opacity="1" fill-rule="nonzero"/><path fill="#ffffff" d="M 45.828125 25.195312 C 45.828125 25.40625 45.808594 25.613281 45.769531 25.808594 C 45.726562 26.003906 45.671875 26.175781 45.59375 26.324219 C 45.519531 26.476562 45.433594 26.589844 45.335938 26.671875 C 45.238281 26.753906 45.136719 26.792969 45.03125 26.792969 C 44.925781 26.792969 44.824219 26.753906 44.726562 26.671875 C 44.628906 26.589844 44.542969 26.476562 44.46875 26.324219 C 44.390625 26.175781 44.335938 26.003906 44.292969 25.808594 C 44.253906 25.613281 44.234375 25.40625 44.234375 25.195312 C 44.234375 24.984375 44.253906 24.78125 44.292969 24.585938 C 44.335938 24.386719 44.390625 24.214844 44.46875 24.066406 C 44.542969 23.917969 44.628906 23.800781 44.726562 23.71875 C 44.824219 23.636719 44.925781 23.597656 45.03125 23.597656 C 45.136719 23.597656 45.238281 23.636719 45.335938 23.71875 C 45.433594 23.800781 45.519531 23.917969 45.59375 24.066406 C 45.671875 24.214844 45.726562 24.386719 45.769531 24.585938 C 45.808594 24.78125 45.828125 24.984375 45.828125 25.195312 Z M 45.828125 25.195312 " fill-opacity="1" fill-rule="nonzero"/><path fill="#380d36" d="M 45.03125 26.886719 C 44.53125 26.886719 44.140625 26.140625 44.140625 25.195312 C 44.140625 24.25 44.53125 23.503906 45.03125 23.503906 C 45.53125 23.503906 45.921875 24.25 45.921875 25.195312 C 45.921875 26.140625 45.53125 26.886719 45.03125 26.886719 Z M 45.03125 23.6875 C 44.648438 23.6875 44.324219 24.375 44.324219 25.191406 C 44.324219 26.007812 44.648438 26.699219 45.03125 26.699219 C 45.414062 26.699219 45.738281 26.007812 45.738281 25.191406 C 45.738281 24.375 45.414062 23.6875 45.03125 23.6875 Z M 45.03125 23.6875 " fill-opacity="1" fill-rule="nonzero"/><path fill="#ffffff" d="M 18.058594 25.324219 C 18.058594 25.65625 18 25.941406 17.878906 26.175781 C 17.761719 26.410156 17.617188 26.527344 17.449219 26.527344 C 17.28125 26.527344 17.136719 26.410156 17.019531 26.175781 C 16.898438 25.941406 16.839844 25.65625 16.839844 25.324219 C 16.839844 24.996094 16.898438 24.710938 17.019531 24.476562 C 17.136719 24.242188 17.28125 24.125 17.449219 24.125 C 17.617188 24.125 17.761719 24.242188 17.878906 24.476562 C 18 24.710938 18.058594 24.996094 18.058594 25.324219 Z M 18.058594 25.324219 " fill-opacity="1" fill-rule="nonzero"/><path fill="#380d36" d="M 17.449219 26.617188 C 17.054688 26.617188 16.75 26.054688 16.75 25.328125 C 16.75 24.605469 17.058594 24.039062 17.449219 24.039062 C 17.839844 24.039062 18.148438 24.605469 18.148438 25.328125 C 18.148438 26.054688 17.84375 26.617188 17.449219 26.617188 Z M 17.449219 24.222656 C 17.199219 24.222656 16.933594 24.667969 16.933594 25.328125 C 16.933594 25.992188 17.199219 26.4375 17.449219 26.4375 C 17.699219 26.4375 17.964844 25.992188 17.964844 25.328125 C 17.964844 24.664062 17.699219 24.222656 17.449219 24.222656 Z M 17.449219 24.222656 " fill-opacity="1" fill-rule="nonzero"/><path fill="#914817" d="M 45.566406 37.9375 C 45.566406 38.675781 45.460938 39.402344 45.253906 40.125 C 45.050781 40.847656 44.742188 41.550781 44.339844 42.230469 C 43.933594 42.910156 43.4375 43.554688 42.851562 44.167969 C 42.261719 44.78125 41.59375 45.347656 40.847656 45.867188 C 40.097656 46.386719 39.285156 46.851562 38.40625 47.261719 C 37.527344 47.667969 36.597656 48.015625 35.621094 48.296875 C 34.644531 48.578125 33.636719 48.789062 32.597656 48.933594 C 31.558594 49.078125 30.511719 49.148438 29.453125 49.148438 C 28.398438 49.148438 27.347656 49.078125 26.3125 48.933594 C 25.273438 48.789062 24.265625 48.578125 23.289062 48.296875 C 22.3125 48.015625 21.382812 47.667969 20.503906 47.261719 C 19.625 46.851562 18.8125 46.386719 18.0625 45.867188 C 17.316406 45.347656 16.648438 44.78125 16.058594 44.167969 C 15.472656 43.554688 14.976562 42.910156 14.570312 42.230469 C 14.164062 41.550781 13.859375 40.847656 13.652344 40.125 C 13.449219 39.402344 13.34375 38.675781 13.34375 37.9375 C 13.34375 37.203125 13.449219 36.472656 13.652344 35.75 C 13.859375 35.03125 14.164062 34.328125 14.570312 33.648438 C 14.976562 32.96875 15.472656 32.324219 16.058594 31.710938 C 16.648438 31.097656 17.316406 30.53125 18.0625 30.011719 C 18.8125 29.492188 19.625 29.027344 20.503906 28.617188 C 21.382812 28.207031 22.3125 27.863281 23.289062 27.582031 C 24.265625 27.300781 25.273438 27.085938 26.3125 26.945312 C 27.347656 26.800781 28.398438 26.726562 29.453125 26.726562 C 30.511719 26.726562 31.558594 26.800781 32.597656 26.945312 C 33.636719 27.085938 34.644531 27.300781 35.621094 27.582031 C 36.597656 27.863281 37.527344 28.207031 38.40625 28.617188 C 39.285156 29.027344 40.097656 29.492188 40.847656 30.011719 C 41.59375 30.53125 42.261719 31.097656 42.851562 31.710938 C 43.4375 32.324219 43.933594 32.96875 44.339844 33.648438 C 44.742188 34.328125 45.050781 35.03125 45.253906 35.75 C 45.460938 36.472656 45.566406 37.203125 45.566406 37.9375 Z M 45.566406 37.9375 " fill-opacity="1" fill-rule="nonzero"/><path fill="#380d36" d="M 45.566406 37.9375 C 45.566406 44.128906 38.351562 49.148438 29.453125 49.148438 C 21.40625 49.148438 14.738281 45.042969 13.539062 39.675781 C 16.183594 43.351562 21.644531 45.875 27.953125 45.875 C 36.847656 45.875 44.0625 40.855469 44.0625 34.664062 C 44.0625 34.074219 43.996094 33.496094 43.871094 32.925781 C 44.953125 34.4375 45.566406 36.140625 45.566406 37.9375 Z M 45.566406 37.9375 " fill-opacity="0.3" fill-rule="nonzero"/><path fill="#380d36" d="M 32.191406 29.265625 C 32.191406 30.890625 29.765625 33.121094 27.277344 33.121094 C 24.789062 33.121094 23.011719 30.855469 23.011719 29.230469 C 23.011719 27.605469 24.789062 27.238281 27.277344 27.238281 C 29.765625 27.238281 32.191406 27.640625 32.191406 29.265625 Z M 32.191406 29.265625 " fill-opacity="1" fill-rule="nonzero"/><path fill="#380d36" d="M 22.21875 34.371094 C 22.21875 34.550781 22.15625 34.703125 22.027344 34.828125 C 21.902344 34.953125 21.75 35.019531 21.570312 35.019531 C 21.390625 35.019531 21.238281 34.953125 21.113281 34.828125 C 20.988281 34.703125 20.921875 34.550781 20.921875 34.371094 C 20.921875 34.191406 20.988281 34.039062 21.113281 33.910156 C 21.238281 33.785156 21.390625 33.722656 21.570312 33.722656 C 21.75 33.722656 21.902344 33.785156 22.027344 33.910156 C 22.15625 34.039062 22.21875 34.191406 22.21875 34.371094 Z M 22.21875 34.371094 " fill-opacity="1" fill-rule="nonzero"/><path fill="#380d36" d="M 20.757812 35.664062 C 20.757812 35.839844 20.691406 35.996094 20.566406 36.121094 C 20.441406 36.246094 20.289062 36.3125 20.109375 36.3125 C 19.929688 36.3125 19.777344 36.246094 19.652344 36.121094 C 19.523438 35.996094 19.460938 35.839844 19.460938 35.664062 C 19.460938 35.484375 19.523438 35.332031 19.652344 35.203125 C 19.777344 35.078125 19.929688 35.015625 20.109375 35.015625 C 20.289062 35.015625 20.441406 35.078125 20.566406 35.203125 C 20.691406 35.332031 20.757812 35.484375 20.757812 35.664062 Z M 20.757812 35.664062 " fill-opacity="1" fill-rule="nonzero"/><path fill="#380d36" d="M 22.589844 36.144531 C 22.589844 36.324219 22.527344 36.476562 22.402344 36.605469 C 22.273438 36.730469 22.121094 36.792969 21.945312 36.792969 C 21.765625 36.792969 21.613281 36.730469 21.488281 36.605469 C 21.359375 36.476562 21.296875 36.324219 21.296875 36.144531 C 21.296875 35.96875 21.359375 35.8125 21.488281 35.6875 C 21.613281 35.5625 21.765625 35.496094 21.945312 35.496094 C 22.121094 35.496094 22.273438 35.5625 22.402344 35.6875 C 22.527344 35.8125 22.589844 35.96875 22.589844 36.144531 Z M 22.589844 36.144531 " fill-opacity="1" fill-rule="nonzero"/><path fill="#380d36" d="M 34.660156 34.667969 C 34.660156 34.910156 34.578125 35.117188 34.40625 35.285156 C 34.234375 35.457031 34.03125 35.542969 33.789062 35.542969 C 33.546875 35.542969 33.34375 35.457031 33.171875 35.285156 C 33 35.117188 32.914062 34.910156 32.914062 34.667969 C 32.914062 34.425781 33 34.222656 33.171875 34.050781 C 33.34375 33.878906 33.546875 33.792969 33.789062 33.792969 C 34.03125 33.792969 34.234375 33.878906 34.40625 34.050781 C 34.578125 34.222656 34.660156 34.425781 34.660156 34.667969 Z M 34.660156 34.667969 " fill-opacity="1" fill-rule="nonzero"/><path fill="#380d36" d="M 34.132812 37.5625 C 34.132812 37.804688 34.046875 38.007812 33.875 38.179688 C 33.703125 38.351562 33.5 38.4375 33.257812 38.4375 C 33.015625 38.4375 32.8125 38.351562 32.640625 38.179688 C 32.46875 38.007812 32.386719 37.804688 32.386719 37.5625 C 32.386719 37.320312 32.46875 37.113281 32.640625 36.945312 C 32.8125 36.773438 33.015625 36.6875 33.257812 36.6875 C 33.5 36.6875 33.703125 36.773438 33.875 36.945312 C 34.046875 37.113281 34.132812 37.320312 34.132812 37.5625 Z M 34.132812 37.5625 " fill-opacity="1" fill-rule="nonzero"/><path fill="#380d36" d="M 36.707031 36.683594 C 36.707031 36.925781 36.625 37.132812 36.453125 37.300781 C 36.28125 37.472656 36.078125 37.558594 35.835938 37.558594 C 35.59375 37.558594 35.390625 37.472656 35.21875 37.300781 C 35.046875 37.132812 34.964844 36.925781 34.964844 36.683594 C 34.964844 36.441406 35.046875 36.238281 35.21875 36.066406 C 35.390625 35.894531 35.59375 35.808594 35.835938 35.808594 C 36.078125 35.808594 36.28125 35.894531 36.453125 36.066406 C 36.625 36.238281 36.707031 36.441406 36.707031 36.683594 Z M 36.707031 36.683594 " fill-opacity="1" fill-rule="nonzero"/><path fill="#ffffff" d="M 27.585938 28.289062 C 27.953125 28.304688 28.304688 28.335938 28.640625 28.382812 C 28.980469 28.429688 29.277344 28.488281 29.53125 28.554688 C 29.789062 28.621094 29.988281 28.695312 30.125 28.777344 C 30.261719 28.855469 30.328125 28.933594 30.324219 29.011719 C 30.320312 29.089844 30.246094 29.164062 30.101562 29.230469 C 29.957031 29.296875 29.753906 29.351562 29.492188 29.394531 C 29.230469 29.4375 28.929688 29.464844 28.589844 29.480469 C 28.25 29.492188 27.894531 29.492188 27.527344 29.472656 C 27.160156 29.457031 26.808594 29.425781 26.472656 29.378906 C 26.136719 29.332031 25.835938 29.273438 25.582031 29.207031 C 25.324219 29.136719 25.128906 29.066406 24.992188 28.984375 C 24.855469 28.90625 24.785156 28.828125 24.789062 28.75 C 24.792969 28.671875 24.867188 28.597656 25.011719 28.53125 C 25.15625 28.464844 25.359375 28.410156 25.621094 28.367188 C 25.882812 28.324219 26.183594 28.296875 26.523438 28.28125 C 26.863281 28.269531 27.21875 28.269531 27.585938 28.289062 Z M 27.585938 28.289062 " fill-opacity="1" fill-rule="nonzero"/><path fill="#380d36" d="M 28.097656 29.582031 C 27.898438 29.582031 27.703125 29.578125 27.523438 29.566406 C 26.777344 29.53125 26.078125 29.4375 25.558594 29.296875 C 24.980469 29.140625 24.691406 28.957031 24.699219 28.742188 C 24.722656 28.242188 26.441406 28.140625 27.589844 28.195312 C 28.335938 28.230469 29.035156 28.324219 29.554688 28.464844 C 30.132812 28.621094 30.421875 28.804688 30.414062 29.019531 C 30.394531 29.445312 29.167969 29.582031 28.097656 29.582031 Z M 26.960938 28.371094 C 25.605469 28.371094 24.890625 28.601562 24.882812 28.757812 C 24.882812 28.816406 25.027344 28.96875 25.605469 29.121094 C 26.117188 29.253906 26.800781 29.351562 27.535156 29.386719 C 29.289062 29.46875 30.222656 29.1875 30.230469 29.011719 C 30.234375 28.953125 30.089844 28.800781 29.507812 28.648438 C 29 28.515625 28.316406 28.417969 27.582031 28.382812 C 27.359375 28.375 27.15625 28.371094 26.960938 28.371094 Z M 26.960938 28.371094 " fill-opacity="1" fill-rule="nonzero"/><path fill="#380d36" d="M 64.375 32.25 C 64.375 48.683594 49.480469 57.363281 32.992188 57.363281 C 16.496094 57.363281 4.953125 50.96875 4.953125 34.535156 C 4.953125 33.820312 5.007812 33.121094 5.117188 32.441406 C 6.570312 46.46875 17.636719 52.011719 32.996094 52.011719 C 48.6875 52.011719 62.929688 44.15625 64.273438 29.234375 C 64.339844 30.226562 64.375 31.234375 64.375 32.25 Z M 64.375 32.25 " fill-opacity="0.3" fill-rule="nonzero"/><path fill="#914817" d="M 62.226562 20.6875 C 47.917969 25.390625 53.792969 12.910156 48.117188 8.648438 C 41.851562 3.941406 39.554688 7.535156 39.546875 3.734375 C 39.542969 1.753906 48.8125 0.00390625 55.917969 3.296875 C 63.03125 6.59375 70.226562 18.054688 62.226562 20.6875 Z M 62.226562 20.6875 " fill-opacity="1" fill-rule="nonzero"/><path fill="#380d36" d="M 56.925781 21.820312 C 55.785156 21.820312 54.847656 21.601562 54.097656 21.171875 C 52.167969 20.058594 51.667969 17.71875 51.136719 15.242188 C 50.609375 12.777344 50.066406 10.230469 48.0625 8.726562 C 44.921875 6.367188 42.828125 6.109375 41.4375 5.941406 C 40.117188 5.78125 39.457031 5.703125 39.453125 3.734375 C 39.453125 3.378906 39.707031 3.03125 40.210938 2.707031 C 42.660156 1.136719 50.1875 0.542969 55.957031 3.214844 C 61.277344 5.679688 66.070312 12.136719 65.820312 16.496094 C 65.703125 18.570312 64.46875 20.046875 62.253906 20.777344 L 62.238281 20.78125 C 60.128906 21.472656 58.363281 21.820312 56.925781 21.820312 Z M 46.925781 1.550781 C 44.019531 1.550781 41.527344 2.085938 40.308594 2.863281 C 39.867188 3.144531 39.636719 3.445312 39.640625 3.734375 C 39.644531 5.539062 40.136719 5.59375 41.460938 5.757812 C 42.78125 5.917969 44.992188 6.183594 48.171875 8.574219 C 50.230469 10.121094 50.78125 12.703125 51.316406 15.203125 C 51.835938 17.640625 52.328125 19.941406 54.183594 21.007812 C 55.839844 21.960938 58.457031 21.824219 62.195312 20.597656 L 62.210938 20.59375 C 64.367188 19.878906 65.519531 18.496094 65.636719 16.484375 C 65.757812 14.40625 64.695312 11.730469 62.726562 9.136719 C 60.800781 6.601562 58.308594 4.503906 55.878906 3.378906 C 53.046875 2.066406 49.785156 1.550781 46.925781 1.550781 Z M 46.925781 1.550781 " fill-opacity="1" fill-rule="nonzero"/><path fill="#ffffff" d="M 64.074219 19.726562 C 65 18.515625 65.144531 16.921875 64.730469 15.207031 L 64.730469 15.203125 C 63.71875 11.007812 59.410156 6.070312 55.128906 4.085938 C 54.714844 3.894531 54.292969 3.71875 53.867188 3.5625 C 53.824219 3.546875 53.785156 3.53125 53.738281 3.515625 C 49.609375 2.011719 45.019531 2.007812 42.027344 2.652344 C 41.203125 2.828125 40.503906 3.054688 39.960938 3.308594 C 40.003906 3.101562 40.148438 2.902344 40.378906 2.707031 C 40.914062 2.257812 41.914062 1.859375 43.210938 1.582031 C 46.207031 0.9375 50.792969 0.941406 54.925781 2.441406 C 54.964844 2.453125 55.011719 2.472656 55.050781 2.488281 C 55.480469 2.648438 55.898438 2.820312 56.316406 3.015625 C 60.59375 4.996094 64.902344 9.9375 65.914062 14.128906 L 65.914062 14.132812 C 66.464844 16.417969 66.035156 18.484375 64.074219 19.726562 Z M 64.074219 19.726562 " fill-opacity="0.6" fill-rule="nonzero"/><path fill="#380d36" d="M 57.09375 22.4375 C 56.152344 22.4375 55.335938 22.296875 54.628906 22.019531 C 51.960938 20.960938 51.359375 18.148438 50.777344 15.425781 C 50.273438 13.058594 49.75 10.613281 47.910156 9.234375 C 46.632812 8.273438 45.433594 7.59375 44.242188 7.160156 C 43.125 6.746094 42.246094 6.640625 41.546875 6.554688 C 41.054688 6.496094 40.660156 6.449219 40.308594 6.316406 L 40.289062 6.316406 L 40.160156 6.253906 C 40.144531 6.246094 40.128906 6.238281 40.113281 6.234375 L 40.058594 6.207031 C 39.207031 5.738281 39.085938 4.78125 39.085938 3.804688 C 39.085938 3.496094 39.203125 3.03125 39.746094 2.566406 C 40.535156 1.902344 41.875 1.515625 42.859375 1.304688 C 45.789062 0.675781 50.496094 0.578125 54.929688 2.1875 C 54.976562 2.203125 55.023438 2.222656 55.070312 2.238281 C 55.511719 2.402344 55.953125 2.585938 56.371094 2.78125 C 60.878906 4.867188 65.226562 9.902344 66.3125 14.261719 L 66.34375 14.335938 L 66.34375 14.410156 C 67.117188 17.738281 65.8125 20.246094 62.757812 21.316406 L 62.675781 21.398438 L 62.511719 21.398438 C 60.375 22.09375 58.582031 22.4375 57.09375 22.4375 Z M 40.800781 5.121094 C 41.007812 5.191406 41.324219 5.230469 41.703125 5.277344 C 42.433594 5.367188 43.429688 5.484375 44.6875 5.949219 C 45.996094 6.429688 47.304688 7.164062 48.683594 8.199219 C 50.910156 9.871094 51.507812 12.679688 52.035156 15.152344 C 52.59375 17.761719 53.074219 20.015625 55.101562 20.820312 C 56.613281 21.421875 58.890625 21.210938 62.054688 20.1875 L 62.203125 20.140625 C 64.761719 19.296875 65.730469 17.46875 65.085938 14.703125 L 65.050781 14.628906 L 65.050781 14.558594 C 64.0625 10.601562 59.941406 5.851562 55.824219 3.945312 C 55.429688 3.765625 55.019531 3.59375 54.605469 3.441406 L 54.585938 3.4375 C 54.554688 3.421875 54.519531 3.410156 54.488281 3.398438 C 50.304688 1.875 45.75 1.996094 43.125 2.5625 C 41.953125 2.8125 41.023438 3.171875 40.570312 3.550781 C 40.382812 3.710938 40.367188 3.800781 40.367188 3.800781 C 40.367188 4.660156 40.496094 4.921875 40.609375 5.027344 L 40.695312 5.027344 Z M 62.40625 20.757812 Z M 62.40625 20.757812 " fill-opacity="1" fill-rule="nonzero"/><path fill="#380d36" d="M 62.40625 20.753906 C 62.796875 21.855469 63.117188 22.996094 63.378906 24.164062 C 51.5625 30.214844 49.734375 18.882812 49.734375 18.882812 C 49.734375 18.882812 48.015625 8.777344 42.640625 7.871094 C 37.265625 6.964844 38.289062 3.882812 38.289062 3.882812 C 38.386719 3.828125 38.53125 3.757812 38.707031 3.675781 C 38.988281 3.550781 39.351562 3.394531 39.746094 3.230469 C 39.882812 3.175781 40.019531 3.117188 40.164062 3.058594 C 41.464844 2.527344 42.917969 1.960938 42.996094 1.933594 C 40.9375 3.085938 41.132812 3.75 41.773438 4.125 C 42.34375 4.460938 43.273438 4.558594 43.273438 4.558594 C 51.503906 6.429688 54.191406 13.855469 54.191406 13.855469 C 54.191406 13.855469 54.292969 18.523438 59.765625 17.660156 C 60.207031 17.589844 60.609375 17.5 60.972656 17.390625 C 65.148438 16.125 64.660156 12.421875 64.660156 12.421875 C 64.871094 12.769531 65.0625 13.109375 65.230469 13.441406 C 65.40625 13.796875 65.566406 14.144531 65.699219 14.484375 L 65.699219 14.488281 C 66.367188 17.257812 65.59375 19.707031 62.40625 20.753906 Z M 62.40625 20.753906 " fill-opacity="0.3" fill-rule="nonzero"/><path fill="#380d36" d="M 15.480469 35.015625 C 15.480469 35.015625 16.867188 39.605469 20.773438 39.015625 C 24.679688 38.425781 26.933594 33.78125 27.363281 32.414062 C 27.363281 32.414062 29.285156 40.8125 34.960938 40.320312 C 40.632812 39.832031 41.5625 34.671875 41.5625 34.671875 C 41.5625 34.671875 42.289062 42.761719 34.660156 42.613281 C 27.039062 42.460938 27.363281 36.148438 27.363281 36.148438 C 27.363281 36.148438 26.546875 41.632812 20.757812 41.46875 C 14.96875 41.300781 15.480469 35.015625 15.480469 35.015625 Z M 15.480469 35.015625 " fill-opacity="0.3" fill-rule="nonzero"/><path fill="#380d36" d="M 34.910156 42.800781 C 34.785156 42.800781 34.660156 42.800781 34.527344 42.796875 C 32.085938 42.734375 30.152344 41.921875 28.789062 40.386719 C 28.054688 39.5625 27.5625 38.613281 27.238281 37.679688 C 26.332031 39.878906 24.625 41.21875 22.253906 41.574219 C 20.160156 41.886719 18.410156 41.5 17.058594 40.4375 C 14.832031 38.6875 14.539062 35.742188 14.527344 35.617188 C 14.496094 35.265625 14.757812 34.949219 15.109375 34.914062 C 15.464844 34.882812 15.777344 35.140625 15.8125 35.496094 C 15.816406 35.539062 16.078125 38.035156 17.863281 39.429688 C 18.925781 40.261719 20.34375 40.554688 22.066406 40.296875 C 25.707031 39.757812 26.492188 36.535156 26.636719 34.613281 C 26.578125 33.730469 26.628906 33.128906 26.636719 33.0625 L 27.917969 33.058594 C 27.921875 33.097656 27.976562 33.675781 27.925781 34.515625 C 28.011719 35.878906 28.390625 37.996094 29.757812 39.535156 C 30.875 40.792969 32.496094 41.457031 34.5625 41.507812 C 37.023438 41.570312 38.804688 40.992188 39.847656 39.789062 C 41.226562 38.203125 40.878906 35.992188 40.875 35.972656 C 40.816406 35.621094 41.054688 35.289062 41.402344 35.230469 C 41.75 35.171875 42.082031 35.40625 42.144531 35.753906 C 42.164062 35.867188 42.605469 38.570312 40.832031 40.625 C 39.582031 42.070312 37.59375 42.800781 34.910156 42.800781 Z M 34.910156 42.800781 " fill-opacity="1" fill-rule="nonzero"/><path fill="#ffffff" d="M 18.984375 16.835938 C 19.328125 16.875 19.664062 16.957031 19.992188 17.085938 C 20.320312 17.210938 20.632812 17.378906 20.933594 17.589844 C 21.230469 17.800781 21.511719 18.050781 21.769531 18.335938 C 22.027344 18.625 22.257812 18.941406 22.46875 19.292969 C 22.675781 19.644531 22.855469 20.023438 23.003906 20.425781 C 23.152344 20.828125 23.269531 21.25 23.355469 21.6875 C 23.441406 22.128906 23.492188 22.578125 23.511719 23.035156 C 23.527344 23.492188 23.511719 23.953125 23.460938 24.410156 C 23.410156 24.871094 23.328125 25.320312 23.210938 25.765625 C 23.09375 26.207031 22.945312 26.632812 22.769531 27.042969 C 22.589844 27.453125 22.382812 27.839844 22.152344 28.199219 C 21.917969 28.5625 21.660156 28.890625 21.382812 29.1875 C 21.101562 29.488281 20.804688 29.746094 20.492188 29.972656 C 20.179688 30.195312 19.851562 30.378906 19.515625 30.519531 C 19.175781 30.660156 18.835938 30.757812 18.488281 30.808594 C 18.140625 30.859375 17.792969 30.867188 17.449219 30.832031 C 17.105469 30.792969 16.769531 30.710938 16.441406 30.582031 C 16.113281 30.457031 15.800781 30.289062 15.5 30.078125 C 15.203125 29.867188 14.921875 29.617188 14.664062 29.332031 C 14.40625 29.042969 14.175781 28.726562 13.964844 28.375 C 13.757812 28.019531 13.578125 27.644531 13.429688 27.242188 C 13.28125 26.839844 13.164062 26.417969 13.078125 25.976562 C 12.992188 25.539062 12.941406 25.089844 12.925781 24.632812 C 12.90625 24.175781 12.921875 23.714844 12.972656 23.257812 C 13.023438 22.796875 13.105469 22.347656 13.222656 21.902344 C 13.339844 21.460938 13.488281 21.035156 13.664062 20.625 C 13.84375 20.214844 14.050781 19.828125 14.285156 19.46875 C 14.515625 19.105469 14.773438 18.777344 15.050781 18.480469 C 15.332031 18.179688 15.628906 17.917969 15.941406 17.695312 C 16.257812 17.472656 16.582031 17.289062 16.917969 17.148438 C 17.257812 17.007812 17.597656 16.910156 17.945312 16.859375 C 18.292969 16.808594 18.640625 16.800781 18.984375 16.835938 Z M 18.984375 16.835938 " fill-opacity="1" fill-rule="nonzero"/><path fill="#380d36" d="M 17.882812 31.40625 C 17.71875 31.40625 17.554688 31.398438 17.386719 31.378906 C 14.195312 31.03125 11.964844 27.359375 12.421875 23.195312 C 12.875 19.035156 15.847656 15.9375 19.039062 16.289062 C 22.234375 16.636719 24.464844 20.308594 24.007812 24.472656 C 23.578125 28.414062 20.882812 31.40625 17.882812 31.40625 Z M 18.542969 17.363281 C 16.101562 17.363281 13.890625 19.9375 13.519531 23.316406 C 13.128906 26.871094 14.917969 29.996094 17.507812 30.28125 C 20.09375 30.566406 22.519531 27.902344 22.910156 24.347656 C 23.300781 20.792969 21.507812 17.671875 18.921875 17.386719 C 18.792969 17.371094 18.667969 17.363281 18.542969 17.363281 Z M 23.460938 24.410156 Z M 23.460938 24.410156 " fill-opacity="1" fill-rule="nonzero"/><path fill="#380d36" d="M 20.679688 19.453125 C 20.957031 19.5 21.222656 19.578125 21.480469 19.6875 C 21.738281 19.792969 21.984375 19.933594 22.214844 20.097656 C 22.449219 20.261719 22.664062 20.453125 22.863281 20.667969 C 23.058594 20.882812 23.238281 21.121094 23.390625 21.378906 C 23.546875 21.636719 23.679688 21.910156 23.785156 22.199219 C 23.890625 22.488281 23.972656 22.789062 24.027344 23.101562 C 24.082031 23.414062 24.109375 23.726562 24.109375 24.046875 C 24.109375 24.367188 24.082031 24.6875 24.027344 25.003906 C 23.972656 25.320312 23.890625 25.628906 23.78125 25.933594 C 23.675781 26.234375 23.542969 26.523438 23.390625 26.796875 C 23.234375 27.070312 23.054688 27.328125 22.859375 27.5625 C 22.660156 27.800781 22.445312 28.015625 22.210938 28.207031 C 21.980469 28.394531 21.734375 28.558594 21.476562 28.695312 C 21.214844 28.832031 20.949219 28.941406 20.675781 29.015625 C 20.402344 29.09375 20.125 29.140625 19.84375 29.15625 C 19.5625 29.171875 19.289062 29.15625 19.011719 29.105469 C 18.738281 29.058594 18.472656 28.980469 18.214844 28.875 C 17.953125 28.765625 17.710938 28.628906 17.476562 28.460938 C 17.246094 28.296875 17.027344 28.105469 16.832031 27.890625 C 16.632812 27.675781 16.457031 27.4375 16.300781 27.179688 C 16.144531 26.921875 16.015625 26.648438 15.910156 26.359375 C 15.800781 26.070312 15.722656 25.769531 15.667969 25.457031 C 15.613281 25.148438 15.585938 24.832031 15.585938 24.511719 C 15.585938 24.191406 15.613281 23.871094 15.667969 23.554688 C 15.722656 23.238281 15.804688 22.929688 15.910156 22.628906 C 16.015625 22.324219 16.148438 22.039062 16.304688 21.761719 C 16.460938 21.488281 16.636719 21.234375 16.835938 20.996094 C 17.03125 20.757812 17.25 20.542969 17.480469 20.355469 C 17.714844 20.164062 17.960938 20 18.21875 19.863281 C 18.476562 19.726562 18.742188 19.621094 19.019531 19.542969 C 19.292969 19.464844 19.570312 19.417969 19.847656 19.402344 C 20.128906 19.386719 20.40625 19.40625 20.679688 19.453125 Z M 20.679688 19.453125 " fill-opacity="1" fill-rule="nonzero"/><path fill="#ffffff" d="M 19.277344 21.890625 C 19.402344 21.960938 19.503906 22.050781 19.585938 22.171875 C 19.667969 22.289062 19.722656 22.425781 19.753906 22.578125 C 19.78125 22.730469 19.78125 22.890625 19.753906 23.050781 C 19.726562 23.214844 19.671875 23.371094 19.589844 23.519531 C 19.507812 23.667969 19.40625 23.796875 19.285156 23.90625 C 19.160156 24.019531 19.027344 24.101562 18.886719 24.160156 C 18.742188 24.214844 18.597656 24.242188 18.453125 24.238281 C 18.308594 24.230469 18.175781 24.195312 18.050781 24.128906 C 17.929688 24.058594 17.828125 23.964844 17.746094 23.847656 C 17.664062 23.730469 17.605469 23.59375 17.578125 23.441406 C 17.550781 23.289062 17.546875 23.128906 17.578125 22.96875 C 17.605469 22.804688 17.660156 22.648438 17.742188 22.5 C 17.824219 22.351562 17.925781 22.222656 18.046875 22.113281 C 18.167969 22 18.300781 21.917969 18.445312 21.859375 C 18.589844 21.800781 18.734375 21.777344 18.878906 21.78125 C 19.023438 21.789062 19.15625 21.824219 19.277344 21.890625 Z M 19.277344 21.890625 " fill-opacity="1" fill-rule="nonzero"/><path fill="#ffffff" d="M 45.175781 19.179688 C 45.519531 19.21875 45.855469 19.300781 46.183594 19.425781 C 46.511719 19.554688 46.824219 19.722656 47.121094 19.933594 C 47.421875 20.144531 47.699219 20.394531 47.957031 20.679688 C 48.21875 20.964844 48.449219 21.285156 48.65625 21.636719 C 48.867188 21.988281 49.042969 22.367188 49.195312 22.769531 C 49.34375 23.171875 49.460938 23.59375 49.546875 24.03125 C 49.628906 24.46875 49.683594 24.917969 49.699219 25.378906 C 49.71875 25.835938 49.703125 26.292969 49.652344 26.753906 C 49.601562 27.210938 49.515625 27.664062 49.402344 28.105469 C 49.285156 28.550781 49.136719 28.976562 48.957031 29.386719 C 48.78125 29.796875 48.574219 30.183594 48.339844 30.542969 C 48.109375 30.902344 47.851562 31.234375 47.574219 31.53125 C 47.292969 31.828125 46.996094 32.089844 46.683594 32.3125 C 46.367188 32.539062 46.042969 32.71875 45.703125 32.859375 C 45.367188 33 45.023438 33.097656 44.675781 33.152344 C 44.328125 33.203125 43.984375 33.210938 43.640625 33.171875 C 43.296875 33.132812 42.960938 33.050781 42.632812 32.925781 C 42.304688 32.796875 41.988281 32.628906 41.691406 32.417969 C 41.390625 32.207031 41.113281 31.960938 40.855469 31.671875 C 40.597656 31.386719 40.363281 31.066406 40.15625 30.714844 C 39.949219 30.363281 39.769531 29.988281 39.621094 29.582031 C 39.472656 29.179688 39.355469 28.757812 39.269531 28.320312 C 39.183594 27.882812 39.132812 27.433594 39.113281 26.976562 C 39.097656 26.515625 39.113281 26.058594 39.164062 25.597656 C 39.214844 25.140625 39.296875 24.6875 39.414062 24.246094 C 39.53125 23.800781 39.679688 23.375 39.855469 22.964844 C 40.035156 22.554688 40.238281 22.171875 40.472656 21.808594 C 40.707031 21.449219 40.960938 21.117188 41.242188 20.820312 C 41.519531 20.523438 41.816406 20.261719 42.132812 20.039062 C 42.445312 19.816406 42.773438 19.632812 43.109375 19.492188 C 43.445312 19.351562 43.789062 19.253906 44.136719 19.203125 C 44.484375 19.148438 44.832031 19.140625 45.175781 19.179688 Z M 45.175781 19.179688 " fill-opacity="1" fill-rule="nonzero"/><path fill="#380d36" d="M 44.085938 33.839844 C 43.914062 33.839844 43.742188 33.828125 43.570312 33.8125 C 40.324219 33.453125 38.0625 29.738281 38.523438 25.527344 C 38.742188 23.523438 39.542969 21.691406 40.773438 20.378906 C 42.050781 19.015625 43.636719 18.359375 45.246094 18.539062 C 46.851562 18.714844 48.261719 19.695312 49.214844 21.308594 C 50.132812 22.859375 50.515625 24.816406 50.292969 26.824219 C 50.074219 28.828125 49.273438 30.660156 48.042969 31.972656 C 46.902344 33.1875 45.515625 33.839844 44.085938 33.839844 Z M 44.734375 19.796875 C 43.660156 19.796875 42.601562 20.308594 41.710938 21.257812 C 40.667969 22.367188 39.992188 23.933594 39.804688 25.664062 C 39.421875 29.167969 41.171875 32.246094 43.714844 32.527344 C 44.90625 32.65625 46.113281 32.144531 47.105469 31.085938 C 48.144531 29.976562 48.824219 28.40625 49.011719 26.675781 C 49.199219 24.945312 48.878906 23.269531 48.105469 21.960938 C 47.367188 20.707031 46.300781 19.945312 45.105469 19.8125 C 44.980469 19.804688 44.855469 19.796875 44.734375 19.796875 Z M 44.734375 19.796875 " fill-opacity="1" fill-rule="nonzero"/><path fill="#380d36" d="M 46.875 21.785156 C 47.148438 21.832031 47.414062 21.910156 47.671875 22.019531 C 47.933594 22.128906 48.175781 22.265625 48.410156 22.429688 C 48.640625 22.597656 48.859375 22.785156 49.054688 23.003906 C 49.253906 23.21875 49.429688 23.453125 49.585938 23.710938 C 49.742188 23.96875 49.871094 24.242188 49.976562 24.535156 C 50.085938 24.824219 50.164062 25.125 50.21875 25.433594 C 50.273438 25.746094 50.300781 26.0625 50.300781 26.382812 C 50.300781 26.703125 50.273438 27.019531 50.21875 27.335938 C 50.164062 27.65625 50.082031 27.964844 49.976562 28.265625 C 49.871094 28.566406 49.738281 28.855469 49.582031 29.128906 C 49.425781 29.40625 49.25 29.660156 49.050781 29.898438 C 48.855469 30.136719 48.636719 30.347656 48.40625 30.539062 C 48.171875 30.730469 47.925781 30.894531 47.667969 31.03125 C 47.410156 31.167969 47.144531 31.273438 46.867188 31.351562 C 46.59375 31.429688 46.316406 31.472656 46.039062 31.488281 C 45.757812 31.503906 45.480469 31.488281 45.207031 31.441406 C 44.929688 31.394531 44.664062 31.316406 44.40625 31.207031 C 44.148438 31.097656 43.902344 30.960938 43.671875 30.796875 C 43.4375 30.632812 43.222656 30.441406 43.023438 30.226562 C 42.828125 30.007812 42.648438 29.773438 42.496094 29.515625 C 42.339844 29.257812 42.207031 28.984375 42.101562 28.695312 C 41.996094 28.402344 41.914062 28.101562 41.859375 27.792969 C 41.804688 27.480469 41.777344 27.164062 41.777344 26.84375 C 41.777344 26.523438 41.804688 26.207031 41.859375 25.890625 C 41.914062 25.574219 41.996094 25.261719 42.101562 24.960938 C 42.210938 24.660156 42.34375 24.371094 42.496094 24.097656 C 42.652344 23.824219 42.832031 23.566406 43.027344 23.328125 C 43.226562 23.09375 43.441406 22.878906 43.675781 22.6875 C 43.90625 22.496094 44.152344 22.332031 44.410156 22.199219 C 44.671875 22.0625 44.9375 21.953125 45.210938 21.875 C 45.484375 21.800781 45.761719 21.753906 46.042969 21.738281 C 46.324219 21.722656 46.597656 21.738281 46.875 21.785156 Z M 46.875 21.785156 " fill-opacity="1" fill-rule="nonzero"/><path fill="#102770" d="M 45.835938 31.601562 C 45.675781 31.601562 45.515625 31.589844 45.351562 31.570312 C 44.316406 31.433594 43.375 30.878906 42.699219 29.996094 C 41.886719 28.9375 41.539062 27.507812 41.738281 26.074219 C 42.113281 23.347656 44.351562 21.375 46.722656 21.679688 C 47.757812 21.8125 48.699219 22.367188 49.375 23.25 C 50.1875 24.3125 50.535156 25.742188 50.335938 27.175781 C 49.988281 29.714844 48.019531 31.601562 45.835938 31.601562 Z M 46.238281 21.832031 C 44.144531 21.832031 42.257812 23.648438 41.917969 26.101562 C 41.726562 27.484375 42.066406 28.863281 42.847656 29.886719 C 43.492188 30.730469 44.390625 31.261719 45.375 31.386719 C 45.53125 31.40625 45.683594 31.414062 45.835938 31.414062 C 47.929688 31.414062 49.816406 29.597656 50.15625 27.144531 C 50.347656 25.761719 50.007812 24.382812 49.226562 23.363281 C 48.585938 22.519531 47.683594 21.988281 46.699219 21.859375 C 46.542969 21.84375 46.390625 21.832031 46.238281 21.832031 Z M 46.238281 21.832031 " fill-opacity="1" fill-rule="nonzero"/><path fill="#ffffff" d="M 45.46875 24.230469 C 45.59375 24.296875 45.695312 24.390625 45.777344 24.511719 C 45.859375 24.628906 45.914062 24.765625 45.945312 24.917969 C 45.972656 25.070312 45.972656 25.226562 45.945312 25.390625 C 45.917969 25.554688 45.863281 25.707031 45.78125 25.855469 C 45.699219 26.003906 45.597656 26.132812 45.476562 26.246094 C 45.351562 26.355469 45.21875 26.441406 45.074219 26.5 C 44.933594 26.554688 44.789062 26.582031 44.644531 26.574219 C 44.5 26.570312 44.367188 26.535156 44.242188 26.464844 C 44.121094 26.398438 44.019531 26.304688 43.9375 26.1875 C 43.855469 26.066406 43.796875 25.929688 43.769531 25.777344 C 43.738281 25.625 43.738281 25.46875 43.769531 25.304688 C 43.796875 25.144531 43.851562 24.988281 43.933594 24.839844 C 44.011719 24.691406 44.117188 24.5625 44.238281 24.449219 C 44.359375 24.339844 44.492188 24.253906 44.636719 24.199219 C 44.78125 24.140625 44.925781 24.117188 45.070312 24.121094 C 45.214844 24.125 45.347656 24.164062 45.46875 24.230469 Z M 45.46875 24.230469 " fill-opacity="1" fill-rule="nonzero"/><path fill="#380d36" d="M 75.578125 52.628906 C 75.578125 52.628906 75.761719 55.578125 72.542969 53.460938 L 72.355469 54.011719 L 75.628906 57.363281 L 76.097656 53.972656 Z M 75.578125 52.628906 " fill-opacity="0.3" fill-rule="nonzero"/><path fill="#380d36" d="M 77.359375 71.792969 C 76.328125 76.960938 73.386719 81.34375 67.71875 81.542969 C 59.664062 81.832031 60.113281 81.542969 57.535156 81.542969 C 56.5625 81.542969 54.597656 79.078125 57.535156 77.636719 C 55.273438 78.726562 54.21875 79.332031 51.636719 79.726562 L 51.46875 80.019531 C 50.796875 80.625 48.179688 83.011719 47.058594 83.253906 C 46.527344 83.390625 45.96875 83.453125 45.382812 83.425781 C 45.261719 83.429688 45.132812 83.433594 45.007812 83.433594 C 41.769531 83.433594 38.71875 83.433594 39.574219 79.882812 C 39.617188 79.699219 39.589844 79.519531 39.609375 79.347656 C 35.5625 78.285156 31.917969 76.277344 28.933594 73.574219 C 28.898438 73.898438 28.867188 74.210938 28.824219 74.511719 C 27.898438 81.402344 25.058594 81.253906 25.058594 81.253906 C 25.058594 81.253906 14.527344 82.777344 14.703125 78.820312 C 14.78125 77.089844 16.277344 76.289062 17.925781 75.773438 L 17.910156 75.628906 L 17.101562 67.988281 C 19.054688 71.679688 22.445312 75.859375 26.339844 70.804688 C 26.445312 70.667969 26.546875 70.527344 26.652344 70.378906 C 26.652344 70.378906 34.105469 75.617188 40.738281 72.210938 C 40.925781 73.425781 41.15625 74.640625 41.445312 75.769531 C 41.445312 75.769531 49.53125 79.925781 54.679688 72.484375 C 55.316406 70.789062 55.820312 69.046875 56.226562 67.433594 C 57.175781 63.617188 57.535156 60.523438 57.535156 60.523438 C 57.535156 60.523438 58.792969 62.683594 58.199219 64.726562 C 58.199219 64.726562 58.90625 66.082031 61.042969 63.472656 C 61.042969 63.472656 61.046875 63.46875 61.046875 63.46875 C 61.203125 63.277344 61.363281 63.066406 61.535156 62.832031 C 61.535156 62.832031 61.492188 66.578125 58.199219 69.214844 L 57.535156 73.34375 C 58.527344 73.4375 59.777344 73.136719 61.355469 72.828125 C 62.675781 72.578125 64.597656 71.710938 65.976562 70.445312 C 65.972656 70.457031 73.785156 79.351562 77.359375 71.792969 Z M 77.359375 71.792969 " fill-opacity="0.3" fill-rule="nonzero"/><path fill="#380d36" d="M 64.15625 42.472656 C 60.949219 49.5 49.667969 67.972656 15.910156 58.578125 L 15.480469 54.519531 C 20.136719 56.949219 26.09375 58.035156 32.890625 58.035156 C 47.210938 58.035156 60.324219 51.496094 63.53125 39.011719 C 63.710938 40.066406 63.953125 41.453125 64.15625 42.472656 Z M 64.15625 42.472656 " fill-opacity="0.3" fill-rule="nonzero"/><g fill="#000000" fill-opacity="1"><g transform="translate(87.573439, 40.696731)"><g><path d="M 9.890625 -1.296875 L 10.238281 -0.34375 L 11.144531 0 L 12.007812 0.0429688 L 12.785156 -0.0429688 L 14.125 0.0429688 L 15.335938 -0.0429688 L 16.199219 0.0429688 L 17.0625 -0.433594 L 17.410156 -1.339844 L 17.539062 -6.351562 L 17.453125 -7.214844 L 17.453125 -8.078125 L 17.582031 -8.855469 L 17.539062 -11.359375 L 17.796875 -12.613281 L 18.230469 -13.738281 L 23.714844 -22.765625 L 24.234375 -23.371094 L 27 -27.949219 L 27.472656 -29.03125 L 27.300781 -29.980469 L 26.523438 -30.152344 L 24.839844 -30.195312 L 23.933594 -30.109375 L 23.066406 -30.238281 L 21.382812 -30.195312 L 20.648438 -30.238281 L 19.484375 -29.808594 L 18.703125 -29.074219 L 17.582031 -27.214844 L 17.0625 -25.917969 L 16.113281 -24.535156 L 15.679688 -23.628906 L 15.25 -22.894531 L 14.515625 -21.253906 L 13.953125 -20.519531 L 13.476562 -20.519531 L 13.003906 -21.339844 L 12.527344 -22.03125 L 11.230469 -24.449219 L 10.757812 -25.183594 L 8.726562 -28.984375 L 7.820312 -29.808594 L 6.824219 -30.195312 L 5.917969 -30.152344 L 5.183594 -30.324219 L 2.980469 -30.152344 L 0.992188 -30.28125 L 0.128906 -29.851562 L 0 -28.898438 L 0.433594 -27.90625 L 2.289062 -24.839844 L 2.765625 -24.234375 L 4.535156 -21.167969 L 5.574219 -19.785156 L 5.917969 -19.007812 L 9.246094 -13.738281 L 9.675781 -12.527344 L 9.890625 -11.359375 L 9.847656 -7.949219 L 9.9375 -7.085938 L 9.847656 -3.757812 L 9.9375 -2.9375 Z M 9.890625 -1.296875 "/></g></g></g><g fill="#000000" fill-opacity="1"><g transform="translate(120.187929, 40.696731)"><g><path d="M 2.074219 -1.253906 L 2.503906 -0.34375 L 3.371094 -0.0429688 L 16.199219 0.0429688 L 17.019531 -0.390625 L 17.496094 -1.167969 L 17.496094 -2.117188 L 17.410156 -2.894531 L 17.539062 -5.53125 L 16.933594 -6.265625 L 14.039062 -7.171875 L 13.5625 -8.035156 L 13.652344 -11.578125 L 13.476562 -13.304688 L 13.652344 -15.121094 L 13.5625 -16.414062 L 13.652344 -17.753906 L 13.5625 -18.574219 L 13.652344 -19.4375 L 13.5625 -20.347656 L 13.5625 -22.160156 L 14.039062 -22.9375 L 14.859375 -23.414062 L 15.8125 -23.457031 L 16.632812 -23.933594 L 17.105469 -24.753906 L 17.105469 -27.300781 L 17.191406 -28.078125 L 17.105469 -28.941406 L 16.761719 -29.808594 L 15.378906 -30.195312 L 9.890625 -30.238281 L 8.941406 -30.152344 L 6.308594 -30.195312 L 5.484375 -30.152344 L 3.800781 -30.238281 L 2.851562 -29.808594 L 2.375 -28.898438 L 2.375 -28.078125 L 2.289062 -27.34375 L 2.289062 -26.394531 L 2.375 -25.53125 L 2.375 -24.710938 L 2.808594 -23.890625 L 5.441406 -22.980469 L 6.003906 -22.203125 L 5.875 -18.53125 L 5.917969 -17.796875 L 6.046875 -16.804688 L 6.003906 -15.03125 L 5.917969 -14.167969 L 6.089844 -12.484375 L 5.875 -11.621094 L 6.046875 -9.761719 L 5.960938 -8.078125 L 5.53125 -7.128906 L 2.679688 -6.21875 L 2.160156 -5.398438 L 2.074219 -4.578125 Z M 2.074219 -1.253906 "/></g></g></g><g fill="#000000" fill-opacity="1"><g transform="translate(144.940692, 40.696731)"><g><path d="M 3.109375 -1.253906 L 3.671875 -0.433594 L 4.492188 0.0429688 L 14.253906 -0.0429688 L 15.03125 0.0859375 L 17.667969 -0.0429688 L 20.304688 0.128906 L 21.125 0.0429688 L 22.03125 -0.390625 L 22.421875 -1.210938 L 22.507812 -2.03125 L 22.464844 -4.707031 L 22.550781 -5.53125 L 21.988281 -6.394531 L 20.691406 -6.824219 L 14.988281 -6.910156 L 14.167969 -6.78125 L 13.21875 -6.867188 L 12.269531 -6.78125 L 11.359375 -7.300781 L 10.972656 -8.640625 L 11.015625 -10.757812 L 11.40625 -11.664062 L 12.183594 -12.140625 L 13.867188 -12.140625 L 14.730469 -12.226562 L 17.019531 -12.09375 L 18.1875 -12.183594 L 19.09375 -12.09375 L 19.871094 -12.140625 L 20.734375 -12.613281 L 21.167969 -13.433594 L 21.253906 -16.847656 L 21.167969 -17.710938 L 20.777344 -18.53125 L 20.042969 -19.007812 L 18.316406 -19.050781 L 17.453125 -18.964844 L 16.546875 -18.964844 L 15.550781 -19.050781 L 12.140625 -19.007812 L 11.40625 -19.484375 L 10.886719 -20.261719 L 10.800781 -21.597656 L 11.230469 -22.851562 L 12.570312 -23.242188 L 20.863281 -23.285156 L 21.773438 -23.757812 L 22.246094 -24.535156 L 22.160156 -26.308594 L 22.03125 -27.128906 L 22.074219 -28.078125 L 22.203125 -28.898438 L 21.773438 -29.765625 L 20.863281 -30.152344 L 17.410156 -30.195312 L 16.632812 -30.109375 L 15.765625 -30.238281 L 13.867188 -30.152344 L 13.003906 -30.238281 L 11.316406 -30.195312 L 10.539062 -30.28125 L 4.882812 -30.152344 L 3.628906 -29.851562 L 3.195312 -28.898438 L 3.28125 -27.171875 L 3.109375 -25.917969 L 3.28125 -23.714844 L 3.195312 -22.808594 L 3.28125 -22.03125 L 3.28125 -14.296875 L 3.152344 -13.390625 L 3.28125 -11.707031 L 3.195312 -9.980469 L 3.328125 -9.070312 L 3.238281 -8.121094 L 3.28125 -7.300781 L 3.152344 -6.523438 L 3.238281 -5.53125 L 3.238281 -4.664062 L 3.328125 -2.980469 L 3.28125 -2.117188 Z M 3.109375 -1.253906 "/></g></g></g><g fill="#000000" fill-opacity="1"><g transform="translate(174.833818, 40.696731)"><g><path d="M 3.238281 -1.253906 L 3.628906 -0.476562 L 5.011719 0.0429688 L 20.304688 -0.0429688 L 21.511719 -0.476562 L 21.988281 -1.253906 L 21.902344 -2.203125 L 21.945312 -3.066406 L 22.03125 -3.84375 L 21.902344 -4.796875 L 22.03125 -5.617188 L 21.46875 -6.566406 L 20.777344 -7 L 19.828125 -6.867188 L 12.226562 -6.953125 L 11.316406 -7.34375 L 11.058594 -8.292969 L 11.101562 -9.890625 L 10.972656 -10.714844 L 11.015625 -11.664062 L 10.929688 -12.527344 L 11.015625 -13.433594 L 10.972656 -15.59375 L 11.101562 -16.804688 L 10.972656 -17.753906 L 11.101562 -18.660156 L 10.972656 -25.402344 L 11.058594 -26.351562 L 10.972656 -28.46875 L 10.539062 -29.765625 L 9.417969 -30.28125 L 4.925781 -30.195312 L 3.671875 -29.71875 L 3.109375 -28.554688 L 3.371094 -26.308594 L 3.28125 -25.488281 L 3.152344 -24.578125 L 3.28125 -23.714844 L 3.371094 -22.894531 L 3.238281 -21.945312 L 3.28125 -21.125 L 3.195312 -20.261719 L 3.328125 -19.351562 L 3.195312 -18.574219 L 3.28125 -17.710938 L 3.152344 -16.890625 L 3.28125 -15.03125 L 3.152344 -14.210938 L 3.28125 -12.484375 L 3.152344 -11.621094 L 3.195312 -9.890625 L 3.28125 -9.113281 L 3.238281 -3.84375 L 3.328125 -2.980469 L 3.152344 -2.160156 Z M 3.238281 -1.253906 "/></g></g></g><g fill="#000000" fill-opacity="1"><g transform="translate(203.215063, 40.696731)"><g><path d="M 3.238281 -1.339844 L 3.757812 -0.390625 L 4.449219 0 L 5.441406 0 L 6.351562 0.128906 L 7.214844 0.128906 L 8.121094 0 L 15.898438 -0.0429688 L 18.660156 -0.433594 L 21.167969 -1.210938 L 24.839844 -3.671875 L 26.566406 -5.660156 L 27.90625 -7.820312 L 28.121094 -8.640625 L 28.554688 -9.460938 L 28.726562 -10.324219 L 29.03125 -11.101562 L 29.160156 -12.007812 L 29.375 -12.917969 L 29.332031 -13.652344 L 29.503906 -16.414062 L 28.855469 -18.878906 L 28.769531 -19.785156 L 28.554688 -20.5625 L 27.90625 -22.289062 L 26.914062 -23.757812 L 26.566406 -24.492188 L 25.445312 -25.832031 L 24.710938 -26.394531 L 23.5 -27.5625 L 21.902344 -28.554688 L 21.039062 -28.984375 L 18.660156 -29.765625 L 16.890625 -30.109375 L 10.757812 -30.152344 L 9.890625 -30.238281 L 7.128906 -30.152344 L 6.265625 -30.238281 L 5.484375 -30.195312 L 4.578125 -30.238281 L 3.800781 -29.765625 L 3.152344 -28.941406 L 3.152344 -27.171875 L 3.238281 -26.308594 L 3.195312 -25.445312 L 3.28125 -23.800781 L 3.152344 -22.851562 L 3.28125 -21.988281 L 3.152344 -21.125 L 3.328125 -17.667969 L 3.195312 -16.027344 L 3.328125 -14.167969 L 3.195312 -13.347656 L 3.328125 -12.441406 L 3.195312 -10.757812 L 3.28125 -7.300781 L 3.195312 -6.4375 L 3.328125 -2.980469 Z M 12.398438 -6.953125 L 11.359375 -7.34375 L 10.972656 -8.292969 L 11.058594 -9.15625 L 10.886719 -9.9375 L 11.015625 -10.800781 L 11.015625 -21.902344 L 11.535156 -22.679688 L 12.785156 -23.15625 L 13.695312 -23.109375 L 14.601562 -23.15625 L 15.898438 -23.066406 L 17.625 -22.550781 L 19.09375 -21.597656 L 20.171875 -20.390625 L 20.648438 -19.570312 L 21.210938 -18.878906 L 21.730469 -16.328125 L 21.859375 -14.988281 L 21.640625 -12.875 L 21.382812 -12.050781 L 20.734375 -10.496094 L 20.171875 -9.71875 L 19.613281 -9.113281 L 19.09375 -8.421875 L 18.402344 -7.992188 L 17.539062 -7.558594 L 15.984375 -7.128906 Z M 12.398438 -6.953125 "/></g></g></g><g fill="#924818" fill-opacity="1"><g transform="translate(239.764364, 40.696731)"><g/></g></g><g fill="#000000" fill-opacity="1"><g transform="translate(256.619541, 40.696731)"><g><path d="M 13.304688 0.128906 L 14.601562 0.128906 L 15.941406 -0.0429688 L 16.804688 -0.0429688 L 18.058594 -0.433594 L 19.828125 -0.734375 L 21.859375 -1.597656 L 24.753906 -3.542969 L 26.871094 -6.265625 L 27.300781 -7.128906 L 27.820312 -7.820312 L 28.511719 -9.503906 L 28.726562 -10.324219 L 28.898438 -11.230469 L 29.160156 -11.964844 L 29.289062 -12.828125 L 29.289062 -13.738281 L 29.417969 -15.121094 L 29.375 -16.371094 L 28.769531 -19.785156 L 28.207031 -21.425781 L 27.863281 -22.246094 L 26.394531 -24.535156 L 24.105469 -27.085938 L 21.902344 -28.554688 L 21.082031 -29.03125 L 20.21875 -29.203125 L 19.484375 -29.546875 L 18.574219 -29.765625 L 16.027344 -30.152344 L 6.175781 -30.238281 L 5.398438 -30.109375 L 4.535156 -30.152344 L 3.585938 -29.765625 L 3.195312 -28.855469 L 3.152344 -4.707031 L 3.238281 -3.886719 L 3.238281 -1.683594 L 3.671875 -0.34375 L 4.535156 0.0859375 L 5.398438 0 L 10.671875 0.0859375 L 11.535156 -0.0429688 Z M 13.175781 -6.953125 L 12.355469 -7.042969 L 11.359375 -7.515625 L 11.015625 -8.335938 L 10.972656 -9.070312 L 11.015625 -10.84375 L 10.84375 -12.960938 L 11.015625 -15.121094 L 10.929688 -21.082031 L 11.015625 -21.816406 L 11.449219 -22.808594 L 12.828125 -23.109375 L 14.644531 -23.15625 L 15.898438 -23.023438 L 17.582031 -22.550781 L 18.359375 -22.160156 L 19.007812 -21.6875 L 19.65625 -21.082031 L 20.304688 -20.304688 L 20.734375 -19.570312 L 21.125 -18.792969 L 21.816406 -14.988281 L 21.382812 -11.964844 L 20.648438 -10.367188 L 19.050781 -8.554688 L 17.582031 -7.601562 L 16.328125 -7.214844 L 14.472656 -7 Z M 13.175781 -6.953125 "/></g></g></g><g fill="#000000" fill-opacity="1"><g transform="translate(293.164893, 40.696731)"><g><path d="M 16.15625 0.519531 L 18.574219 0.476562 L 21.167969 0.128906 L 24.40625 -0.949219 L 25.832031 -1.726562 L 26.480469 -2.246094 L 27.300781 -2.636719 L 28.511719 -3.671875 L 29.074219 -4.449219 L 29.675781 -5.054688 L 31.578125 -7.949219 L 32.226562 -9.589844 L 32.570312 -11.230469 L 32.613281 -12.007812 L 32.832031 -12.875 L 32.875 -13.78125 L 33.046875 -15.03125 L 32.917969 -17.191406 L 32.613281 -18.964844 L 31.535156 -22.203125 L 30.714844 -23.800781 L 29.765625 -25.097656 L 28.554688 -26.4375 L 27.300781 -27.515625 L 26.308594 -28.207031 L 25.011719 -28.769531 L 24.363281 -29.246094 L 21.039062 -30.28125 L 18.53125 -30.714844 L 17.367188 -30.757812 L 12.785156 -30.109375 L 9.546875 -28.898438 L 8.898438 -28.425781 L 8.121094 -28.035156 L 6.652344 -26.957031 L 4.535156 -24.492188 L 3.195312 -22.203125 L 2.546875 -20.5625 L 1.8125 -17.234375 L 1.683594 -13.738281 L 1.8125 -12.828125 L 2.03125 -12.050781 L 2.117188 -11.230469 L 2.503906 -9.589844 L 4.492188 -5.660156 L 5.011719 -5.140625 L 5.574219 -4.449219 L 6.21875 -3.84375 L 6.695312 -3.28125 L 8.121094 -2.160156 L 11.492188 -0.433594 L 12.742188 0 L 13.695312 0.0859375 L 15.25 0.433594 Z M 18.574219 -7.128906 L 16.199219 -7.128906 L 15.25 -7.257812 L 13.695312 -7.90625 L 13.003906 -8.292969 L 11.835938 -9.246094 L 11.273438 -9.847656 L 10.671875 -10.671875 L 10.453125 -11.359375 L 10.066406 -12.140625 L 9.71875 -13.738281 L 9.71875 -16.371094 L 9.9375 -17.148438 L 10.066406 -17.96875 L 10.410156 -18.75 L 10.671875 -19.527344 L 11.707031 -20.90625 L 13.867188 -22.375 L 14.429688 -22.59375 L 16.113281 -23.023438 L 17.324219 -23.109375 L 19.394531 -22.851562 L 20.171875 -22.679688 L 20.953125 -22.332031 L 22.289062 -21.382812 L 23.976562 -19.613281 L 24.492188 -17.96875 L 24.882812 -17.148438 L 25.011719 -16.371094 L 24.925781 -13.738281 L 24.578125 -12.140625 L 24.277344 -11.359375 L 23.800781 -10.582031 L 23.542969 -9.9375 L 22.9375 -9.246094 L 20.863281 -7.820312 L 20.085938 -7.601562 L 19.4375 -7.300781 Z M 18.574219 -7.128906 "/></g></g></g><g fill="#000000" fill-opacity="1"><g transform="translate(332.949964, 40.696731)"><g><path d="M 15.8125 0.519531 L 16.933594 0.5625 L 19.265625 0.34375 L 20.128906 0.171875 L 20.953125 0.128906 L 21.6875 -0.0859375 L 24.882812 -1.46875 L 25.488281 -1.988281 L 26.914062 -2.894531 L 28.164062 -4.234375 L 29.546875 -6.265625 L 30.542969 -8.25 L 31.101562 -10.109375 L 31.144531 -10.929688 L 31.40625 -11.792969 L 31.578125 -15.078125 L 31.449219 -15.941406 L 30.929688 -16.804688 L 29.675781 -17.191406 L 18.835938 -17.191406 L 17.496094 -16.71875 L 17.105469 -15.898438 L 17.019531 -12.65625 L 17.191406 -11.835938 L 17.453125 -11.101562 L 18.273438 -10.714844 L 19.09375 -10.714844 L 19.871094 -10.625 L 22.464844 -10.757812 L 23.066406 -10.28125 L 23.242188 -9.546875 L 22.894531 -8.855469 L 21.640625 -7.644531 L 20.953125 -7.300781 L 19.308594 -6.78125 L 18.445312 -6.652344 L 17.191406 -6.609375 L 15.855469 -6.695312 L 15.078125 -6.867188 L 14.296875 -7.171875 L 12.742188 -7.992188 L 11.449219 -9.027344 L 10.972656 -9.761719 L 10.625 -10.496094 L 10.152344 -11.273438 L 9.847656 -12.09375 L 9.589844 -16.414062 L 10.066406 -17.96875 L 10.238281 -18.835938 L 10.886719 -20.433594 L 12.007812 -21.640625 L 13.433594 -22.636719 L 14.167969 -22.980469 L 15.855469 -23.542969 L 17.0625 -23.585938 L 19.308594 -23.328125 L 20.128906 -23.109375 L 22.289062 -21.773438 L 22.722656 -21.082031 L 23.671875 -20.390625 L 24.625 -19.957031 L 28.855469 -19.957031 L 29.675781 -20.042969 L 30.410156 -20.304688 L 30.714844 -21.253906 L 29.332031 -24.449219 L 28.726562 -25.054688 L 27.648438 -26.4375 L 26.394531 -27.691406 L 23.457031 -29.503906 L 22.507812 -29.765625 L 21.816406 -30.066406 L 20.953125 -30.195312 L 20 -30.453125 L 15.722656 -30.671875 L 13.089844 -30.238281 L 9.804688 -29.074219 L 9.027344 -28.683594 L 6.867188 -27.214844 L 5.574219 -26.003906 L 5.011719 -25.269531 L 4.578125 -24.578125 L 3.929688 -23.976562 L 3.457031 -23.15625 L 2.117188 -19.871094 L 2.074219 -19.09375 L 1.597656 -17.191406 L 1.683594 -15.03125 L 1.597656 -13.824219 L 1.640625 -12.917969 L 2.375 -9.589844 L 3.28125 -7.214844 L 3.757812 -6.394531 L 5.3125 -4.449219 L 6.523438 -3.195312 L 9.289062 -1.339844 L 10.066406 -0.949219 L 12.484375 -0.0859375 L 14.902344 0.433594 Z M 15.8125 0.519531 "/></g></g></g><g fill="#545454" fill-opacity="1"><g transform="translate(94.983473, 72.020211)"><g><path d="M 11.066406 -5.523438 L 11.066406 -8.621094 L 4.066406 -8.621094 L 4.066406 -10.835938 L 11.066406 -10.835938 L 11.066406 -14.058594 L 0.546875 -14.058594 L 0.546875 0 L 4.066406 0 L 4.066406 -5.523438 Z M 11.066406 -5.523438 "/></g></g></g><g fill="#545454" fill-opacity="1"><g transform="translate(114.334215, 72.020211)"><g><path d="M 11.066406 0 L 11.066406 -3.203125 L 4.066406 -3.203125 L 4.066406 -5.523438 L 11.066406 -5.523438 L 11.066406 -8.621094 L 4.066406 -8.621094 L 4.066406 -10.835938 L 11.066406 -10.835938 L 11.066406 -14.058594 L 0.546875 -14.058594 L 0.546875 0 Z M 11.066406 0 "/></g></g></g><g fill="#545454" fill-opacity="1"><g transform="translate(133.684957, 72.020211)"><g><path d="M 10.875 -10.835938 L 10.875 -14.058594 L 0.316406 -14.058594 L 0.316406 -10.835938 L 3.859375 -10.835938 L 3.859375 0 L 7.378906 0 L 7.378906 -10.835938 Z M 10.875 -10.835938 "/></g></g></g><g fill="#545454" fill-opacity="1"><g transform="translate(152.614217, 72.020211)"><g><path d="M 11.109375 0 L 11.109375 -3.203125 L 4.066406 -3.203125 L 4.066406 -10.835938 L 11.109375 -10.835938 L 11.109375 -14.058594 L 0.546875 -14.058594 L 0.546875 0 Z M 11.109375 0 "/></g></g></g><g fill="#545454" fill-opacity="1"><g transform="translate(171.880659, 72.020211)"><g><path d="M 11.109375 0 L 11.109375 -14.058594 L 7.589844 -14.058594 L 7.589844 -8.621094 L 4.066406 -8.621094 L 4.066406 -14.058594 L 0.546875 -14.058594 L 0.546875 0 L 4.066406 0 L 4.066406 -5.523438 L 7.589844 -5.523438 L 7.589844 0 Z M 11.109375 0 "/></g></g></g><g fill="#545454" fill-opacity="1"><g transform="translate(191.27355, 72.020211)"><g><path d="M 4.066406 0 L 4.066406 -14.058594 L 0.546875 -14.058594 L 0.546875 0 Z M 4.066406 0 "/></g></g></g><g fill="#545454" fill-opacity="1"><g transform="translate(203.627537, 72.020211)"><g><path d="M 10.875 0 L 10.875 -14.058594 L 0.316406 -14.058594 L 0.316406 -10.835938 L 1.011719 -10.835938 L 1.011719 0 L 3.835938 0 L 3.835938 -10.835938 L 7.355469 -10.835938 L 7.355469 0 Z M 10.875 0 "/></g></g></g><g fill="#545454" fill-opacity="1"><g transform="translate(222.788617, 72.020211)"><g><path d="M 11.109375 0 L 11.109375 -5.523438 L 7.589844 -5.523438 L 7.589844 -3.203125 L 4.066406 -3.203125 L 4.066406 -10.835938 L 11.109375 -10.835938 L 11.109375 -14.058594 L 0.546875 -14.058594 L 0.546875 0 Z M 11.109375 0 "/></g></g></g><g fill="#545454" fill-opacity="1"><g transform="translate(242.181508, 72.020211)"><g/></g></g><g fill="#545454" fill-opacity="1"><g transform="translate(257.296263, 72.020211)"><g><path d="M 11.550781 -10.835938 L 11.550781 -14.058594 L 7.335938 -14.058594 L 7.335938 -8.640625 L 4.53125 -8.640625 L 4.53125 -14.058594 L 0.316406 -14.058594 L 0.316406 -10.835938 L 1.011719 -10.835938 L 1.011719 -5.542969 L 4.171875 -5.542969 L 4.171875 0 L 7.695312 0 L 7.695312 -5.542969 L 10.855469 -5.542969 L 10.855469 -10.835938 Z M 11.550781 -10.835938 "/></g></g></g><g fill="#545454" fill-opacity="1"><g transform="translate(276.899902, 72.020211)"><g><path d="M 4.066406 0 L 4.066406 -14.058594 L 0.546875 -14.058594 L 0.546875 0 Z M 4.066406 0 "/></g></g></g><g fill="#545454" fill-opacity="1"><g transform="translate(289.253895, 72.020211)"><g><path d="M 11.066406 0 L 11.066406 -3.203125 L 4.066406 -3.203125 L 4.066406 -5.523438 L 11.066406 -5.523438 L 11.066406 -8.621094 L 4.066406 -8.621094 L 4.066406 -10.835938 L 11.066406 -10.835938 L 11.066406 -14.058594 L 0.546875 -14.058594 L 0.546875 0 Z M 11.066406 0 "/></g></g></g><g fill="#545454" fill-opacity="1"><g transform="translate(308.604637, 72.020211)"><g><path d="M 11.066406 0 L 11.066406 -3.203125 L 4.066406 -3.203125 L 4.066406 -14.058594 L 0.546875 -14.058594 L 0.546875 0 Z M 11.066406 0 "/></g></g></g><g fill="#545454" fill-opacity="1"><g transform="translate(327.828929, 72.020211)"><g><path d="M 10.898438 0 L 10.898438 -14.058594 L 0.335938 -14.058594 L 0.335938 -10.835938 L 1.03125 -10.835938 L 1.03125 -3.203125 L 0.335938 -3.203125 L 0.335938 0 Z M 7.378906 -3.203125 L 3.859375 -3.203125 L 3.859375 -10.835938 L 7.378906 -10.835938 Z M 7.378906 -3.203125 "/></g></g></g><g fill="#545454" fill-opacity="1"><g transform="translate(347.011095, 72.020211)"><g><path d="M 11.109375 0 L 11.109375 -8.621094 L 4.066406 -8.621094 L 4.066406 -10.835938 L 11.109375 -10.835938 L 11.109375 -14.058594 L 0.546875 -14.058594 L 0.546875 -5.523438 L 7.589844 -5.523438 L 7.589844 -3.203125 L 0.546875 -3.203125 L 0.546875 0 Z M 11.109375 0 "/></g></g></g></svg>